<?xml version="1.0" encoding="UTF-8"?>
<svg id="zptp" xmlns="http://www.w3.org/2000/svg" viewBox="0 0 38 38">
  <defs>
    <style>
      .cls-1 {
        fill: #10567c;
      }

      .cls-1, .cls-2, .cls-3, .cls-4 {
        stroke-width: 0px;
      }

      .cls-2 {
        fill: #075178;
      }

      .cls-3 {
        fill: #065278;
      }

      .cls-4 {
        fill: #165a7f;
      }
    </style>
  </defs>
  <path class="cls-2" d="m33.36,23.95c-.67,0-1.34,0-2.01,0-.16,0-.25.05-.34.18-.56.8-1.27,1.42-2.23,1.69-.3.08-.6.11-.91.11-3.48,0-6.97,0-10.45,0-2.69,0-5.38-.02-8.07,0-1,0-1.73-.41-2.32-1.16-.13-.17-.27-.35-.36-.54-.1-.2-.23-.24-.45-.24-1.14.02-2.28,0-3.43.03-.67.02-1.18-.26-1.59-.76-.55-.67-.82-1.46-1-2.29-.3-1.38-.27-2.76.1-4.12.21-.78.52-1.51,1.11-2.1.36-.37.79-.56,1.32-.56,1.19,0,2.39,0,3.58-.01.13,0,.21-.04.28-.16.37-.63.82-1.18,1.5-1.51.31-.15.64-.24.99-.24,5.06,0,10.11,0,15.17,0,1.19,0,2.37.02,3.56,0,1.37-.03,2.37.62,3.17,1.66.14.19.27.27.51.26,1.25-.01,2.5,0,3.75-.01.57,0,1.03.22,1.41.62.63.67.95,1.49,1.14,2.37.37,1.75.29,3.47-.46,5.12-.22.49-.51.93-.94,1.27-.32.25-.68.39-1.09.39-.65,0-1.29,0-1.94,0,0,0,0,0,0,0Zm-22.81,1.43c.12,0,.25,0,.37,0,2.6,0,5.19,0,7.79,0,3.01,0,6.02,0,9.03,0,.91,0,1.67-.32,2.31-.95.58-.57.97-1.27,1.26-2.02.58-1.49.72-3.03.55-4.61-.15-1.31-.52-2.54-1.33-3.59-.7-.91-1.58-1.46-2.78-1.41-.75.03-1.5,0-2.25,0-4.85,0-9.7,0-14.55,0-.12,0-.24,0-.36,0,.59.52,1.01,1.13,1.34,1.81.6,1.25.86,2.57.9,3.95.06,1.71-.19,3.36-.91,4.93-.33.72-.79,1.33-1.38,1.88ZM3.8,14.73c.35.35.59.73.77,1.13.54,1.19.69,2.46.62,3.75-.05,1.02-.23,2.01-.71,2.92-.17.33-.36.65-.67.94.09,0,.12,0,.15,0,1.3-.02,2.6-.05,3.9-.04.54,0,.91-.24,1.22-.64.32-.42.52-.9.68-1.41.37-1.24.42-2.51.21-3.78-.13-.8-.37-1.56-.86-2.23-.33-.44-.73-.67-1.3-.66-.97.02-1.93.01-2.9.02-.35,0-.71,0-1.11,0Zm27.7,8.68c.15,0,.29,0,.42,0,1.08,0,2.15-.01,3.23,0,.47,0,.84-.18,1.15-.52.33-.37.55-.8.72-1.26.42-1.15.52-2.34.38-3.54-.1-.82-.3-1.61-.71-2.34-.39-.68-.92-1.08-1.76-1.04-.89.05-1.79.01-2.68.01-.24,0-.47,0-.71,0,1.31,2.92,1.23,5.8-.02,8.7Zm-24.38.54c.29.43.57.79.94,1.05.6.43,1.23.47,1.81.11.55-.34.98-.79,1.3-1.35.67-1.18.97-2.47,1.09-3.8.13-1.45-.02-2.88-.48-4.26-.28-.84-.67-1.63-1.33-2.25-.7-.65-1.45-.8-2.17-.43-.5.25-.83.67-1.14,1.15.33,0,.61,0,.89,0,.42-.01.78.13,1.1.41.51.44.82,1.01,1.04,1.64.57,1.6.61,3.23.24,4.87-.17.75-.44,1.48-.93,2.09-.4.5-.88.81-1.55.78-.25-.01-.5,0-.81,0ZM.55,19.31c0,.48.07,1.17.25,1.85.18.68.43,1.35.92,1.88.53.58,1.19.58,1.73.02.3-.31.53-.68.69-1.08.64-1.61.68-3.26.28-4.93-.17-.72-.46-1.4-.99-1.94-.48-.5-1.11-.5-1.6-.02-.32.31-.55.7-.73,1.1-.4.92-.54,1.89-.55,3.11Z"/>
  <path class="cls-2" d="m31.83,4.51c-.31.1-.62.2-.92.3-.1.03-.2.05-.29,0-.09-.06-.12-.14-.11-.24,0-.11.07-.2.17-.23.64-.21,1.28-.42,1.93-.62.19-.06.33.07.33.27-.02.67-.04,1.34-.07,2,0,.17-.1.28-.27.28-.18,0-.26-.12-.26-.31,0-.35,0-.71,0-1.11-.25.35-.52.64-.69.98-.41.83-1.01,1.39-1.93,1.62-.71.18-1.16.67-1.32,1.39-.08.35-.1.7-.23,1.04-.22.58-.58,1.03-1.12,1.34-.15.09-.3.14-.42-.04-.1-.15-.04-.3.17-.42.63-.37.93-.93,1.03-1.63.05-.36.11-.72.3-1.04.36-.61.86-1.04,1.56-1.19.58-.13,1.03-.46,1.31-.97.22-.41.48-.78.76-1.14.05-.06.08-.13.13-.2,0-.02-.02-.04-.03-.05Z"/>
  <path class="cls-2" d="m31.61,34.05c-.09-.12-.17-.22-.25-.32-.23-.3-.47-.59-.7-.89-.27-.35-.61-.6-1.04-.73-1.18-.36-1.76-1.21-1.9-2.38-.07-.62-.21-1.2-.7-1.65-.14-.12-.28-.24-.45-.31-.18-.07-.26-.18-.19-.37.06-.16.23-.19.43-.09.75.41,1.22,1.04,1.36,1.89.04.26.06.52.11.78.18.82.66,1.37,1.48,1.61.58.16,1.03.52,1.39,1,.24.32.49.63.73.95.03.04.06.12.13.09.07-.03.04-.1.03-.15-.02-.28-.05-.57-.06-.85-.01-.23.09-.36.26-.35.2.01.25.14.26.33.03.62.08,1.25.12,1.87.02.31-.11.42-.4.34-.56-.16-1.12-.31-1.68-.47-.04,0-.07-.02-.1-.03-.16-.05-.23-.16-.19-.32.04-.17.17-.23.34-.19.25.07.49.14.73.21.07.02.15.06.28.03Z"/>
  <path class="cls-2" d="m4.7,4.89c0,.36,0,.68,0,1,0,.05,0,.1,0,.15,0,.17-.11.26-.26.26-.15,0-.24-.09-.25-.25-.03-.66-.06-1.32-.09-1.98-.01-.26.14-.38.39-.3.61.19,1.22.38,1.83.58.16.05.25.16.2.33-.05.17-.19.23-.36.18-.33-.1-.66-.21-1.02-.28.14.19.28.37.42.55.16.2.29.41.42.64.37.66.91,1.06,1.68,1.18,1.04.17,1.73.85,1.95,1.89.11.51.31.95.78,1.23.15.09.15.23.07.36-.09.14-.22.15-.36.06-.47-.3-.79-.72-.93-1.27-.02-.08-.04-.17-.06-.25-.19-.84-.71-1.34-1.56-1.49-.97-.17-1.64-.72-2.1-1.58-.19-.36-.5-.65-.74-1Z"/>
  <path class="cls-2" d="m19.54,2.83c-.24.33-.44.62-.64.9-.13.18-.3.25-.42.14-.15-.13-.12-.27-.01-.42.37-.54.74-1.08,1.12-1.61.15-.21.36-.2.51.02.32.5.65,1,.97,1.5.04.06.08.12.11.19.06.14.04.28-.1.36-.14.08-.27.03-.35-.11-.19-.29-.38-.58-.56-.87-.09.03-.08.09-.08.13,0,.59-.05,1.17.01,1.76.09.81-.12,1.55-.64,2.18-.76.94-.77,1.94-.3,3,.05.11.11.2.11.33,0,.12-.04.22-.16.25-.13.03-.25,0-.31-.13-.49-1.04-.67-2.09-.15-3.17.1-.2.22-.39.37-.56.46-.53.64-1.16.59-1.84-.05-.63-.05-1.25-.04-1.87,0-.04,0-.08-.01-.18Z"/>
  <path class="cls-2" d="m5.8,33.37c.4-.54.77-1.03,1.13-1.52.11-.15.15-.33.2-.51.24-.99.83-1.64,1.81-1.97.85-.29,1.27-.97,1.49-1.8.02-.08.03-.16.05-.24.02-.16.12-.24.27-.22.17.02.23.14.21.3-.02.17-.06.34-.11.51-.31,1-.93,1.7-1.96,2.02-.66.21-1.05.7-1.21,1.35-.13.52-.36.96-.68,1.37-.19.24-.37.49-.55.74-.04.06-.14.13-.09.2.06.08.16,0,.24-.03.22-.07.44-.16.66-.23.22-.08.36-.03.42.14.06.16-.03.29-.24.37-.57.2-1.14.39-1.71.59-.32.11-.44.02-.44-.31-.01-.63-.02-1.27-.03-1.9,0-.17.07-.29.25-.29.17,0,.26.11.27.28.02.36-.01.73.05,1.16Zm.51.28s.01-.01.02-.02c0,0-.02-.01-.03-.01,0,0,0,0-.01.01,0,0,.02.01.03.02Z"/>
  <path class="cls-2" d="m18.43,34.99c.11-.01.13-.1.16-.17.1-.24.19-.47.29-.71.06-.16.17-.22.33-.17.17.06.22.2.15.35-.25.62-.51,1.24-.77,1.85-.08.19-.26.22-.42.07-.46-.44-.91-.88-1.37-1.31-.13-.13-.16-.27-.04-.4.13-.14.27-.11.4.02.23.22.47.44.73.69.04-.15.01-.25,0-.36-.09-.55-.19-1.1-.24-1.66-.08-.87.12-1.66.68-2.37.37-.47.49-1.03.45-1.62-.02-.37-.11-.73-.25-1.08-.05-.11-.09-.22-.11-.33-.02-.12.03-.24.16-.28.13-.04.26-.01.31.13.53,1.26.62,2.49-.25,3.66-.42.57-.57,1.21-.46,1.91.08.54.15,1.08.23,1.62,0,.05.02.11.03.16Z"/>
  <path class="cls-2" d="m26.86,20.97c-.6,0-1.27-.27-1.94-.57-.45-.2-.89-.43-1.37-.56-.72-.21-1.42-.14-2.12.09-.46.16-.91.35-1.39.46-1.09.25-2.07.03-2.94-.69-.22-.18-.43-.37-.68-.5-.46-.25-.94-.26-1.43-.1-.06.02-.12.05-.18.07-.15.04-.26-.01-.32-.15-.05-.14,0-.24.14-.3.54-.27,1.1-.32,1.67-.13.43.14.77.4,1.1.69.82.73,1.75.86,2.77.56.35-.1.69-.23,1.03-.35,1.15-.42,2.27-.34,3.36.19.46.22.92.46,1.41.62.79.26,1.57.25,2.35-.02.03-.01.07-.03.1-.04.15-.04.27,0,.32.15.05.15,0,.27-.16.33-.51.18-1.03.29-1.73.27Z"/>
  <path class="cls-2" d="m23.48,16.08c-.61,0-1.15.19-1.68.45-.52.26-1.04.52-1.62.64-.86.18-1.66.06-2.4-.44-.28-.19-.54-.41-.81-.62-.6-.46-1.23-.52-1.89-.16-.15.08-.29.08-.38-.08-.09-.17,0-.29.15-.38.79-.47,1.77-.36,2.55.3.23.2.46.4.72.56.76.46,1.55.49,2.37.21.39-.13.75-.31,1.11-.5,1.16-.61,2.35-.64,3.55-.12.37.16.75.33,1.12.47.77.3,1.54.4,2.34.09.15-.06.28-.03.34.13.06.16,0,.28-.17.35-.03.01-.05.02-.08.03-.59.2-1.18.22-1.79.11-.6-.11-1.15-.36-1.7-.61-.56-.25-1.13-.46-1.75-.44Z"/>
  <path class="cls-3" d="m15.74,21.69c.77,0,1.32.34,1.86.75.59.45,1.25.67,1.99.61.53-.04,1.02-.2,1.5-.43.58-.28,1.17-.52,1.82-.57.81-.06,1.54.16,2.23.54.16.09.19.22.11.37-.09.15-.23.14-.38.06-.64-.36-1.32-.52-2.05-.45-.54.06-1.03.29-1.52.52-.79.36-1.6.57-2.47.43-.61-.1-1.14-.37-1.63-.74-.49-.37-1.01-.66-1.67-.54-.15.03-.25-.07-.27-.22-.02-.15.05-.26.2-.29.11-.02.23-.03.28-.04Z"/>
  <path class="cls-4" d="m8.24,24.23c.11.02.2.08.19.2,0,.13-.08.2-.21.19-.12,0-.18-.09-.18-.2,0-.12.08-.17.2-.18Z"/>
  <path class="cls-1" d="m8.55,13.69c-.02.11-.09.17-.19.17-.12,0-.21-.07-.21-.2,0-.1.08-.17.18-.17.12,0,.19.08.21.2Z"/>
  <path class="cls-4" d="m9.11,24.55c.11.01.2.06.2.18,0,.11-.07.18-.17.18-.12,0-.2-.06-.2-.18,0-.11.06-.17.17-.19Z"/>
  <path class="cls-4" d="m9.22,13.45c0,.12-.04.2-.16.2-.11,0-.17-.08-.17-.19,0-.11.05-.18.17-.19.12,0,.16.08.17.18Z"/>
  <path class="cls-1" d="m10.04,13.59c0,.09-.04.17-.15.16-.1,0-.15-.07-.16-.17,0-.1.05-.17.15-.17.11,0,.14.08.16.18Z"/>
  <path class="cls-1" d="m9.74,14.5c-.12,0-.18-.06-.19-.16-.01-.1.04-.17.14-.18.11-.01.16.06.17.16.01.1-.04.16-.12.19Z"/>
  <path class="cls-1" d="m11.23,19.04c.11.01.16.08.16.18,0,.1-.04.17-.15.17-.1,0-.15-.07-.16-.17,0-.11.06-.16.15-.17Z"/>
  <path class="cls-1" d="m12.09,19.61c0,.09-.04.17-.15.16-.1,0-.15-.07-.16-.17,0-.1.05-.17.15-.17.11,0,.14.08.16.18Z"/>
  <path class="cls-1" d="m11.23,20.43c-.1-.02-.15-.07-.15-.18,0-.11.06-.17.16-.17.12,0,.16.1.15.2,0,.09-.06.15-.16.15Z"/>
  <path class="cls-1" d="m11.39,17.91c-.01.09-.05.17-.16.16-.1,0-.15-.07-.15-.17,0-.11.06-.17.16-.17.11,0,.14.08.15.18Z"/>
  <path class="cls-1" d="m11.8,21.09c-.12,0-.18-.06-.19-.16-.01-.1.04-.17.14-.18.11-.01.16.06.17.16.01.1-.04.16-.12.19Z"/>
  <path class="cls-1" d="m11.05,21.14c.11.01.16.08.16.18,0,.1-.04.17-.15.17-.1,0-.15-.07-.16-.17,0-.11.06-.16.15-.17Z"/>
  <path class="cls-1" d="m11.57,22.11c0,.09-.05.17-.16.16-.1,0-.15-.07-.16-.17,0-.11.06-.17.15-.17.11,0,.14.08.16.18Z"/>
  <path class="cls-1" d="m12,17.3c0,.09-.04.17-.15.16-.1,0-.15-.07-.16-.17,0-.1.05-.17.15-.17.11,0,.14.08.16.18Z"/>
  <path class="cls-1" d="m10.71,22.44c-.1-.02-.15-.07-.15-.18,0-.11.06-.17.16-.17.12,0,.16.1.15.2,0,.09-.06.15-.16.15Z"/>
  <path class="cls-1" d="m11.22,16.82c0,.09-.04.17-.15.16-.1,0-.15-.07-.16-.17,0-.11.05-.17.15-.17.11,0,.14.08.16.18Z"/>
  <path class="cls-1" d="m10.21,23.2c0,.09-.05.17-.16.16-.1,0-.15-.07-.15-.17,0-.11.06-.17.15-.17.11,0,.14.08.16.18Z"/>
  <path class="cls-1" d="m9.43,24.02c-.01.09-.05.17-.16.16-.1,0-.15-.07-.15-.17,0-.11.06-.17.16-.17.11,0,.14.08.15.18Z"/>
  <path class="cls-1" d="m10.87,15.91c-.02.09-.05.16-.15.16-.11,0-.17-.08-.16-.19,0-.1.07-.16.17-.15.11,0,.13.1.14.18Z"/>
  <path class="cls-1" d="m10.21,24.25c-.02.08-.05.15-.15.15-.11,0-.17-.07-.16-.19,0-.1.06-.16.17-.16.11,0,.13.09.14.19Z"/>
  <path class="cls-1" d="m11.95,18.47c-.1-.01-.16-.07-.16-.17,0-.1.05-.17.15-.18.11,0,.15.07.16.17,0,.1-.04.17-.14.18Z"/>
  <path class="cls-1" d="m10.52,15.25c0,.09-.05.17-.16.16-.1,0-.15-.07-.16-.17,0-.11.06-.17.15-.17.11,0,.14.08.16.18Z"/>
  <path class="cls-1" d="m10.87,14.51c-.02.09-.05.16-.15.16-.11,0-.17-.08-.16-.19,0-.1.07-.16.17-.15.11,0,.13.1.14.18Z"/>
  <path class="cls-1" d="m10.89,23.58c-.1-.02-.15-.07-.15-.17,0-.11.06-.17.15-.17.12,0,.16.09.15.2,0,.09-.05.15-.15.15Z"/>
  <path class="cls-4" d="m11.52,16.02c.1.01.14.08.14.18,0,.1-.04.16-.15.17-.12,0-.13-.07-.13-.15,0-.1.02-.17.14-.19Z"/>
  <path class="cls-4" d="m11.22,15.19c.09.03.14.09.13.18,0,.08-.04.15-.13.14-.1-.01-.15-.08-.15-.18,0-.08.06-.13.14-.14Z"/>
  <path class="cls-2" d="m.98,19.09c0-.77.11-1.52.38-2.25.13-.36.29-.7.58-.97.4-.38.96-.38,1.36,0,.38.36.56.83.69,1.32.36,1.41.35,2.81-.13,4.19-.1.3-.23.58-.43.83-.47.58-1.14.58-1.62,0-.29-.34-.44-.75-.56-1.17-.19-.64-.25-1.3-.25-1.96Zm2.68,0c0-.65-.07-1.29-.26-1.92-.1-.32-.23-.63-.47-.88-.22-.23-.41-.23-.64,0-.12.12-.21.26-.28.41-.59,1.33-.62,2.7-.27,4.1.09.36.22.71.43,1.02.27.38.54.39.82.03.1-.13.18-.28.25-.43.32-.74.42-1.52.42-2.32Z"/>
</svg>