<?xml version="1.0" encoding="UTF-8"?>
<svg id="ztnp" xmlns="http://www.w3.org/2000/svg" viewBox="0 0 38 38">
  <defs>
    <style>
      .cls-1 {
        fill: #09537a;
      }

      .cls-1, .cls-2, .cls-3, .cls-4, .cls-5, .cls-6, .cls-7, .cls-8 {
        stroke-width: 0px;
      }

      .cls-2 {
        fill: #054f76;
      }

      .cls-3 {
        fill: #10567c;
      }

      .cls-4 {
        fill: #f8f9fa;
      }

      .cls-5 {
        fill: #fbfcfd;
      }

      .cls-6 {
        fill: #075178;
      }

      .cls-7 {
        fill: #075279;
      }

      .cls-8 {
        fill: #065078;
      }
    </style>
  </defs>
  <path class="cls-6" d="m19.03,35.85c-6.1,0-12.2,0-18.3,0-.16,0-.32,0-.47-.07-.18-.08-.29-.22-.25-.43.04-.2.17-.28.36-.31.19-.03.46.11.57-.08.08-.14.01-.38.02-.57,0-.34,0-.68,0-1.03.01-.77.44-1.2,1.21-1.2,3.85,0,7.71,0,11.56,0,7.22,0,14.44,0,21.65,0,.19,0,.39,0,.58,0,.6.05,1.04.55,1.06,1.18.01.47.02.94,0,1.4-.01.25.08.32.31.29.1-.01.21-.01.31,0,.22.03.35.14.37.38.02.22-.1.34-.3.4-.11.03-.22.03-.34.03-6.11,0-12.22,0-18.34,0Zm-8.67-.81c1.56,0,3.02,0,4.49,0,.09,0,.18,0,.25-.07.69-.67,1.37-1.35,2.09-2.05-.1-.04-.13-.06-.16-.06-1.45,0-2.89,0-4.34,0-.1,0-.2,0-.28.08-.66.68-1.33,1.36-2.05,2.1Zm5.41-.12s.06.08.09.12c1.23,0,2.46,0,3.69,0,.12,0,.22-.02.3-.11.65-.67,1.31-1.33,1.97-1.99,0,0,0-.04-.02-.08-1.22,0-2.45,0-3.68,0-.14,0-.24.05-.33.14-.68.64-1.35,1.28-2.03,1.92Zm4.79.03s.04.06.05.1c1.09,0,2.18-.01,3.27,0,.31,0,.54-.08.75-.3.52-.55,1.06-1.07,1.59-1.61.07-.07.14-.15.25-.28-1.27,0-2.46,0-3.65,0-.1,0-.18.03-.24.1-.67.66-1.35,1.32-2.02,1.99Zm13.79-2.08c-1.13,0-2.17,0-3.21,0-.09,0-.15.04-.21.09-.69.66-1.39,1.33-2.08,1.99l.08.1c1.05,0,2.11,0,3.16,0,.07,0,.13-.01.19-.07.67-.68,1.34-1.37,2.08-2.11Zm-28.04,2.1s.03.05.04.08c1.03,0,2.07,0,3.1,0,.12,0,.18-.07.26-.15.36-.35.71-.7,1.07-1.05.31-.3.62-.61,1.01-.98-1.15,0-2.18,0-3.22,0-.12,0-.19.06-.26.13-.67.66-1.33,1.31-2,1.97Zm18.79.08c.97,0,1.87,0,2.77,0,.1,0,.2.02.29-.06.69-.69,1.38-1.38,2.12-2.12-1.02,0-1.97,0-2.92,0-.1,0-.18.04-.24.11-.65.68-1.31,1.35-2.01,2.07Zm-17.44-2.06s-.05-.08-.08-.12c-.78,0-1.56,0-2.34,0-.21,0-.36.07-.51.21-.58.59-1.17,1.18-1.75,1.77-.05.05-.14.08-.11.2.82,0,1.64,0,2.45,0,.09,0,.18,0,.25-.07.69-.66,1.39-1.33,2.08-1.99Zm25.25,1.91s.08.1.11.15c1.01,0,2.02,0,3.04,0,.2,0,.22-.09.21-.25,0-.41,0-.82,0-1.23,0-.27-.04-.53-.33-.61-.34-.1-.73-.2-1.04.07-.68.61-1.33,1.24-2,1.86Zm-28.81-2.01c-.62,0-1.24-.02-1.86,0-.42.02-.52.17-.52.6,0,.41,0,.82,0,1.23,0,.1-.08.25.06.3.15.06.27-.01.39-.13.61-.62,1.22-1.23,1.83-1.85.04-.04.12-.07.1-.17Z"/>
  <path class="cls-8" d="m14.01,13.07c0-2.53.02-5.06,0-7.59-.02-1.83,1.29-2.99,2.52-3.25,1.96-.41,3.85.66,4.19,2.67.06.37.04.75.04,1.13.02,4.99.03,9.99.04,14.98,0,.26.07.43.27.61,1.51,1.38,2.14,3.09,1.63,5.08-.52,2.04-1.92,3.28-3.96,3.76-2.4.56-4.76-.49-5.93-2.43-1.14-1.89-.96-4.7.88-6.33.26-.23.36-.46.36-.81-.02-2.6,0-5.2,0-7.8,0,0,0,0-.01,0Zm5.96.57s-.03,0-.05,0c0-.44,0-.89,0-1.33-.03-2.34.04-4.68-.06-7.01-.07-1.76-1.89-2.77-3.54-2.11-1,.4-1.47,1.21-1.47,2.28,0,5.33,0,10.65,0,15.98,0,.26-.07.43-.29.6-1.71,1.29-2.17,3.8-.98,5.59,1.03,1.56,2.52,2.22,4.38,2.07,1.79-.14,3.35-1.38,3.85-3.06.49-1.65-.13-3.49-1.56-4.58-.23-.17-.29-.34-.29-.59,0-2.61,0-5.22,0-7.83Z"/>
  <path class="cls-6" d="m7.32,16.97c1.51,0,2.78,1.21,2.79,2.65,0,1.58-1.22,2.83-2.79,2.83-1.53,0-2.73-1.26-2.72-2.85,0-1.41,1.27-2.62,2.73-2.62Zm-2.05,2.72c0,1.16.91,2.07,2.08,2.07,1.12,0,2.07-.93,2.09-2.04.02-1.12-.95-2.06-2.13-2.07-1.12,0-2.03.91-2.03,2.04Z"/>
  <path class="cls-6" d="m27.64,7.45c.4-.04.77.07,1.12.22.21.09.4.22.3.49-.1.28-.32.31-.59.22-.32-.11-.65-.2-1-.14-.94.17-1.53.83-1.6,1.8-.02.34-.01.68.09,1.01.29.92,1.21,1.38,2.22,1.1.15-.04.3-.1.44-.16.2-.09.4-.12.5.1.1.21.05.44-.17.56-.52.3-1.08.4-1.67.33-1.74-.21-2.32-1.59-2.21-2.97.1-1.3.8-2.17,1.91-2.5.22-.06.43-.02.64-.06Z"/>
  <path class="cls-7" d="m24.71,29.52c.04-.47.18-.89.46-1.27.62-.82.63-1.22.02-2.05-.5-.68-.52-1.4-.28-2.16.04-.12.09-.23.19-.31.1-.08.2-.14.34-.07.14.07.19.17.18.3-.02.19-.05.38-.1.57-.1.45,0,.85.23,1.23.11.17.23.34.34.51.38.65.36,1.29-.09,1.91-.11.16-.24.31-.33.47-.25.42-.33.86-.15,1.34.04.1.06.19.1.29.08.19.09.37-.1.48-.18.1-.33-.04-.43-.18-.24-.31-.35-.68-.38-1.07Z"/>
  <path class="cls-7" d="m31.2,29.44c-.02-.43.2-.85.48-1.24.59-.84.61-1.09.01-1.95-.45-.65-.61-1.33-.34-2.09.03-.09.06-.17.11-.25.11-.17.25-.32.47-.24.24.09.21.31.15.49-.22.65-.13,1.24.29,1.79.4.53.59,1.12.35,1.79-.09.25-.24.46-.4.67-.46.6-.55,1.22-.2,1.9.08.16.14.34-.04.46-.17.11-.33,0-.45-.13-.27-.32-.43-.69-.43-1.19Z"/>
  <path class="cls-7" d="m27.92,29.49c0-.51.22-.95.51-1.34.53-.72.56-1.12.03-1.85-.49-.66-.66-1.36-.4-2.14,0-.01,0-.02,0-.03.11-.23.2-.55.53-.46.35.09.22.39.15.63-.16.57-.06,1.09.28,1.58.35.5.63,1.02.47,1.68-.07.27-.2.51-.37.72-.52.62-.67,1.29-.3,2.05.08.16.14.33-.05.45-.19.12-.33-.01-.44-.14-.26-.32-.42-.7-.42-1.12Z"/>
  <path class="cls-7" d="m23.66,7.03c.68,0,1.23.55,1.21,1.21-.01.66-.59,1.21-1.24,1.19-.65-.02-1.15-.55-1.14-1.2.02-.7.51-1.21,1.17-1.2Zm0,1.79c.3,0,.59-.29.58-.6,0-.32-.25-.56-.56-.56-.34,0-.59.23-.6.56,0,.3.28.6.58.6Z"/>
  <path class="cls-1" d="m4.74,17.47s-.07,0-.1-.01c-.25-.05-1.16-.96-1.2-1.21-.02-.15.05-.26.16-.35.11-.08.23-.11.35-.02.41.3.78.66,1.1,1.05.18.22-.03.54-.32.55Z"/>
  <path class="cls-1" d="m10,17.46c-.17.02-.28-.07-.36-.21-.09-.15-.07-.3.04-.41.28-.31.55-.63.89-.89.19-.15.38-.14.55.03.16.17.15.35,0,.52-.27.29-.55.57-.83.85-.07.07-.16.12-.27.11Z"/>
  <path class="cls-6" d="m7.67,15.39c0,.22.01.43,0,.65-.02.23-.14.39-.39.39-.25,0-.37-.16-.37-.39,0-.4,0-.79,0-1.19,0-.25.14-.4.4-.4.27,0,.34.18.35.4,0,.18,0,.36,0,.54,0,0,0,0,0,0Z"/>
  <path class="cls-7" d="m3.43,23.2c0-.31.99-1.21,1.3-1.19.16.01.29.08.35.23.06.14.02.27-.08.38-.3.31-.6.62-.95.88-.13.1-.27.12-.41.03-.12-.07-.21-.17-.2-.33Z"/>
  <path class="cls-6" d="m7.67,23.92c0,.21.01.41,0,.62-.01.19-.12.34-.31.36-.2.02-.37-.1-.41-.29-.09-.44-.08-.89,0-1.32.03-.19.21-.3.42-.28.2.02.3.15.31.34.01.19,0,.39,0,.58,0,0,0,0,0,0Z"/>
  <path class="cls-6" d="m11.17,23.1c.02.21-.06.32-.18.39-.16.1-.32.07-.45-.03-.32-.25-.61-.54-.87-.86-.11-.14-.11-.29,0-.44.11-.15.28-.2.42-.12.43.24.74.63,1.07.98.03.03.02.09.02.08Z"/>
  <path class="cls-7" d="m11.6,20.12c-.19,0-.39,0-.58,0-.22-.01-.37-.14-.38-.36-.02-.24.16-.37.35-.38.41-.02.82-.02,1.22,0,.19.01.37.13.38.37,0,.25-.2.32-.38.35-.2.03-.41,0-.61,0h0Z"/>
  <path class="cls-7" d="m2.94,20.12c-.21,0-.41.02-.61,0-.18-.02-.33-.11-.34-.32,0-.19.08-.34.28-.37.46-.08.92-.1,1.38.02.18.04.28.15.27.34,0,.21-.15.31-.33.33-.21.02-.43,0-.65,0,0,0,0,0,0,0Z"/>
  <path class="cls-2" d="m19.1,17.99c0,1.4,0,2.8,0,4.21,0,.21.05.34.25.46,1.86,1.12,2.27,3.39.9,5.07-.6.74-1.41,1.11-2.37,1.16-1.23.07-2.28-.28-3.03-1.29-1.48-1.96-.41-4.43,1.75-4.88.5-.1.5-.11.5-.62,0-2.77,0-5.54,0-8.31,0-.2-.01-.41.07-.6.18-.43.55-.61,1.1-.53.49.08.82.46.83,1.01.01.81,0,1.62,0,2.43,0,.63,0,1.25,0,1.88h0Zm-1.43.05c-.02,1.46.02,2.92-.05,4.38,0,.11-.05.29.13.29.16,0,.27-.11.26-.29,0-.07,0-.14,0-.21,0-1.58,0-3.17,0-4.75,0-1.29,0-2.58,0-3.86,0-.13.02-.29-.16-.28-.14,0-.18.14-.18.28,0,.08,0,.16,0,.24,0,1.4,0,2.8,0,4.21Zm-.75,5.4c-.67,0-1.46.59-1.62,1.19-.09.32.04.56.3.73.24.16.4-.03.55-.19.06-.06.12-.11.17-.17.29-.35.62-.66.81-1.08.14-.3.06-.49-.21-.49Z"/>
  <path class="cls-7" d="m16.42,11.84c-.24,0-.47.05-.71,0-.17-.03-.27-.11-.3-.28-.02-.19.03-.36.22-.41.51-.13,1.03-.11,1.55-.02.18.03.26.2.25.36,0,.19-.14.31-.33.33-.22.02-.45,0-.68,0Z"/>
  <path class="cls-7" d="m16.41,9.31c-.2,0-.41.01-.61,0-.21-.02-.37-.12-.39-.35-.01-.23.14-.31.33-.35.44-.08.88-.06,1.32-.02.2.02.35.16.33.4-.02.23-.19.3-.37.32-.2.02-.41,0-.61,0,0,0,0,0,0,0Z"/>
  <path class="cls-7" d="m16.39,6.64c-.2,0-.41.01-.61,0-.2-.02-.35-.12-.37-.33-.01-.19.11-.32.3-.36.46-.1.92-.08,1.38-.01.17.02.31.14.3.36-.01.23-.17.32-.35.35-.21.03-.43,0-.65,0h0Z"/>
  <path class="cls-3" d="m16.16,18.19c0,.2-.15.31-.37.31-.19,0-.37-.07-.38-.3,0-.24.15-.39.38-.39.21,0,.37.1.37.38Z"/>
  <path class="cls-3" d="m16.17,16.06c0,.24-.1.37-.34.39-.23.01-.4-.09-.4-.31,0-.23.15-.38.39-.38.2,0,.35.09.36.31Z"/>
  <path class="cls-3" d="m15.83,20.65c-.25-.03-.44-.1-.41-.35.02-.22.16-.34.39-.32.24.01.36.12.34.36-.02.21-.17.3-.33.31Z"/>
  <path class="cls-3" d="m15.79,13.69c.24.02.37.12.37.36,0,.24-.16.32-.35.32-.21,0-.39-.11-.38-.33,0-.2.14-.35.36-.35Z"/>
  <path class="cls-4" d="m17.67,18.04c0-1.4,0-2.8,0-4.21,0-.08,0-.16,0-.24,0-.14.04-.28.18-.28.17,0,.16.16.16.28,0,1.29,0,2.58,0,3.86,0,1.58,0,3.17,0,4.75,0,.07,0,.14,0,.21.01.19-.1.3-.26.29-.18,0-.13-.19-.13-.29.06-1.46.03-2.92.05-4.38Z"/>
  <path class="cls-5" d="m16.92,23.43c.26,0,.35.18.21.49-.19.42-.52.73-.81,1.08-.05.06-.11.11-.17.17-.15.15-.31.34-.55.19-.26-.17-.39-.41-.3-.73.16-.6.96-1.19,1.62-1.19Z"/>
</svg>