<?xml version="1.0" encoding="UTF-8"?>
<svg id="nptp" xmlns="http://www.w3.org/2000/svg" viewBox="0 0 38 38">
  <defs>
    <style>
      .cls-1 {
        fill: #034e75;
      }

      .cls-1, .cls-2, .cls-3, .cls-4 {
        stroke-width: 0px;
      }

      .cls-2 {
        fill: #004d75;
      }

      .cls-3 {
        fill: #fffffd;
      }

      .cls-4 {
        fill: #fffffe;
      }
    </style>
  </defs>
  <g>
    <path class="cls-1" d="m33.34,24.12c-.61,0-1.22.02-1.83,0-.3-.01-.47.09-.61.33-.24.43-.63.73-1,1.04-.64.53-1.38.69-2.19.69-6.21-.01-12.42,0-18.63-.01-.44,0-.86-.1-1.21-.37-.47-.36-.91-.77-1.16-1.32-.1-.22-.23-.33-.51-.32-1.15.03-2.3.02-3.45.04-.71,0-1.22-.32-1.62-.88C.36,22.22.12,20.97.02,19.69c-.09-1.22.06-2.42.49-3.58.21-.57.48-1.12.93-1.56.36-.35.78-.54,1.29-.54,1.19,0,2.39-.01,3.58-.01.15,0,.22-.05.29-.19.16-.33.39-.61.63-.88.58-.66,1.3-.93,2.18-.92,6.19.02,12.38.01,18.57,0,.6,0,1.18.13,1.68.47.55.38,1.07.79,1.4,1.39.07.13.18.14.31.14,1.32,0,2.63,0,3.95,0,.73,0,1.26.39,1.61.97,1.26,2.09,1.32,4.33.7,6.63-.18.66-.48,1.27-.91,1.79-.35.44-.82.72-1.41.71-.65,0-1.31,0-1.96,0h0Zm-22.77,1.47c.09,0,.21,0,.33,0,2.19,0,4.38.01,6.57.01,2.17,0,4.33,0,6.5,0,1.24,0,2.47-.01,3.71.01.95.02,1.74-.3,2.38-.98.43-.46.77-.99,1.03-1.57.43-.94.67-1.92.77-2.94.13-1.32.06-2.63-.31-3.91-.29-1-.72-1.94-1.46-2.68-.64-.64-1.42-1.01-2.36-.98-.78.03-1.57,0-2.36,0-4.8,0-9.6,0-14.4,0-.13,0-.25,0-.38,0,0,.1.05.14.1.19.56.45.92,1.04,1.22,1.68.56,1.19.82,2.46.9,3.77.08,1.33-.03,2.64-.36,3.93-.28,1.09-.68,2.11-1.44,2.97-.15.17-.29.33-.45.5Zm-6.68-2.01c1.4,0,2.82,0,4.23,0,.18,0,.36-.07.5-.19.36-.31.65-.68.84-1.12.35-.81.54-1.67.6-2.55.08-1.19-.03-2.36-.43-3.5-.17-.49-.44-.91-.77-1.3-.28-.33-.68-.39-1.09-.39-1.24,0-2.47.01-3.71.02-.07,0-.15-.02-.22.04,1.74,1.87,1.88,6.86.04,8.99Zm27.63-9.02c.16.39.33.76.46,1.14.6,1.93.63,3.88.21,5.84-.14.63-.36,1.24-.62,1.83-.08.17-.04.2.14.2,1.2,0,2.4,0,3.6,0,.23,0,.45-.07.63-.21.55-.43.87-1.02,1.09-1.67.45-1.29.53-2.61.32-3.96-.15-.99-.41-1.94-1.1-2.73-.21-.24-.46-.41-.77-.45-.58-.08-1.16-.02-1.74-.02-.73,0-1.47-.03-2.21.01Zm-24.38-.56c.31,0,.58,0,.85,0,.75-.03,1.26.39,1.62.97.66,1.04.94,2.21,1,3.43.09,1.75-.11,3.44-1.14,4.93-.34.49-.79.78-1.4.79-.3,0-.6,0-.94,0,.27.47.56.86.97,1.13.35.23.72.38,1.15.3.63-.12,1.1-.5,1.48-.98.61-.77.96-1.67,1.2-2.61.29-1.17.41-2.36.35-3.57-.06-1.19-.28-2.35-.73-3.46-.23-.57-.53-1.1-.94-1.56-.33-.37-.75-.6-1.19-.77-.34-.13-.68-.04-1.02.12-.55.28-.95.69-1.25,1.26Zm-2.47,4.85c-.08-1.24-.22-2.63-1.17-3.82-.44-.55-1.27-.63-1.71-.07-.46.58-.78,1.22-.96,1.93-.31,1.22-.36,2.44-.16,3.67.17,1.01.42,1.99,1.19,2.75.38.38,1,.46,1.39.1.36-.33.64-.73.84-1.18.44-1.02.58-2.09.59-3.38Z"/>
    <path class="cls-1" d="m31.86,3.96c-.28.03-.5.14-.73.21-.1.03-.21.07-.31.1-.15.03-.28-.01-.32-.18-.04-.16.02-.28.17-.33.2-.07.4-.13.6-.2.37-.13.76-.24,1.12-.41.37-.17.55-.03.53.37-.03.65-.05,1.31-.07,1.96,0,.18-.1.3-.28.29-.17,0-.26-.12-.25-.3,0-.06,0-.12,0-.17-.01-.32.05-.65,0-1.04-.24.46-.6.76-.78,1.19-.21.51-.58.87-1.03,1.18-.23.16-.48.26-.75.33-.81.21-1.29.75-1.41,1.56-.1.64-.26,1.25-.65,1.78-.21.29-.49.5-.81.64-.14.06-.26,0-.32-.14-.06-.15-.02-.27.13-.35.38-.24.67-.56.88-.97.13-.25.18-.52.21-.8.08-.79.41-1.43,1.06-1.92.23-.18.47-.3.75-.37.6-.14,1.09-.45,1.36-1.02.22-.46.55-.84.8-1.26.03-.04.05-.09.1-.17Z"/>
    <path class="cls-1" d="m31.57,34.6c-.1-.24-.29-.41-.44-.61-.32-.45-.64-.9-1.1-1.22-.14-.1-.31-.15-.48-.2-.33-.1-.64-.25-.89-.49-.57-.51-.85-1.18-.94-1.93-.04-.34-.08-.68-.2-1-.19-.49-.56-.82-.99-1.09-.16-.1-.22-.22-.13-.38.09-.17.25-.16.4-.08.69.37,1.13.95,1.31,1.7.09.36.1.73.19,1.1.18.82.62,1.43,1.48,1.66.59.16,1.04.52,1.38,1.03.23.35.53.65.75,1.01.02.04.06.1.12.07.06-.02.04-.09.04-.13-.02-.25-.04-.51-.05-.76,0-.09-.02-.19,0-.28.04-.12.08-.26.25-.25.17,0,.24.14.25.28.05.7.09,1.41.13,2.11.01.25-.13.36-.38.3-.61-.16-1.19-.41-1.81-.55-.17-.04-.24-.16-.2-.33.05-.17.18-.22.34-.18.25.07.49.14.73.21.07.02.15.07.24.02Z"/>
    <path class="cls-1" d="m5.11,3.97c.4.58.76,1.1,1.1,1.64.28.46.73.73,1.27.81.82.12,1.44.54,1.87,1.24.15.25.21.54.27.82.11.5.29.96.77,1.23.15.08.14.23.06.36-.09.14-.22.14-.36.05-.53-.33-.83-.82-.96-1.42-.05-.26-.13-.5-.25-.74-.26-.51-.69-.79-1.23-.91-.14-.03-.29-.05-.43-.09-.77-.26-1.35-.73-1.71-1.47-.2-.41-.54-.73-.84-1.09,0,.1,0,.21,0,.31,0,.28.03.57.03.85,0,.17-.11.26-.26.26-.15,0-.24-.09-.25-.25-.03-.69-.06-1.38-.09-2.07-.01-.31.17-.39.45-.29.54.19,1.09.35,1.64.53.04.01.08.02.13.04.16.05.25.16.2.33-.05.18-.19.23-.36.19-.22-.06-.44-.14-.67-.21-.11-.03-.22-.06-.39-.11Z"/>
    <path class="cls-1" d="m19.54,2.29c-.23.31-.5.57-.67.9-.08.16-.22.21-.36.14-.15-.07-.15-.22-.11-.36.01-.05.06-.1.09-.15.36-.54.72-1.07,1.08-1.61.16-.24.38-.24.53,0,.34.52.64,1.07,1,1.58.06.08.11.17.1.28,0,.13-.04.25-.19.28-.15.04-.25-.03-.31-.17-.15-.32-.37-.59-.56-.89-.03.04-.05.06-.05.08-.01.57-.07,1.15,0,1.72.1.91-.09,1.74-.66,2.48-.73.95-.74,1.99-.27,3.07.05.11.11.2.12.33,0,.13-.04.24-.17.27-.13.03-.25,0-.31-.14-.54-1.14-.65-2.3-.05-3.46.07-.14.17-.27.28-.39.51-.61.65-1.32.58-2.08-.05-.53-.04-1.06-.04-1.59,0-.1,0-.2,0-.3Z"/>
    <path class="cls-1" d="m19.26,29.72c.02.82-.24,1.49-.68,2.1-.37.52-.51,1.11-.45,1.73.06.63.17,1.25.26,1.88,0,.06-.02.15.07.16.08,0,.08-.09.1-.15.1-.25.2-.5.29-.75.06-.17.17-.23.34-.19.15.04.22.2.15.37-.25.63-.5,1.25-.75,1.88-.1.24-.28.27-.46.09-.45-.45-.87-.93-1.36-1.35-.14-.12-.14-.33-.03-.45.12-.12.26-.11.42.04.18.18.35.36.53.54.05.05.1.15.17.11.08-.04.03-.14.02-.22-.08-.61-.19-1.21-.25-1.81-.06-.68.06-1.31.34-1.93.15-.34.43-.58.57-.92.33-.79.28-1.57-.01-2.36-.05-.14-.13-.26-.13-.41,0-.13.03-.25.18-.28.14-.03.27.01.32.16.19.59.43,1.16.38,1.75Z"/>
    <path class="cls-1" d="m5.8,33.86c.3-.37.57-.7.79-1.07.09-.14.2-.27.3-.4.16-.22.21-.48.28-.73.23-.85.69-1.53,1.56-1.81.98-.32,1.47-1.03,1.69-1.98.02-.07.03-.14.04-.21.02-.16.11-.26.28-.24.18.02.23.16.21.32-.06.5-.24.95-.49,1.39-.35.61-.89.96-1.54,1.2-.57.21-1.04.61-1.18,1.22-.19.86-.66,1.54-1.17,2.21-.06.08-.13.16-.18.25-.03.05-.09.12-.03.18.04.05.11,0,.16-.01.27-.09.5-.25.78-.32.24-.06.41.09.37.33-.02.11-.09.18-.19.22-.61.21-1.22.42-1.84.62-.25.08-.38-.02-.38-.28-.01-.68-.02-1.37-.03-2.05,0-.16.08-.27.24-.28.17,0,.27.1.28.27.01.33.02.65.03.98,0,.05.01.1.03.2Zm.51.31s-.01.01-.01.01c0,0,0,.02.01.03,0,0,.01-.01.01-.01,0,0,0-.02-.01-.03Z"/>
    <path class="cls-1" d="m28.39,21.06c-.95.02-1.73-.28-2.5-.57-.78-.29-1.56-.59-2.4-.76-.32-.06-.65-.02-.98.02-1.04.16-1.97.61-3.02.72-1.07.12-2.04-.07-2.89-.63-.24-.16-.45-.34-.69-.49-.63-.4-1.32-.48-2.07-.26-.09.03-.18.06-.27.07-.15.02-.25-.06-.3-.16-.05-.11-.01-.21.1-.27.66-.38,1.38-.43,2.1-.19.51.17.95.46,1.37.77,1,.75,2.16.86,3.37.49.77-.23,1.51-.51,2.33-.59,1.05-.11,2.03.1,2.94.52.95.44,1.91.79,3.01.77.47,0,.91-.11,1.35-.22.25-.07.42-.02.47.14.07.2-.07.3-.28.35-.56.13-1.11.34-1.64.29Z"/>
    <path class="cls-1" d="m28.98,17.1c-.51,0-1-.06-1.46-.19-.7-.2-1.35-.48-2.03-.72-.99-.34-1.99-.36-2.99.05-.86.35-1.7.76-2.68.87-1.27.14-2.35-.18-3.27-.93-.7-.57-1.52-.84-2.56-.38-.18.08-.35.09-.45-.07-.11-.16-.01-.29.17-.38.9-.41,1.79-.39,2.67.06.43.22.78.53,1.19.78.18.11.36.2.56.26,1.02.34,2.01.19,2.94-.21.66-.29,1.3-.6,2.04-.73,1.12-.2,2.17,0,3.19.37.5.18.96.42,1.49.55.79.19,1.57.22,2.35-.02.29-.09.5.05.45.27-.03.12-.14.18-.27.21-.44.12-.89.2-1.33.19Z"/>
    <path class="cls-2" d="m19.15,23.73c-.62,0-1.17-.07-1.67-.29-.36-.16-.69-.36-1.01-.56-.58-.36-1.19-.63-1.95-.52-.19.03-.31-.07-.34-.23-.03-.18.07-.3.29-.33.42-.06.83-.01,1.23.09.43.11.76.34,1.1.56,1.31.88,2.73.93,4.2.35.74-.29,1.5-.54,2.3-.66.33-.05.66-.02,1,.05.52.11,1.04.23,1.52.44.05.02.09.04.14.06.19.08.28.2.19.37-.07.14-.26.17-.47.07-.24-.11-.5-.21-.76-.28-.96-.28-1.9-.23-2.82.1-.38.14-.75.3-1.12.44-.59.23-1.22.34-1.82.33Z"/>
    <path class="cls-2" d="m8.03,24.63c.01-.14.06-.23.2-.23.15,0,.19.12.19.24,0,.12-.08.19-.2.18-.13,0-.19-.09-.19-.2Z"/>
    <path class="cls-2" d="m8.36,13.65c-.11-.02-.2-.07-.2-.19,0-.11.07-.19.19-.19.12,0,.2.08.2.21,0,.11-.09.15-.19.17Z"/>
    <path class="cls-2" d="m9.32,24.96c-.03.11-.09.18-.2.17-.11,0-.19-.08-.18-.2,0-.11.08-.18.19-.16.11.01.18.08.19.19Z"/>
    <path class="cls-2" d="m8.87,13.22c.02-.1.07-.17.19-.16.12,0,.15.1.15.2,0,.1-.05.18-.15.17-.12,0-.17-.09-.18-.21Z"/>
    <path class="cls-2" d="m11.56,22.23c0,.07-.03.16-.14.16-.13,0-.17-.08-.17-.2,0-.11.05-.19.16-.19.12,0,.14.1.15.22Z"/>
    <path class="cls-2" d="m10.21,23.34c0,.1-.03.19-.15.19-.11,0-.16-.08-.16-.19,0-.11.04-.19.15-.19.12,0,.15.09.16.2Z"/>
    <path class="cls-2" d="m9.9,24.42c0-.11.05-.18.15-.18.12,0,.16.08.16.18,0,.09-.01.2-.14.2-.14,0-.15-.11-.16-.2Z"/>
    <path class="cls-2" d="m11.91,21c0,.09-.03.17-.14.17-.13,0-.17-.08-.17-.2,0-.11.05-.19.16-.18.12,0,.14.1.15.21Z"/>
    <path class="cls-2" d="m10.52,15.11c0,.09-.04.17-.15.17-.11,0-.16-.07-.16-.18,0-.1.03-.19.15-.2.14,0,.14.11.16.21Z"/>
    <path class="cls-2" d="m11.94,19.82c-.13-.02-.15-.12-.16-.22-.01-.1.05-.17.15-.17.11,0,.15.08.15.18,0,.09-.02.19-.14.21Z"/>
    <path class="cls-2" d="m11.37,16.1c0-.1.01-.2.13-.2.11,0,.16.07.15.17,0,.1-.01.21-.16.21-.14,0-.1-.12-.12-.18Z"/>
    <path class="cls-2" d="m9.9,13.54c-.11,0-.16-.06-.17-.16,0-.1.04-.17.14-.18.11-.01.15.06.16.16.01.1-.03.17-.13.18Z"/>
    <path class="cls-2" d="m9.71,14.32c-.1-.01-.16-.07-.16-.17,0-.1.05-.17.15-.18.11,0,.15.07.16.17,0,.1-.04.16-.14.18Z"/>
    <path class="cls-2" d="m11.39,19.22c-.01.09-.05.16-.15.16-.11,0-.17-.07-.16-.18,0-.1.06-.16.16-.16.11,0,.13.09.15.18Z"/>
    <path class="cls-2" d="m11.39,20.31c0,.09-.04.17-.15.16-.1,0-.15-.07-.16-.17,0-.1.05-.17.15-.17.11,0,.14.08.16.18Z"/>
    <path class="cls-2" d="m11.22,17.68c.12.02.16.09.16.19,0,.1-.05.17-.16.16-.1,0-.15-.08-.15-.18,0-.11.07-.15.14-.17Z"/>
    <path class="cls-2" d="m12.09,18.26c-.01.09-.05.17-.16.16-.1,0-.15-.07-.15-.17,0-.1.06-.17.16-.16.11,0,.14.08.15.18Z"/>
    <path class="cls-2" d="m11.21,21.4c0,.09-.04.17-.15.16-.1,0-.15-.07-.16-.17,0-.1.05-.17.15-.17.11,0,.14.08.16.18Z"/>
    <path class="cls-2" d="m12,17.22c-.01.09-.05.16-.16.16-.1,0-.15-.08-.15-.18,0-.1.06-.17.16-.16.11,0,.14.09.15.18Z"/>
    <path class="cls-2" d="m10.87,22.42c-.01.08-.05.15-.15.15-.11,0-.17-.07-.16-.18,0-.1.06-.16.17-.16.11,0,.13.09.14.19Z"/>
    <path class="cls-2" d="m11.08,16.9c-.11-.01-.17-.07-.17-.17,0-.1.05-.17.15-.18.11,0,.15.07.16.17,0,.1-.04.16-.13.18Z"/>
    <path class="cls-2" d="m9.26,24.01c.11,0,.16.08.16.17,0,.1-.04.17-.15.17-.1,0-.15-.07-.16-.17,0-.1.05-.16.15-.18Z"/>
    <path class="cls-2" d="m10.86,15.77c0,.09-.05.17-.15.16-.1,0-.15-.07-.15-.17,0-.1.06-.17.15-.17.1,0,.14.08.16.18Z"/>
    <path class="cls-2" d="m10.7,14.5c-.1-.01-.15-.07-.15-.18,0-.1.06-.17.16-.17.12,0,.16.09.15.2,0,.09-.06.15-.16.14Z"/>
    <path class="cls-2" d="m10.9,23.75c-.1,0-.16-.06-.17-.16,0-.1.04-.17.14-.18.11,0,.15.07.16.16,0,.1-.03.17-.14.18Z"/>
    <path class="cls-2" d="m11.35,15.23c-.01.08-.04.16-.12.15-.1,0-.16-.08-.15-.18,0-.08.05-.14.14-.14.09,0,.13.08.14.16Z"/>
    <path class="cls-1" d="m4.21,18.96c-.01,1.23-.17,2.28-.71,3.24-.2.35-.48.58-.91.58-.44,0-.73-.25-.93-.61-.64-1.12-.72-2.34-.66-3.59.04-.84.22-1.64.6-2.39.18-.35.43-.65.86-.7.5-.06.94.24,1.16.7.44.93.58,1.91.59,2.77Zm-.56.11c0-.21,0-.46-.04-.71-.08-.75-.19-1.48-.65-2.12-.21-.29-.52-.32-.72-.04-.25.37-.43.77-.54,1.21-.28,1.2-.28,2.41.05,3.6.12.44.28.85.65,1.15.13.1.22.11.36,0,.23-.2.38-.45.49-.73.29-.75.38-1.53.39-2.36Z"/>
  </g>
  <path class="cls-1" d="m22.19,23.85c-.13,0-.26,0-.39,0-.27,0-.49-.22-.49-.49,0-.18,0-.35,0-.53,0-.06-.01-.08-.07-.1-.33-.08-.64-.21-.93-.39-.04-.03-.07-.02-.1.02-.12.12-.24.25-.37.37-.21.21-.51.21-.72,0-.18-.18-.36-.35-.53-.53-.21-.21-.21-.51,0-.72.12-.12.24-.24.36-.36.04-.04.05-.07.02-.12-.17-.29-.3-.59-.38-.92-.01-.06-.04-.07-.1-.07-.18,0-.35,0-.53,0-.24,0-.43-.17-.49-.4-.01-.06.01-.12,0-.19,0-.23,0-.46-.02-.69-.01-.21.19-.5.48-.5.18,0,.36,0,.55,0,.05,0,.08-.02.09-.07.09-.33.21-.64.39-.93.03-.05.02-.08-.02-.11-.12-.12-.24-.24-.36-.36-.21-.22-.21-.51,0-.73.17-.18.35-.35.53-.53.22-.21.51-.21.73,0,.12.12.24.24.36.36.04.04.06.04.11.02.29-.17.59-.3.92-.38.06-.02.08-.04.08-.1,0-.17,0-.35,0-.52,0-.28.22-.49.5-.5.26,0,.52,0,.78,0,.28,0,.49.22.49.49,0,.18,0,.36,0,.54,0,.05.02.07.07.09.32.08.63.21.92.38.06.03.08.02.13-.02.12-.12.24-.24.36-.36.21-.2.5-.21.71,0,.19.18.37.36.55.55.21.22.2.51,0,.72-.12.12-.24.24-.36.36-.04.04-.04.06-.01.11.17.29.3.59.38.92.02.06.04.08.1.08.17,0,.34,0,.51,0,.29,0,.5.22.51.51,0,.25,0,.5,0,.75,0,.3-.21.51-.51.51-.17,0-.34,0-.51,0-.06,0-.08.02-.1.08-.08.32-.21.62-.38.91-.03.05-.03.08.01.12.12.12.24.24.36.36.21.21.21.51,0,.72-.18.18-.35.36-.53.53-.22.21-.51.21-.73,0-.12-.12-.24-.23-.35-.35-.04-.04-.06-.05-.12-.02-.29.17-.6.3-.93.38-.06.01-.07.04-.06.09,0,.17,0,.34,0,.51,0,.3-.21.51-.52.51-.13,0-.25,0-.38,0Zm4.52-4.73c0-.12,0-.25,0-.37,0-.19-.11-.3-.29-.3-.2,0-.41,0-.61,0-.12,0-.15-.02-.18-.14-.09-.38-.23-.73-.44-1.06-.05-.08-.04-.14.03-.21.15-.14.29-.28.43-.43.14-.15.15-.3,0-.45-.16-.17-.33-.33-.5-.5-.15-.14-.3-.14-.45,0-.15.14-.29.29-.43.43-.06.07-.12.07-.2.02-.33-.21-.69-.36-1.07-.44-.09-.02-.13-.07-.13-.16,0-.21,0-.42,0-.63,0-.18-.12-.29-.29-.29-.25,0-.49,0-.74,0-.19,0-.3.11-.31.3,0,.2,0,.4,0,.6,0,.13-.02.15-.13.18-.38.09-.73.23-1.06.44-.08.05-.14.04-.21-.03-.14-.15-.29-.29-.43-.43-.14-.14-.29-.14-.43,0-.17.17-.34.34-.51.51-.14.14-.14.3,0,.44.15.15.29.29.44.44.06.06.07.11.02.18-.21.34-.36.7-.45,1.09-.02.09-.07.12-.16.12-.19,0-.38,0-.57,0-.26-.01-.36.16-.36.37,0,.22.01.45.02.67,0,.19.11.3.3.3.2,0,.41,0,.61,0,.09,0,.14.03.17.13.09.39.24.75.45,1.08.05.07.04.13-.02.19-.15.14-.29.29-.43.43-.14.15-.15.3,0,.45.16.17.33.33.5.5.14.14.3.14.45,0,.15-.14.29-.29.43-.43.06-.06.12-.07.19-.03.33.21.69.36,1.08.45.09.02.13.07.13.17,0,.21,0,.42,0,.63,0,.17.12.28.29.28.25,0,.5,0,.74,0,.19,0,.3-.11.3-.3,0-.2,0-.41,0-.61,0-.1.03-.15.13-.17.38-.09.74-.23,1.07-.44.08-.05.14-.04.2.02.14.14.28.29.43.43.15.15.3.15.45,0,.17-.17.34-.33.5-.5.14-.15.14-.3,0-.45-.14-.15-.29-.29-.43-.43-.06-.06-.07-.11-.03-.19.21-.33.36-.69.45-1.08.02-.09.07-.13.16-.13.21,0,.43,0,.64,0,.16,0,.27-.12.28-.28,0-.13,0-.25,0-.38Z"/>
  <path class="cls-3" d="m26.71,19.12c0,.13,0,.25,0,.38,0,.16-.11.28-.28.28-.21,0-.43,0-.64,0-.09,0-.14.03-.16.13-.09.39-.24.75-.45,1.08-.05.08-.04.13.03.19.15.14.29.29.43.43.14.15.15.3,0,.45-.16.17-.33.34-.5.5-.15.15-.3.14-.45,0-.14-.14-.29-.28-.43-.43-.06-.06-.12-.07-.2-.02-.33.21-.69.36-1.07.44-.1.02-.13.08-.13.17,0,.2,0,.41,0,.61,0,.19-.11.3-.3.3-.25,0-.5,0-.74,0-.17,0-.28-.11-.29-.28,0-.21,0-.42,0-.63,0-.09-.03-.15-.13-.17-.39-.09-.75-.24-1.08-.45-.08-.05-.13-.04-.19.03-.14.15-.29.29-.43.43-.14.14-.3.14-.45,0-.17-.17-.34-.33-.5-.5-.14-.15-.14-.3,0-.45.14-.15.29-.29.43-.43.06-.06.07-.12.02-.19-.21-.33-.36-.7-.45-1.08-.02-.1-.07-.13-.17-.13-.2,0-.41,0-.61,0-.19,0-.29-.1-.3-.3,0-.22-.01-.45-.02-.67,0-.21.1-.38.36-.37.19.01.38,0,.57,0,.09,0,.14-.03.16-.12.09-.39.24-.75.45-1.09.05-.07.03-.13-.02-.18-.15-.15-.29-.29-.44-.44-.14-.14-.14-.3,0-.44.17-.17.34-.34.51-.51.14-.14.29-.13.43,0,.15.14.29.29.43.43.07.07.12.08.21.03.33-.21.68-.35,1.06-.44.12-.03.13-.05.13-.18,0-.2,0-.4,0-.6,0-.19.11-.3.31-.3.25,0,.49,0,.74,0,.18,0,.29.11.29.29,0,.21,0,.42,0,.63,0,.09.04.14.13.16.38.09.74.23,1.07.44.08.05.14.04.2-.02.14-.15.29-.29.43-.43.15-.14.3-.15.45,0,.17.16.34.33.5.5.14.15.14.3,0,.45-.14.14-.28.29-.43.43-.07.06-.08.12-.03.21.21.33.35.68.44,1.06.03.12.05.14.18.14.2,0,.41,0,.61,0,.19,0,.29.11.29.3,0,.12,0,.25,0,.37Zm-4.5-2.84c-1.55,0-2.83,1.26-2.84,2.83-.01,1.56,1.26,2.84,2.83,2.85,1.55.01,2.84-1.26,2.85-2.83.01-1.55-1.27-2.84-2.83-2.85Z"/>
  <path class="cls-1" d="m22.21,16.27c1.56,0,2.84,1.29,2.83,2.85-.01,1.57-1.3,2.84-2.85,2.83-1.57-.01-2.84-1.3-2.83-2.85.01-1.56,1.29-2.83,2.84-2.83Zm0,.22c-1.44,0-2.62,1.17-2.62,2.61,0,1.45,1.17,2.63,2.62,2.63,1.44,0,2.62-1.18,2.62-2.62,0-1.44-1.18-2.62-2.62-2.62Z"/>
  <path class="cls-4" d="m22.2,16.49c1.44,0,2.62,1.18,2.62,2.62,0,1.44-1.18,2.62-2.62,2.62-1.44,0-2.62-1.18-2.62-2.63,0-1.44,1.18-2.61,2.62-2.61Zm-.23,4.02c.09,0,.15-.04.2-.1.44-.51.87-1.02,1.31-1.53.22-.25.43-.51.65-.76.11-.13.09-.28-.04-.35-.1-.05-.2-.03-.28.07-.6.7-1.19,1.39-1.79,2.09-.05.06-.07.07-.14.01-.32-.3-.65-.59-.98-.89-.11-.09-.23-.09-.32,0-.09.09-.08.22.03.32.39.35.78.7,1.17,1.06.06.05.13.07.2.08Z"/>
  <path class="cls-1" d="m21.97,20.51c-.07,0-.14-.03-.2-.08-.39-.35-.78-.7-1.17-1.06-.1-.09-.11-.23-.03-.32.09-.09.21-.09.32,0,.33.29.65.59.98.89.07.06.09.04.14-.01.59-.7,1.19-1.39,1.79-2.09.09-.1.18-.12.28-.07.13.07.15.22.04.35-.22.25-.43.51-.65.76-.44.51-.87,1.02-1.31,1.53-.05.06-.11.1-.2.1Z"/>
</svg>