<?xml version="1.0" encoding="UTF-8"?>
<svg id="pkvvp" xmlns="http://www.w3.org/2000/svg" viewBox="0 0 38 38">
  <defs>
    <style>
      .cls-1 {
        fill: #09537a;
      }

      .cls-1, .cls-2, .cls-3, .cls-4, .cls-5, .cls-6, .cls-7, .cls-8, .cls-9 {
        stroke-width: 0px;
      }

      .cls-2 {
        fill: #2c6a8b;
      }

      .cls-3 {
        fill: #417996;
      }

      .cls-4 {
        fill: #fdfdfe;
      }

      .cls-5 {
        fill: #206184;
      }

      .cls-6 {
        fill: #0a537a;
      }

      .cls-7 {
        fill: #fbfcfd;
      }

      .cls-8 {
        fill: #0e557b;
      }

      .cls-9 {
        fill: #226486;
      }
    </style>
  </defs>
  <path class="cls-1" d="m38,19.44c-.11.55-.21,1.11-.32,1.66-.17.82-.48,1.58-1.03,2.23-.38.46-.85.69-1.46.69-1.23-.02-2.46,0-3.69,0-.28,0-.47.12-.63.35-.78,1.12-1.83,1.74-3.24,1.73-6.04-.01-12.08-.02-18.12,0-1.28,0-2.12-.59-2.71-1.63-.18-.31-.39-.42-.74-.41-1.12.03-2.24.04-3.36.03-.67,0-1.15-.37-1.52-.9-.75-1.06-.99-2.29-1.09-3.55C.07,19.52.15,19.37,0,19.28v-.72c.15-.07.07-.21.08-.32.13-1.19.39-2.34,1.06-3.35.43-.66,1.03-1,1.85-.98,1.07.03,2.13,0,3.2,0,.18,0,.35.01.45-.18.49-.93,1.23-1.57,2.27-1.83h.24c.12.13.27.08.41.08,6.08,0,12.17,0,18.25,0,.14,0,.3.06.41-.08.08,0,.16,0,.24,0,.01.02.02.06.04.06,1.09.19,1.85.84,2.46,1.71.14.19.28.25.49.25,1.23,0,2.46,0,3.69,0,.77-.01,1.33.32,1.73.96.43.7.72,1.45.91,2.25.09.39.07.81.23,1.19v1.12Zm-27.39-6.96c1.86,1.85,2.27,4.13,2.26,6.5-.01,2.36-.46,4.64-2.23,6.48h.52c5.32,0,10.63,0,15.95,0,.44,0,.88.04,1.31-.05,1.13-.24,1.85-1,2.34-1.96,1.43-2.82,1.51-5.72.23-8.61-.7-1.58-1.93-2.4-3.76-2.38-5.37.05-10.74.02-16.11.02-.14,0-.29,0-.52,0Zm-6.56,2.03c1.66,3,1.66,5.96.04,8.95,1.17,0,2.37-.05,3.57.02.79.05,1.26-.32,1.62-.92.13-.21.24-.45.33-.68.49-1.24.59-2.54.46-3.86-.1-1.05-.34-2.07-1-2.95-.31-.41-.69-.6-1.19-.59-1.19,0-2.37,0-3.56.02-.1,0-.22-.04-.26.02Zm29.46,8.95c.47,0,.94-.03,1.4,0,.63.05,1.07-.23,1.43-.7.19-.25.34-.51.46-.79.46-1.1.63-2.25.56-3.44-.08-1.21-.28-2.38-1.03-3.39-.33-.44-.74-.67-1.29-.67-.99,0-1.97,0-2.96,0-.58,0-.58.01-.35.56.07.16.13.32.18.49.79,2.55.71,5.07-.3,7.55-.13.32-.1.41.25.39.55-.02,1.09,0,1.64,0ZM7.22,13.91c.16,0,.26.01.36,0,1.2-.15,1.89.47,2.38,1.48.55,1.15.72,2.36.72,3.61,0,1.48-.26,2.89-1.1,4.15-.39.59-.91.92-1.64.88-.22-.01-.44,0-.71,0,.12.28.27.47.43.66.78.93,1.79,1.01,2.69.2.4-.36.7-.8.95-1.28.53-1.02.79-2.12.92-3.25.23-2.03.04-4.02-.84-5.89-.39-.83-.93-1.52-1.83-1.86-.2-.08-.4-.15-.62-.09-.77.19-1.31.67-1.72,1.4ZM.63,18.99c-.02.65.07,1.28.2,1.91.16.8.43,1.57,1,2.19.54.58,1.1.6,1.65.04.31-.32.54-.69.7-1.11.55-1.41.64-2.87.44-4.36-.13-.92-.4-1.79-.96-2.55-.59-.79-1.4-.78-1.96.02-.82,1.16-1.02,2.49-1.06,3.87Z"/>
  <path class="cls-3" d="m28.22,11.91c-.12.13-.28.08-.41.08-6.08,0-12.17,0-18.25,0-.14,0-.3.06-.41-.08h19.08Z"/>
  <path class="cls-8" d="m25.8,17.17c-.04.93-.1,1.98-.42,2.99-.7,2.27-2.28,3.66-4.46,4.46-.18.07-.36.04-.55-.02-2.82-.97-4.59-3.32-4.77-6.3-.05-.89-.03-1.79-.05-2.68,0-.21.09-.35.3-.34,1.6.08,2.91-.68,4.17-1.5.48-.31.79-.32,1.26,0,.96.66,1.99,1.18,3.14,1.43.29.06.58.08.88.06.36-.02.48.16.47.48,0,.43,0,.85,0,1.41Zm-.47-.36c0-.12,0-.24,0-.36q0-.61-.59-.67c-.16-.02-.32-.03-.47-.07-1.17-.24-2.2-.79-3.19-1.44-.31-.2-.52-.18-.82.01-1.21.78-2.46,1.45-3.94,1.52-.18,0-.22.08-.22.25.02.95-.05,1.89.09,2.84.39,2.48,1.78,4.16,4.08,5.13.24.1.48.13.74.03,1.8-.74,3.15-1.93,3.81-3.8.39-1.11.45-2.27.51-3.42Z"/>
  <path class="cls-5" d="m8.49,24.49c-.01.14-.07.23-.19.24-.15.01-.22-.08-.22-.22,0-.12.04-.21.18-.22.15,0,.21.09.23.2Z"/>
  <path class="cls-9" d="m9.37,24.84c-.04.13-.1.21-.23.19-.12-.02-.18-.1-.16-.23.02-.11.08-.16.19-.15.13,0,.18.09.2.19Z"/>
  <path class="cls-2" d="m9.27,13.16c0,.11-.05.21-.18.2-.11,0-.16-.08-.18-.17-.02-.12.04-.21.16-.22.13-.02.18.08.2.19Z"/>
  <path class="cls-3" d="m11.44,20.21c-.02.1-.05.18-.16.18-.11,0-.17-.07-.18-.17,0-.12.06-.21.18-.21.11,0,.15.1.16.19Z"/>
  <path class="cls-5" d="m8.59,13.38c0,.13-.06.2-.19.21-.12,0-.2-.07-.21-.19,0-.12.05-.2.19-.2.12,0,.2.06.21.19Z"/>
  <path class="cls-2" d="m11.54,16.2c-.12-.02-.15-.1-.15-.2,0-.13.06-.2.19-.18.12.02.13.11.12.21-.01.1-.06.17-.17.18Z"/>
  <path class="cls-2" d="m11.95,20.9c0,.07-.02.17-.13.18-.12.01-.19-.06-.2-.19,0-.11.03-.19.14-.21.13-.02.19.06.2.22Z"/>
  <path class="cls-2" d="m11.26,17.95c-.1-.02-.16-.09-.16-.19,0-.1.06-.17.17-.17.11,0,.15.09.15.19,0,.11-.06.17-.17.17Z"/>
  <path class="cls-9" d="m10.57,15.04c-.02.11-.09.17-.2.16-.12-.02-.13-.11-.13-.21,0-.1.04-.19.16-.18.13.02.15.13.16.23Z"/>
  <path class="cls-9" d="m11.96,19.74c-.12-.04-.17-.12-.17-.24,0-.11.08-.16.19-.15.12.01.14.1.14.2,0,.1-.04.18-.16.19Z"/>
  <path class="cls-5" d="m10.26,24.31c0,.11-.04.18-.16.19-.12,0-.17-.06-.17-.17,0-.12.03-.22.17-.22.11,0,.15.09.16.2Z"/>
  <path class="cls-5" d="m10.26,23.22c0,.12-.04.21-.17.21-.11,0-.15-.08-.16-.19,0-.12.02-.21.17-.21.11,0,.16.08.16.18Z"/>
  <path class="cls-9" d="m9.71,13.9c.13-.01.18.06.19.16,0,.08-.02.16-.12.18-.11.02-.19-.03-.2-.14-.02-.1.03-.18.13-.2Z"/>
  <path class="cls-2" d="m9.92,13.47c-.12-.02-.16-.08-.16-.19,0-.11.05-.18.17-.17.11,0,.15.09.16.19,0,.11-.07.16-.17.17Z"/>
  <path class="cls-5" d="m11.47,22.3c-.12,0-.18-.07-.18-.18,0-.09-.02-.2.11-.21.13-.02.2.06.21.18,0,.11-.05.17-.14.21Z"/>
  <path class="cls-5" d="m10.74,22.12c.11.01.16.07.16.18,0,.11-.05.18-.16.17-.1,0-.16-.07-.16-.18,0-.11.06-.16.16-.18Z"/>
  <path class="cls-9" d="m10.92,23.64c-.11-.02-.17-.08-.16-.19,0-.1.06-.17.17-.17.12,0,.15.09.15.18,0,.11-.05.17-.16.17Z"/>
  <path class="cls-5" d="m11.9,17.29c-.11,0-.18-.05-.18-.16,0-.11.05-.18.16-.18.09,0,.14.05.16.14.01.1,0,.18-.13.2Z"/>
  <path class="cls-9" d="m11.23,18.95c.13-.01.18.06.19.16,0,.08-.02.16-.12.18-.11.02-.19-.04-.2-.14-.01-.1.02-.18.13-.2Z"/>
  <path class="cls-8" d="m10.75,15.85c-.11-.02-.17-.07-.16-.18,0-.11.07-.17.18-.15.11.01.14.1.14.2,0,.09-.06.14-.15.14Z"/>
  <path class="cls-8" d="m10.9,14.25c0,.11-.05.18-.17.17-.08,0-.15-.05-.15-.15,0-.11.04-.19.15-.19.12,0,.16.07.17.17Z"/>
  <path class="cls-8" d="m9.46,24.07c0,.1-.03.18-.15.18-.11,0-.16-.07-.16-.18,0-.09.05-.15.14-.16.11-.01.17.04.18.15Z"/>
  <path class="cls-6" d="m4.28,18.62c-.02,1.4-.14,2.42-.64,3.37-.21.39-.48.68-.95.69-.49.01-.79-.26-1.01-.66-.65-1.21-.71-2.52-.61-3.85.06-.72.25-1.41.57-2.06.21-.42.5-.73,1.02-.71.51.01.83.3,1.04.75.43.9.56,1.85.57,2.48Zm-.58.26c-.02-.7-.07-1.58-.48-2.38-.13-.24-.25-.55-.58-.54-.31,0-.43.31-.53.55-.71,1.65-.69,3.32-.05,4.98.11.28.28.63.61.62.3,0,.45-.35.57-.61.35-.77.46-1.58.46-2.6Z"/>
  <path class="cls-4" d="m25.33,16.8c-.06,1.16-.13,2.32-.51,3.42-.66,1.88-2.01,3.07-3.81,3.8-.25.1-.49.08-.74-.03-2.3-.96-3.69-2.64-4.08-5.13-.15-.94-.08-1.89-.09-2.84,0-.16.04-.24.22-.25,1.48-.07,2.74-.74,3.94-1.52.3-.19.51-.21.82-.01.98.64,2.02,1.2,3.19,1.44.16.03.32.05.47.07q.59.06.59.67c0,.12,0,.24,0,.36Zm-3.85,4.31c.15-.04.31-.06.46-.11.15-.05.34-.12.29-.32-.05-.2-.23-.25-.44-.22.04.16.26.12.24.26-.03.15-.2.14-.32.19-.07.03-.15.04-.23.06-.79.12-1.56.08-2.32-.17.73.43,1.51.44,2.32.31Zm-2.32.48c1.21.26,2.42.26,3.6-.15.2-.04.37-.14.51-.28.17-.16.22-.35.06-.53-.25-.29-.58-.41-.98-.45.06.19.21.16.31.21.23.11.56.15.58.47.02.29-.3.33-.49.45-1.14.39-2.3.34-3.46.2-.28-.11-.57-.2-.85-.32-.15-.07-.33-.16-.31-.37.02-.18.18-.24.31-.33.15-.1.37-.07.5-.32-.29.05-.51.14-.7.27-.38.25-.38.56,0,.82.28.19.59.3.92.35Zm.05-2.84c-.03.94.52,1.61,1.32,1.72.75.1,1.46-.43,1.63-1.22.11-.53-.05-1-.3-1.45-.32-.56-.68-1.11-1-1.68-.14-.24-.21-.16-.32.02-.31.53-.63,1.05-.94,1.57-.21.36-.38.73-.38,1.03Z"/>
  <path class="cls-5" d="m19.21,18.75c0-.3.17-.67.38-1.03.31-.53.63-1.05.94-1.57.1-.18.18-.26.32-.02.33.56.68,1.11,1,1.68.26.45.42.92.3,1.45-.17.79-.87,1.32-1.63,1.22-.8-.11-1.36-.77-1.32-1.72Zm1.49-2.43c-.23.38-.45.73-.67,1.08-.24.38-.5.76-.59,1.21-.11.55.02,1.04.48,1.39.42.32.89.36,1.35.13.52-.26.73-.71.71-1.28-.02-.4-.18-.75-.38-1.08-.29-.48-.59-.95-.91-1.45Z"/>
  <path class="cls-9" d="m19.29,21.5c1.17.15,2.33.2,3.46-.2,0,.04,0,.09.01.13-1.19.42-2.39.41-3.6.15.04-.03.09-.06.13-.09Z"/>
  <path class="cls-2" d="m19.29,21.5s-.09.06-.13.09c-.33-.05-.64-.16-.92-.35-.38-.26-.39-.56,0-.82.19-.13.41-.22.7-.27-.12.25-.35.22-.5.32-.13.09-.3.15-.31.33-.02.21.16.3.31.37.28.12.57.22.85.32Z"/>
  <path class="cls-2" d="m21.48,21.12c-.81.13-1.6.12-2.32-.31.76.25,1.53.29,2.32.17,0,.05,0,.09,0,.14Z"/>
  <path class="cls-2" d="m22.77,21.44s0-.09-.01-.13c.19-.13.51-.17.49-.45-.02-.31-.35-.35-.58-.47-.1-.05-.25-.01-.31-.21.4.04.73.16.98.45.16.18.1.37-.06.53-.15.14-.31.24-.51.28Z"/>
  <path class="cls-3" d="m21.48,21.12s0-.09,0-.14c.08-.02.16-.04.23-.06.12-.04.29-.03.32-.19.02-.14-.2-.1-.24-.26.21-.03.38.02.44.22.05.2-.14.27-.29.32-.15.05-.31.08-.46.11Z"/>
  <path class="cls-7" d="m20.7,16.32c.31.5.61.97.91,1.45.2.33.36.68.38,1.08.02.57-.19,1.02-.71,1.28-.46.23-.94.19-1.35-.13-.46-.35-.59-.84-.48-1.39.09-.45.35-.83.59-1.21.22-.35.43-.7.67-1.08Zm-.14,3.47c-.33-.2-.64-.38-.68-.78,0-.02-.06-.05-.09-.05-.03,0-.06.04-.07.07-.11.35.4.84.84.75Z"/>
  <path class="cls-9" d="m20.55,19.79c-.44.09-.96-.4-.84-.75,0-.03.04-.07.07-.07.03,0,.09.03.09.05.04.4.35.58.68.78Z"/>
</svg>