<?xml version="1.0" encoding="UTF-8"?>
<svg id="zsptv" xmlns="http://www.w3.org/2000/svg" viewBox="0 0 38 38">
  <defs>
    <style>
      .cls-1 {
        fill: #fefefe;
      }

      .cls-1, .cls-2, .cls-3, .cls-4, .cls-5, .cls-6, .cls-7 {
        stroke-width: 0px;
      }

      .cls-2 {
        fill: #10567c;
      }

      .cls-3 {
        fill: #055077;
      }

      .cls-4 {
        fill: #f8f9fa;
      }

      .cls-5 {
        fill: #fbfcfd;
      }

      .cls-6 {
        fill: #075178;
      }

      .cls-7 {
        fill: #075279;
      }
    </style>
  </defs>
  <path class="cls-3" d="m28.9,15.92c.84,0,1.68.02,2.52,0,.94-.03,1.53.45,1.95,1.23.07.13.14.17.28.17.84,0,1.69,0,2.53,0,.47,0,.82.22,1.1.58.36.47.53,1.02.62,1.59.18,1.05.13,2.09-.15,3.11-.11.41-.29.8-.58,1.12-.28.31-.63.47-1.06.47-.77,0-1.53,0-2.3,0-.13,0-.19.04-.23.17-.19.53-.43,1.02-.82,1.44-.34.36-.75.56-1.25.56-4.28,0-8.57,0-12.85,0-3.6,0-7.19,0-10.79,0-.74,0-1.3-.3-1.75-.86-.23-.29-.42-.61-.56-.96-.05-.13-.13-.17-.26-.17-1.11,0-2.21-.01-3.32.01-.56.01-.94-.24-1.23-.67-.36-.54-.55-1.15-.65-1.79-.19-1.16-.14-2.31.24-3.43.13-.39.31-.76.58-1.07.26-.3.58-.47.99-.46,1.14,0,2.28,0,3.41,0,.13,0,.19-.04.24-.16.23-.51.52-.97.95-1.33.37-.31.8-.47,1.29-.47,2.16,0,4.32,0,6.48,0,.13,0,.18-.02.17-.17-.02-.26,0-.52,0-.79,0-.23.08-.32.31-.35,1.05-.14,2.07-.38,3.05-.77.71-.28,1.38-.65,2.01-1.09.32-.22.44-.23.77-.01,1.49,1,3.14,1.55,4.9,1.81.26.04.33.11.34.38,0,.59,0,1.17,0,1.76,0,.13.03.16.16.16.97,0,1.94,0,2.91,0h0Zm-20.14,10.01c.24,0,.44,0,.63,0,7.36,0,14.71,0,22.07,0,.41,0,.74-.15,1.01-.45.29-.32.5-.69.65-1.09.57-1.49.74-3.04.56-4.62-.1-.92-.31-1.82-.8-2.62-.28-.46-.65-.82-1.24-.82-1.89,0-3.79,0-5.68,0-.1,0-.13.03-.13.13,0,.34,0,.67-.01,1.01-.06,1.38-.32,2.71-.9,3.97-.9,1.96-2.4,3.27-4.4,4.03-.17.06-.32.05-.48-.02-.31-.15-.62-.31-.91-.49-1.24-.77-2.33-1.71-3.15-2.93-.85-1.26-1.31-2.66-1.46-4.16-.08-.74-.03-1.49-.04-2.23,0-.27.03-.23-.22-.23-1.72,0-3.45,0-5.17,0-.07,0-.13-.01-.2.02,0,.02.01.03.02.04.52.44.82,1.03,1.05,1.65.33.89.47,1.82.52,2.77.06,1.29-.04,2.55-.4,3.8-.24.84-.58,1.63-1.3,2.26Zm16.67-9.87c0-.62,0-1.24,0-1.86,0-.16-.06-.21-.2-.22-.51-.07-1.01-.17-1.51-.31-1.21-.32-2.32-.84-3.36-1.53-.11-.07-.19-.07-.29,0-.81.57-1.68,1.02-2.62,1.34-.8.27-1.62.47-2.46.58-.08.01-.15.02-.15.13.02,1.18-.04,2.37.05,3.55.08.96.29,1.88.69,2.76.95,2.1,2.57,3.52,4.58,4.55.1.05.19.04.28,0,.24-.1.48-.21.71-.33,1.29-.66,2.33-1.58,3.06-2.85.64-1.14.98-2.36,1.12-3.65.08-.72.08-1.44.08-2.17Zm-22.82,1.26c.28.32.46.65.59,1,.34.88.42,1.8.38,2.73-.03.67-.15,1.32-.38,1.95-.13.34-.3.65-.58.96.31,0,.58,0,.84,0,1.23,0,2.45,0,3.68,0,.28,0,.48-.11.65-.32.24-.3.37-.64.48-1,.35-1.24.38-2.49.09-3.74-.11-.47-.27-.92-.58-1.31-.15-.19-.34-.28-.58-.28-.63,0-1.26,0-1.89,0-.89,0-1.77,0-2.7,0Zm31,.36s.02.06.03.08c.36.97.52,1.97.53,3,0,.98-.11,1.94-.37,2.89-.03.12,0,.15.11.15.72,0,1.44-.01,2.15,0,.37,0,.65-.15.87-.42.22-.27.36-.59.45-.93.28-1.02.3-2.06.09-3.1-.09-.43-.22-.84-.48-1.2-.19-.26-.43-.46-.76-.46-.86-.01-1.73,0-2.62,0Zm-27.71,6.67c.25.51.51.97.96,1.3.51.37,1.1.36,1.61-.01.34-.25.58-.59.77-.96.4-.8.62-1.66.73-2.55.17-1.31.15-2.62-.13-3.92-.16-.74-.4-1.44-.85-2.06-.7-.96-1.75-1-2.52-.1-.2.23-.34.49-.48.75-.05.1-.05.13.07.13.37,0,.73.01,1.1,0,.42-.02.72.15.96.48.37.5.55,1.08.67,1.68.19.96.18,1.92.02,2.88-.11.62-.26,1.23-.61,1.77-.26.41-.6.68-1.12.62-.08,0-.17,0-.25,0-.3,0-.6,0-.93,0Zm-2.68-3.55c0-.75-.06-1.31-.21-1.85-.14-.51-.32-1-.71-1.38-.33-.32-.69-.32-1.03,0-.21.21-.36.46-.47.74-.61,1.55-.58,3.1-.02,4.64.13.36.33.69.67.91.22.14.44.14.66,0,.33-.21.52-.53.66-.87.32-.76.42-1.56.44-2.19Z"/>
  <path class="cls-1" d="m25.43,16.07c0,.72,0,1.45-.08,2.17-.15,1.29-.48,2.52-1.12,3.65-.72,1.27-1.76,2.2-3.06,2.85-.23.12-.47.23-.71.33-.1.04-.19.05-.28,0-2.01-1.03-3.63-2.45-4.58-4.55-.4-.88-.61-1.8-.69-2.76-.1-1.18-.03-2.37-.05-3.55,0-.12.07-.12.15-.13.84-.11,1.66-.31,2.46-.58.94-.31,1.81-.77,2.62-1.34.11-.08.18-.08.29,0,1.04.69,2.15,1.21,3.36,1.53.5.13,1,.24,1.51.31.14.02.2.06.2.22-.01.62,0,1.24,0,1.86Zm-7.65,4.64c1.13,0,2.05-.9,2.06-2.02,0-1.11-.9-2.02-2.03-2.03-1.12-.01-2.04.9-2.05,2.03-.01,1.1.91,2.02,2.02,2.03Zm2.69-3.44h0c0,.74,0,1.49,0,2.23,0,.1-.03.16-.1.23-.42.39-.54.87-.41,1.42.17.72.85,1.18,1.63,1.11.63-.06,1.1-.38,1.31-.99.21-.61.04-1.13-.43-1.56-.07-.06-.08-.13-.08-.21,0-1.46,0-2.91-.01-4.37,0-.07,0-.14-.02-.2-.1-.48-.53-.8-1.03-.76-.53.05-.87.4-.88.92,0,.72,0,1.45,0,2.17Zm3.91-1.59c-.32,0-.57.16-.68.45-.12.32-.11.63.12.9.19.23.53.29.82.18.09-.03.2-.07.15-.19-.05-.13-.14-.03-.21-.02-.01,0-.02,0-.03,0-.2.06-.4.05-.55-.11-.17-.19-.17-.42-.1-.65.07-.21.23-.32.45-.34.09,0,.18.02.26.05.07.02.13.01.16-.06.04-.08-.02-.12-.08-.14-.1-.04-.21-.08-.31-.07Zm-1.49.23c0,.19.15.34.34.33.19,0,.34-.16.34-.34,0-.19-.17-.35-.36-.34-.18,0-.33.16-.32.35Z"/>
  <path class="cls-6" d="m26.92,22.77c.4,0,.78.1,1.14.27.58.27,1.16.28,1.73,0,.82-.4,1.62-.34,2.43,0,.12.05.17.13.13.25-.05.13-.16.15-.27.11-.26-.1-.52-.18-.8-.22-.43-.06-.84,0-1.22.18-.73.35-1.46.36-2.2.02-.63-.29-1.26-.24-1.9-.05-.21.06-.41.11-.63.13-.1,0-.19,0-.25-.09-.07-.12-.02-.28.11-.28.43-.03.83-.21,1.26-.26.16-.02.32-.04.48-.04Z"/>
  <path class="cls-6" d="m27.02,20.59c.39-.01.75.09,1.09.26.55.27,1.1.3,1.65.04.46-.21.94-.37,1.46-.31.35.04.69.15,1.01.27.11.04.15.13.11.24-.04.11-.13.14-.24.11-.21-.06-.41-.16-.63-.2-.49-.1-.96-.05-1.41.17-.56.29-1.15.35-1.75.16-.12-.04-.25-.09-.36-.15-.52-.27-1.06-.29-1.62-.13-.09.03-.17.06-.26.07-.11.02-.2-.02-.23-.14-.03-.12.02-.2.14-.23.34-.1.67-.2,1.03-.19Z"/>
  <path class="cls-6" d="m27.1,18.33c.44,0,.78.11,1.1.28.52.28,1.06.34,1.57.05.81-.46,1.62-.42,2.44-.06.12.05.17.15.12.27-.04.12-.15.14-.26.09-.21-.08-.43-.17-.66-.21-.47-.1-.92-.03-1.35.2-.66.36-1.33.39-1.99.03-.47-.26-.96-.34-1.48-.17-.12.04-.22,0-.25-.11-.04-.12.02-.21.14-.25.22-.08.45-.11.61-.11Z"/>
  <path class="cls-6" d="m12.03,22.6c.39,0,.71.09,1,.28.3.19.59.37.97.36.25,0,.48-.08.7-.2.16-.09.31-.17.47-.25.13-.06.25-.02.29.09.05.12,0,.21-.14.27-.16.08-.33.17-.49.25-.65.34-1.29.3-1.88-.11-.47-.33-.96-.41-1.49-.17-.11.05-.22.05-.28-.08-.05-.11,0-.22.12-.28.24-.11.49-.18.72-.18Z"/>
  <path class="cls-6" d="m11.94,20.45c.32,0,.62.08.9.25.46.28.93.34,1.42.08.11-.06.21-.04.27.08.05.12,0,.21-.11.27-.56.3-1.12.29-1.66-.03-.41-.24-.82-.32-1.28-.18-.17.05-.26,0-.3-.11-.03-.12.03-.21.2-.27.19-.06.38-.08.57-.09Z"/>
  <path class="cls-6" d="m13.28,19.11c-.3.01-.57-.11-.82-.27-.31-.2-.64-.24-.99-.13-.12.04-.24.06-.3-.1-.05-.13.03-.24.19-.29.49-.15.94-.06,1.36.21.32.21.65.25,1,.09.11-.05.22-.04.27.09.05.13,0,.21-.12.26-.18.09-.37.14-.59.13Z"/>
  <path class="cls-6" d="m17.78,20.71c-1.11,0-2.03-.93-2.02-2.03.01-1.13.94-2.04,2.05-2.03,1.13.01,2.04.92,2.03,2.03,0,1.12-.93,2.03-2.06,2.02Zm.01-.42c.91,0,1.63-.73,1.63-1.63,0-.88-.73-1.57-1.64-1.57-.9,0-1.6.73-1.59,1.65,0,.84.74,1.55,1.61,1.54Z"/>
  <path class="cls-7" d="m20.47,17.27c0-.72,0-1.45,0-2.17,0-.52.35-.88.88-.92.5-.04.93.28,1.03.76.01.07.02.14.02.2,0,1.46,0,2.91.01,4.37,0,.08,0,.14.08.21.47.43.65.96.43,1.56-.21.61-.68.93-1.31.99-.78.07-1.46-.39-1.63-1.11-.13-.54,0-1.03.41-1.42.07-.07.1-.13.1-.23,0-.74,0-1.49,0-2.23h0Zm1.7.11s-.02,0-.03,0c0-.77,0-1.54,0-2.31,0-.32-.22-.55-.53-.63-.33-.08-.64.04-.8.31-.08.14-.09.3-.09.46,0,1.47,0,2.93,0,4.4,0,.11-.02.18-.11.25-.29.23-.43.54-.43.9-.01.77.67,1.34,1.49,1.24.49-.06.91-.41,1.05-.88.13-.46-.04-.97-.43-1.28-.08-.06-.1-.12-.1-.21,0-.75,0-1.51,0-2.26Z"/>
  <path class="cls-2" d="m24.38,15.68c.1-.01.21.02.31.07.06.03.11.06.08.14-.03.07-.09.08-.16.06-.08-.03-.17-.06-.26-.05-.22.02-.38.13-.45.34-.07.23-.08.46.1.65.15.17.35.17.55.11.01,0,.02,0,.03,0,.07-.02.17-.11.21.02.04.12-.07.16-.15.19-.29.11-.63.05-.82-.18-.23-.27-.24-.59-.12-.9.11-.29.36-.45.68-.45Z"/>
  <path class="cls-2" d="m22.9,15.92c0-.19.14-.35.32-.35.19,0,.36.15.36.34,0,.18-.15.34-.34.34-.19,0-.34-.14-.34-.33Zm.5-.01c-.02-.1-.08-.16-.18-.16-.1,0-.15.07-.15.17,0,.1.07.16.18.16.09,0,.15-.07.16-.17Z"/>
  <path class="cls-7" d="m8.91,16.85c0,.14-.13.26-.27.25-.12,0-.21-.12-.21-.25,0-.12.12-.24.24-.24.13,0,.23.11.23.24Z"/>
  <path class="cls-2" d="m9.38,18.77c.13,0,.23.11.23.27,0,.13-.09.23-.22.23-.13,0-.23-.1-.23-.25,0-.14.1-.25.23-.25Z"/>
  <path class="cls-6" d="m9.37,17.87c0,.13-.1.24-.23.24-.12,0-.21-.11-.22-.24,0-.15.09-.26.23-.26.12,0,.22.11.22.26Z"/>
  <path class="cls-2" d="m7.64,15.88c.12,0,.22.12.21.24,0,.13-.11.23-.24.22-.13,0-.23-.11-.23-.23,0-.13.12-.24.25-.23Z"/>
  <path class="cls-7" d="m8.73,24.66c0,.13-.1.23-.22.23-.13,0-.24-.1-.24-.22,0-.12.11-.23.23-.24.12,0,.23.1.23.23Z"/>
  <path class="cls-7" d="m6.98,24.69c0,.12-.1.22-.22.22-.13,0-.24-.11-.24-.24,0-.13.1-.22.23-.22.12,0,.22.11.22.24Z"/>
  <path class="cls-7" d="m7.6,24.99c.13,0,.22.08.23.22,0,.13-.08.22-.21.23-.13,0-.23-.09-.24-.22,0-.14.08-.23.22-.23Z"/>
  <path class="cls-6" d="m9.51,20.4c-.12,0-.23-.1-.22-.23,0-.13.09-.24.21-.24.13,0,.22.1.22.23,0,.13-.09.24-.21.25Z"/>
  <path class="cls-7" d="m6.98,16.62c0,.13-.1.24-.23.24-.12,0-.21-.09-.21-.22,0-.13.09-.23.23-.23.13,0,.22.08.22.21Z"/>
  <path class="cls-7" d="m8.99,24.01c-.12,0-.22-.09-.23-.21,0-.13.09-.24.21-.24.13,0,.22.1.22.23,0,.13-.08.22-.21.22Z"/>
  <path class="cls-7" d="m9.6,22.11c0,.13-.09.22-.21.22-.13,0-.21-.07-.22-.2,0-.13.08-.24.21-.24.13,0,.22.09.22.23Z"/>
  <path class="cls-2" d="m9.69,21.15c0,.12-.11.21-.23.21-.12,0-.2-.1-.2-.22,0-.14.1-.22.23-.22.11,0,.19.1.19.22Z"/>
  <path class="cls-2" d="m9.2,23.1c-.1-.03-.17-.08-.16-.21.02-.13.09-.19.22-.17.11.01.18.08.18.2,0,.11-.11.2-.24.18Z"/>
  <path class="cls-6" d="m2.86,20.64c-.02.69-.08,1.36-.33,2-.05.13-.12.26-.19.38-.29.45-.79.45-1.09,0-.21-.32-.32-.68-.39-1.05-.19-1.08-.18-2.15.17-3.19.07-.21.18-.4.33-.57.24-.27.62-.27.87,0,.28.29.37.66.47,1.03.12.46.13.94.15,1.41Zm-.39-.05c0-.15,0-.35-.03-.54-.02-.2-.05-.4-.09-.59-.06-.3-.14-.59-.31-.85-.16-.25-.33-.25-.49,0-.11.17-.18.35-.23.55-.26.99-.25,1.99-.03,2.98.05.24.14.47.29.67.14.19.26.19.4.02.1-.12.16-.26.21-.4.21-.57.26-1.17.27-1.83Z"/>
  <path class="cls-5" d="m17.8,20.29c-.86,0-1.6-.7-1.61-1.54,0-.92.69-1.65,1.59-1.65.91,0,1.64.69,1.64,1.57,0,.9-.72,1.62-1.63,1.63Zm-.21-.66c.06,0,.12-.02.17-.08.38-.41.77-.83,1.15-1.24.09-.1.09-.22,0-.31-.09-.1-.21-.09-.31-.02-.05.03-.08.08-.12.12-.28.3-.56.6-.83.9-.06.06-.1.07-.16,0-.15-.16-.3-.32-.46-.47-.1-.1-.25-.1-.34-.01-.09.09-.1.24,0,.32.23.24.47.47.7.7.05.05.12.09.21.09Z"/>
  <path class="cls-4" d="m22.17,17.38c0,.75,0,1.51,0,2.26,0,.09.02.15.1.21.39.3.56.82.43,1.28-.13.46-.56.82-1.05.88-.82.1-1.51-.47-1.49-1.24,0-.36.14-.67.43-.9.09-.07.11-.14.11-.25,0-1.47,0-2.93,0-4.4,0-.16,0-.32.09-.46.16-.27.48-.39.8-.31.32.08.53.31.53.63,0,.77,0,1.54,0,2.31,0,0,.02,0,.03,0Zm-.25,1.29h0c0-.39,0-.79,0-1.18,0-.13-.04-.25-.17-.31-.22-.09-.39.03-.4.28,0,.79,0,1.58,0,2.37,0,.12-.03.17-.16.19-.39.08-.68.42-.68.78-.01.46.28.84.74.95.49.11.96-.11,1.15-.54.18-.42.05-.9-.34-1.16-.11-.07-.14-.15-.14-.27,0-.37,0-.74,0-1.12Zm-.78-1.73s0,0,0,0c.07,0,.14,0,.2,0,.06,0,.1-.04.1-.1,0-.05-.04-.09-.09-.1-.13-.02-.27-.02-.4,0-.06.01-.09.05-.09.11,0,.06.05.09.11.09.06,0,.11,0,.17,0Zm0-.72s0,0,0,0c.06,0,.13,0,.19,0,.06,0,.1-.03.1-.09,0-.06-.04-.1-.09-.11-.13-.01-.26-.02-.39,0-.05.01-.09.04-.09.1,0,.05.04.09.09.1.06.01.12,0,.19.01Zm0-.76s0,0,0,0c.06,0,.13,0,.19,0,.05,0,.09-.04.09-.09,0-.06-.04-.1-.09-.11-.12-.02-.25-.02-.37,0-.05,0-.1.04-.09.11,0,.06.05.09.11.1.06,0,.11,0,.17,0Zm-.17,2.79c.06,0,.1-.03.1-.09,0-.06-.03-.1-.09-.1-.07,0-.11.04-.11.1,0,.06.04.09.1.09Zm0,1c-.05,0-.1.03-.1.09,0,.07.03.09.09.1.06,0,.1-.02.11-.08,0-.06-.03-.1-.1-.1Zm-.11-.51c0,.06.04.09.1.09.06,0,.1-.03.1-.09,0-.06-.03-.1-.09-.1-.07,0-.11.03-.12.1Zm.11-1.08c.06-.01.1-.03.1-.1,0-.07-.04-.09-.1-.09-.06,0-.1.03-.1.1,0,.07.05.08.1.1Z"/>
  <path class="cls-4" d="m23.39,15.9c0,.09-.06.16-.16.17-.1,0-.17-.05-.18-.16,0-.09.05-.16.15-.17.11,0,.16.06.18.16Z"/>
  <path class="cls-6" d="m17.58,19.63c-.09,0-.16-.03-.21-.09-.23-.23-.47-.47-.7-.7-.09-.09-.08-.24,0-.32.09-.09.24-.08.34.01.16.15.31.31.46.47.06.07.1.06.16,0,.28-.3.55-.6.83-.9.04-.04.07-.09.12-.12.11-.07.22-.09.31.02.09.1.09.22,0,.31-.38.42-.77.83-1.15,1.24-.05.05-.11.07-.17.08Z"/>
  <path class="cls-3" d="m21.92,18.67c0,.37,0,.74,0,1.12,0,.12.03.19.14.27.39.26.53.75.34,1.16-.19.43-.66.65-1.15.54-.45-.1-.75-.48-.74-.95,0-.36.29-.69.68-.78.12-.03.16-.07.16-.19,0-.79,0-1.58,0-2.37,0-.25.18-.37.4-.28.14.06.17.17.17.31,0,.39,0,.79,0,1.18h0Zm-.41.03s0,0-.01,0c0,.41,0,.82,0,1.23,0,.03-.01.08.03.09.05,0,.07-.03.07-.08,0-.03,0-.05,0-.08,0-.79,0-1.57,0-2.36,0-.03,0-.06,0-.09,0-.02,0-.04-.03-.05-.03,0-.05.02-.05.04,0,.04,0,.08,0,.12,0,.39,0,.79,0,1.18Zm-.24,1.53c-.17,0-.4.17-.44.34-.02.08,0,.13.06.18.04.04.08.06.13.02.14-.12.27-.26.35-.43.03-.07,0-.11-.09-.11Z"/>
  <path class="cls-2" d="m21.15,16.94c-.06,0-.11,0-.17,0-.06,0-.1-.03-.11-.09,0-.06.03-.1.09-.11.13-.02.27-.02.4,0,.05,0,.08.05.09.1,0,.06-.04.1-.1.1-.07,0-.14,0-.2,0,0,0,0,0,0,0Z"/>
  <path class="cls-2" d="m21.14,16.22c-.06,0-.13,0-.19-.01-.05,0-.09-.04-.09-.1,0-.05.03-.08.09-.1.13-.03.26-.02.39,0,.05,0,.1.05.09.11,0,.06-.05.09-.1.09-.06,0-.12,0-.19,0,0,0,0,0,0,0Z"/>
  <path class="cls-2" d="m21.15,15.46c-.06,0-.12,0-.17,0-.05,0-.1-.03-.11-.1,0-.06.04-.1.09-.11.12-.02.25-.02.37,0,.05,0,.1.04.09.11,0,.06-.04.09-.09.09-.06,0-.12,0-.19,0,0,0,0,0,0,0Z"/>
  <path class="cls-2" d="m20.98,18.24c-.06,0-.11-.03-.1-.09,0-.07.05-.11.11-.1.06,0,.1.04.09.1,0,.06-.04.09-.1.09Z"/>
  <path class="cls-2" d="m20.98,19.24c.07,0,.1.04.1.1,0,.06-.05.09-.11.08-.06,0-.1-.03-.09-.1,0-.06.05-.09.1-.09Z"/>
  <path class="cls-2" d="m20.87,18.74c0-.07.05-.11.12-.1.06,0,.1.04.09.1,0,.06-.05.09-.1.09-.06,0-.1-.03-.1-.09Z"/>
  <path class="cls-2" d="m20.98,17.66c-.05-.01-.1-.03-.1-.1,0-.06.04-.09.1-.1.06,0,.1.03.1.09,0,.07-.04.09-.1.1Z"/>
  <path class="cls-4" d="m21.52,18.7c0-.39,0-.79,0-1.18,0-.04,0-.08,0-.12,0-.03.02-.05.05-.04.03,0,.03.03.03.05,0,.03,0,.06,0,.09,0,.79,0,1.57,0,2.36,0,.03,0,.05,0,.08,0,.05-.02.09-.07.08-.05,0-.03-.06-.03-.09,0-.41,0-.82,0-1.23,0,0,0,0,.01,0Z"/>
  <path class="cls-4" d="m21.28,20.24c.08,0,.12.04.09.11-.08.18-.21.31-.35.43-.04.04-.09.01-.13-.02-.05-.05-.08-.11-.06-.18.04-.17.28-.34.44-.34Z"/>
</svg>