<?xml version="1.0" encoding="UTF-8"?>
<svg id="zvonve" xmlns="http://www.w3.org/2000/svg" viewBox="0 0 38 38">
  <defs>
    <style>
      .cls-1 {
        fill: #055077;
      }

      .cls-1, .cls-2, .cls-3, .cls-4 {
        stroke-width: 0px;
      }

      .cls-2 {
        fill: #075178;
      }

      .cls-3 {
        fill: #065278;
      }

      .cls-4 {
        fill: #085379;
      }
    </style>
  </defs>
  <path class="cls-1" d="m22.49,36.23c-5.02,0-10.04,0-15.06,0-.06,0-.11,0-.17,0-.16,0-.26-.07-.26-.23,0-.17.09-.26.26-.27.26,0,.52-.01.78,0,.15,0,.19-.04.19-.19,0-.75,0-1.5,0-2.25,0-.13-.05-.15-.16-.15-.13,0-.27,0-.4,0-.4-.01-.67-.28-.67-.68,0-.44,0-.88,0-1.33,0-.13-.03-.18-.16-.17-.13.01-.27,0-.4,0-.18,0-.37-.03-.46.19,0,.02-.04.04-.06.05-.29.19-1,.1-1.22-.17-.1-.12-.22-.06-.33-.07-.3,0-.3,0-.31.29,0,.36-.15.51-.51.51-.25,0-.49,0-.74,0-.28,0-.44-.17-.45-.45q0-.35-.35-.35c-.53,0-1.07,0-1.6,0-.31,0-.4-.06-.4-.25,0-.18.09-.24.39-.24.59,0,1.18-.01,1.77,0,.16,0,.2-.04.2-.2,0-.65,0-1.31,0-1.96,0-.13-.04-.17-.16-.17-.62,0-1.25,0-1.87,0-.12,0-.23,0-.29-.13-.1-.18.03-.35.26-.35.62,0,1.25,0,1.87,0,.15,0,.19-.04.19-.19-.03-.72.23-.74.75-.72.15,0,.31,0,.46,0,.31,0,.48.17.49.48,0,.44,0,.44.44.43.1,0,.16-.02.22-.12.08-.15.23-.22.41-.22.17,0,.34,0,.51,0,.17,0,.31.07.39.2.07.12.16.14.28.13.16,0,.32-.01.48,0,.16.01.21-.03.21-.2,0-1.57,0-3.14,0-4.72,0-4.34.02-8.68-.01-13.01,0-.95.43-1.6,1.12-2.14.76-.6,1.64-.99,2.55-1.31,1.52-.54,3.09-.87,4.68-1.1,1.1-.16,2.2-.27,3.31-.34.11,0,.15-.03.15-.15,0-.25,0-.49,0-.74,0-.12-.03-.16-.15-.16-.32-.01-.35-.05-.35-.36,0-.31,0-.62,0-.93,0-.21.09-.32.29-.37.58-.15,1.17-.23,1.76-.29,1.07-.11,2.14-.11,3.22-.08,1.02.03,2.03.11,3.02.37.31.08.35.13.35.45,0,.29,0,.59,0,.88,0,.26-.06.33-.32.32-.14,0-.18.03-.18.17.01.24.01.48,0,.72,0,.13.04.16.16.17.82.05,1.64.13,2.45.24,2.22.29,4.4.71,6.45,1.65.63.29,1.23.64,1.74,1.13.36.34.65.73.76,1.23.02.09.02.18.02.27,0,7.67,0,15.34,0,23.01,0,.47-.25.73-.72.73-.24,0-.48,0-.72,0-.12,0-.15.03-.15.16,0,.75,0,1.5,0,2.25,0,.14.03.18.17.18.36,0,.72,0,1.07,0,.25,0,.36.08.34.26-.01.22-.17.24-.35.24-5.05,0-10.11,0-15.16,0Zm-3.33-24.81c-3.82,0-7.64,0-11.45,0-.18,0-.23.04-.23.23,0,1.97,0,3.94,0,5.92,0,4.9,0,9.8,0,14.7,0,.37.02.39.39.39,3.74,0,7.48,0,11.22,0,3.8,0,7.61,0,11.41,0,.32,0,.32,0,.32-.31,0-3.56,0-7.12,0-10.67,0-3.35,0-6.71,0-10.06,0-.19-.09-.18-.21-.18-3.82,0-7.64,0-11.45,0Zm.02-2.37h0c3.7,0,7.4,0,11.1,0q.54,0,.55-.53,0-.36-.35-.42c-.12-.02-.21-.08-.22-.21,0-.13.07-.21.19-.24.44-.12.85.19.86.64,0,.18.01.37,0,.55-.01.17.05.22.21.22.64,0,1.28,0,1.92,0,.71,0,.71,0,.64-.72-.01-.14-.08-.22-.23-.22-.06,0-.13,0-.19-.01-.1-.03-.16-.1-.17-.22,0-.12.06-.2.17-.24.44-.13.87.19.88.65,0,.18,0,.37,0,.55-.01.16.03.22.21.22.82-.01,1.64,0,2.46-.01.24,0,.25-.01.13-.22-.28-.48-.7-.82-1.16-1.11-1.19-.75-2.52-1.17-3.87-1.51-2.35-.59-4.75-.82-7.17-.92-2.96-.12-5.92-.07-8.87.28-1.8.22-3.58.54-5.3,1.14-.94.33-1.85.71-2.63,1.33-.3.24-.55.52-.74.86-.06.12-.04.17.1.15.03,0,.07,0,.11,0,3.79,0,7.58,0,11.37,0Zm15.37,12.96h0c0,.34,0,.67,0,1.01,0,3.14,0,6.27,0,9.41,0,.18.05.22.22.22.76,0,1.53,0,2.29,0q.45,0,.45-.45c0-5.71,0-11.42,0-17.14,0-1.14,0-2.29,0-3.43,0-.11.03-.21-.16-.21-.88.01-1.77,0-2.65,0-.12,0-.15.03-.15.15,0,.55,0,1.09,0,1.64,0,2.93,0,5.87,0,8.8Zm-12.24,13.71h0c3.47,0,6.93,0,10.4,0,.19,0,.26-.03.26-.24-.01-.67,0-1.35,0-2.02q0-.33-.32-.33c-4.28,0-8.56,0-12.84,0-2.64,0-5.28,0-7.92,0-.18,0-.22.05-.21.22,0,.67,0,1.33,0,2,0,.37,0,.37.36.37,3.43,0,6.85,0,10.28,0Zm-3.14-26.19c-2.84,0-5.68,0-8.53,0-.99,0-1.98,0-2.97,0-.17,0-.21.05-.21.21.01.32.01.63,0,.95,0,.19.05.23.23.23,5.48,0,10.96,0,16.44,0,2.15,0,4.31,0,6.46,0,.15,0,.22-.02.21-.2-.02-.3,0-.6,0-.9,0-.28.07-.28-.28-.28-3.79,0-7.58,0-11.37,0Zm3.41-6.21h0c1.11,0,2.22,0,3.32,0,.52,0,.51,0,.52-.51,0-.15-.03-.22-.19-.25-1.08-.22-2.18-.28-3.28-.3-1.21-.02-2.42.03-3.63.23-.58.09-.58.09-.58.64,0,.16.05.2.2.2,1.21,0,2.43,0,3.64,0Zm13.34,31.09c0-.37,0-.74,0-1.12,0-.11-.02-.16-.15-.16-.74,0-1.47,0-2.21,0-.1,0-.13.03-.13.13,0,.77,0,1.54,0,2.32,0,.11.04.14.14.14.73,0,1.46,0,2.19,0,.12,0,.16-.03.16-.15,0-.39,0-.77,0-1.16Zm-24.75.02s0,0,0,0c0-.37,0-.74,0-1.11,0-.16-.05-.19-.19-.19-.71,0-1.42,0-2.12,0-.13,0-.17.03-.17.16,0,.76,0,1.51,0,2.27,0,.12.03.15.15.15.72,0,1.44,0,2.17,0,.12,0,.15-.04.15-.15,0-.38,0-.76,0-1.14Zm21.51-1.79c.41,0,.81,0,1.22,0,.11,0,.16-.03.16-.15,0-.62,0-1.25,0-1.87,0-.11-.04-.14-.15-.14-.83,0-1.65,0-2.48,0-.11,0-.14.04-.14.15,0,.62,0,1.23,0,1.85,0,.13.04.17.17.17.41,0,.81,0,1.22,0Zm0-10.22c.41,0,.81,0,1.22,0,.13,0,.17-.03.17-.16,0-.57,0-1.14,0-1.71,0-.11-.02-.16-.15-.16-.83,0-1.66,0-2.48,0-.1,0-.14.02-.14.13,0,.58,0,1.17,0,1.75,0,.12.04.15.16.15.41,0,.81,0,1.22,0Zm.03-7.05h0c-.41,0-.83,0-1.24,0-.13,0-.17.04-.16.17,0,.57,0,1.14,0,1.71,0,.11.02.16.15.16.82,0,1.64,0,2.46,0,.12,0,.16-.03.15-.15,0-.57,0-1.14,0-1.71,0-.15-.06-.17-.19-.17-.39,0-.79,0-1.18,0Zm-.02,2.53h0c-.41,0-.83,0-1.24,0-.1,0-.15.02-.15.14,0,.58,0,1.15,0,1.73,0,.11.03.16.15.16.83,0,1.66,0,2.48,0,.1,0,.13-.03.13-.13,0-.58,0-1.16,0-1.75,0-.11-.03-.14-.14-.14-.41,0-.83,0-1.24,0Zm.01-5.05h0c-.41,0-.83,0-1.24,0-.09,0-.16,0-.15.13,0,.58,0,1.16,0,1.74,0,.11.03.16.15.16.82,0,1.64,0,2.46,0,.12,0,.16-.03.16-.15,0-.57,0-1.15,0-1.72,0-.12-.03-.16-.16-.16-.41,0-.81,0-1.22,0Zm0,10.07h0c-.41,0-.81,0-1.22,0-.1,0-.17,0-.17.14,0,.59,0,1.18,0,1.77,0,.1.04.13.14.13.83,0,1.66,0,2.48,0,.13,0,.15-.05.15-.16,0-.57,0-1.14,0-1.7,0-.14-.05-.18-.18-.17-.4,0-.8,0-1.2,0Zm0,4.55h0c.41,0,.81,0,1.22,0,.11,0,.16-.01.16-.15,0-.57,0-1.15,0-1.72,0-.12-.04-.15-.16-.15-.82,0-1.64,0-2.46,0-.12,0-.16.03-.15.15,0,.57,0,1.14,0,1.7,0,.13.04.17.17.16.41,0,.81,0,1.22,0Zm0,.5h0c-.41,0-.83,0-1.24,0-.12,0-.16.03-.16.15,0,.57,0,1.14,0,1.7,0,.12.01.17.16.17.81,0,1.63,0,2.44,0,.12,0,.17-.03.17-.16,0-.57,0-1.14,0-1.7,0-.13-.05-.16-.17-.16-.4,0-.8,0-1.2,0ZM22.48,4.78s0,0,0,0c.8,0,1.6,0,2.4,0,.14,0,.18-.04.18-.17,0-.18,0-.37,0-.55.01-.18-.04-.25-.24-.25-1.25,0-2.5,0-3.74,0-.31,0-.62,0-.93,0-.15,0-.23.02-.22.2.02.19.01.39,0,.59,0,.15.04.18.19.18.78,0,1.57,0,2.35,0Zm13.55,6.14c.44,0,.88,0,1.32,0,.12,0,.15-.03.15-.15,0-.36,0-.71,0-1.07,0-.11-.03-.16-.15-.16-.89,0-1.78,0-2.67,0-.13,0-.15.05-.14.16,0,.34,0,.69,0,1.03,0,.14.03.19.18.19.43,0,.87,0,1.3,0Zm-3.36-.08h0c.41,0,.83,0,1.24,0,.12,0,.16-.03.16-.15,0-.34,0-.67,0-1.01,0-.11-.03-.15-.14-.15-.83,0-1.65,0-2.48,0-.11,0-.15.02-.14.14,0,.34,0,.67,0,1.01,0,.13.05.16.17.16.4,0,.8,0,1.2,0ZM2.84,29.27h0c0,.48,0,.97,0,1.45q0,.6.61.55s.01,0,.02,0c.09.01.12-.03.12-.12,0-.22,0-.43,0-.65,0-1.03,0-2.06,0-3.09,0-.11-.03-.15-.14-.15-.15,0-.3.01-.44,0-.14-.01-.18.04-.18.18,0,.61,0,1.22,0,1.83Zm29.86-16.91s0,0,0,0c.41,0,.83,0,1.24,0,.11,0,.15-.03.14-.14,0-.24,0-.49,0-.74,0-.14-.05-.17-.18-.17-.81,0-1.62,0-2.44,0-.1,0-.15.01-.15.13,0,.26,0,.52,0,.78,0,.12.04.14.15.14.41,0,.83,0,1.24,0ZM6.99,29.33h0c0-.15,0-.31,0-.46,0-.23.1-.53-.05-.66-.15-.13-.44-.03-.67-.03,0,0-.01,0-.02,0-.09-.01-.13.02-.13.11,0,.69,0,1.39,0,2.08,0,.09.03.12.12.12.2,0,.39,0,.59,0,.14,0,.16-.05.16-.17,0-.33,0-.66,0-.99Zm-1.9-.02h0c0,.44,0,.88,0,1.33,0,.12.03.19.17.17.06,0,.11,0,.17,0,.19.03.24-.05.24-.23,0-.79,0-1.59,0-2.38,0-.36,0-.35-.35-.36-.16,0-.23.03-.22.21.01.42,0,.84,0,1.26Zm-1.03,0h0c0,.13,0,.27,0,.4,0,.13,0,.27,0,.4,0,.39,0,.38.39.37.15,0,.17-.06.17-.19,0-.59,0-1.18,0-1.77,0-.39,0-.38-.4-.38-.13,0-.17.04-.16.17,0,.33,0,.66,0,.99ZM25.92,4.33s0,0,0,0c0-.13,0-.25,0-.38,0-.12-.05-.16-.15-.12-.09.03-.26-.11-.26.12,0,.23,0,.46,0,.69,0,.13.04.18.18.18.17,0,.26-.02.23-.22-.02-.09,0-.18,0-.27Zm-6.66-.02s0,0,0,0c0,.13,0,.25,0,.38,0,.07,0,.12.09.12.09,0,.12-.03.12-.12,0-.25,0-.5,0-.76,0-.09-.04-.12-.12-.12-.1,0-.1.05-.1.12,0,.13,0,.25,0,.38Z"/>
  <path class="cls-4" d="m22.78,20.46c0,.88,0,1.75,0,2.63,0,.18.04.3.19.42.71.59.96,1.64.62,2.51-.35.88-1.22,1.47-2.13,1.44-.92-.03-1.74-.64-2.04-1.53-.31-.89-.05-1.86.67-2.46.11-.09.16-.19.16-.33,0-1.79,0-3.58,0-5.37,0-.72.57-1.29,1.28-1.29.68,0,1.26.57,1.27,1.26.01.91,0,1.81,0,2.72Zm-2.05.12h0c0,.94,0,1.88,0,2.82,0,.16-.04.27-.18.34-.17.09-.29.24-.41.39-.48.6-.49,1.45-.02,2.11.43.61,1.24.88,1.94.63.64-.23,1.04-.68,1.16-1.35.13-.73-.12-1.33-.73-1.76-.14-.1-.2-.21-.19-.38,0-.44,0-.88,0-1.33q0-.3-.29-.33c-.13-.02-.23-.08-.23-.23,0-.14.09-.23.24-.24.04,0,.08,0,.13,0,.12.02.16-.03.15-.15,0-.2-.01-.41,0-.61.01-.15-.05-.19-.19-.19-.23,0-.36-.1-.34-.24.03-.2.18-.22.35-.22.01,0,.03,0,.04,0,.12.02.14-.04.14-.14,0-.17-.01-.34,0-.51.02-.2,0-.33-.26-.3-.14.02-.24-.08-.25-.23,0-.15.08-.22.21-.24.3-.06.3-.05.3-.37,0-.07,0-.14,0-.21,0-.48-.34-.84-.79-.84-.49,0-.8.42-.79.84.02.92,0,1.84,0,2.76Z"/>
  <path class="cls-2" d="m27.26,18.14c.03-.18.05-.33.07-.48.02-.15.11-.25.27-.23.17.02.22.14.2.29-.05.39-.1.78-.16,1.17-.03.2-.15.27-.35.22-.32-.09-.65-.18-.97-.27-.15-.04-.24-.14-.2-.3.04-.16.16-.22.32-.18.12.03.23.09.38.08-.08-.19-.19-.33-.31-.47-1.39-1.69-3.19-2.51-5.36-2.38-2.23.13-3.94,1.18-5.1,3.11-.16.26-.29.53-.39.81-.06.16-.15.24-.32.19-.18-.06-.2-.2-.14-.36.24-.64.58-1.23,1.02-1.76,1.22-1.48,2.79-2.34,4.7-2.48,2.62-.2,4.7.81,6.24,2.93.02.03.04.05.08.11Zm-.41.28s0,0-.01.01c0,0,0,.01.01.01,0,0,.01,0,.01-.01,0,0,0,0-.01-.01Z"/>
  <path class="cls-2" d="m22.54,28.46c.51-.05.94-.18,1.36-.34,2.44-.94,4.04-3.27,4.04-5.89,0-.73-.07-1.46-.29-2.16,0-.03-.02-.05-.02-.08-.03-.15,0-.29.17-.33.16-.04.26.05.31.21,1.27,4.11-1.09,8.39-5.46,9.1.12.08.22.15.33.21.16.09.21.23.12.37-.09.15-.23.13-.37.04-.29-.19-.58-.37-.87-.55-.19-.13-.21-.28-.06-.46.22-.27.45-.54.68-.8.1-.12.23-.14.35-.04.12.1.11.23.01.35-.09.11-.18.22-.31.38Z"/>
  <path class="cls-3" d="m14.76,21.68c-.13.16-.21.27-.3.37-.1.11-.21.13-.33.04-.12-.09-.12-.23-.04-.34.25-.32.51-.63.78-.94.11-.13.27-.12.38.02.24.3.48.61.71.91.08.11.09.24-.03.34-.13.1-.25.08-.35-.04-.1-.12-.19-.24-.33-.4,0,.32-.01.61,0,.89.1,1.6.66,3,1.79,4.15,1.05,1.06,2.33,1.66,3.81,1.83.14.02.25.05.29.2.05.19-.09.33-.31.3-1.1-.11-2.12-.46-3.04-1.08-1.98-1.35-2.96-3.23-3.03-5.61,0-.19,0-.39,0-.64Z"/>
  <path class="cls-2" d="m21.68,22.56c0,.46,0,.91,0,1.37,0,.14.03.2.17.25.57.19.86.82.66,1.38-.2.56-.79.85-1.34.67-.57-.2-.88-.8-.69-1.37.09-.28.28-.49.54-.61.15-.07.18-.15.18-.3,0-.92,0-1.84,0-2.75,0-.08,0-.16.03-.23.06-.1.15-.12.25-.1.11.03.18.11.18.23,0,.41,0,.83,0,1.24,0,.08,0,.15,0,.23,0,0,0,0,0,0Z"/>
</svg>