<?xml version="1.0" encoding="UTF-8"?>
<svg id="pkvvpo" xmlns="http://www.w3.org/2000/svg" viewBox="0 0 38 38">
  <defs>
    <style>
      .cls-1 {
        fill: #09537a;
      }

      .cls-1, .cls-2, .cls-3, .cls-4, .cls-5, .cls-6, .cls-7, .cls-8, .cls-9 {
        stroke-width: 0px;
      }

      .cls-2 {
        fill: #10577c;
      }

      .cls-3 {
        fill: #fdfdfe;
      }

      .cls-4 {
        fill: #054f76;
      }

      .cls-5 {
        fill: #10567c;
      }

      .cls-6 {
        fill: #fcfdfd;
      }

      .cls-7 {
        fill: #075178;
      }

      .cls-8 {
        fill: #12587e;
      }

      .cls-9 {
        fill: #0b557b;
      }
    </style>
  </defs>
  <path class="cls-7" d="m16.84,11.26c4.36,0,8.72,0,13.08,0,.67,0,1.19.24,1.61.74.18.21.35.44.47.69.08.16.18.2.34.2,1.04,0,2.08,0,3.12-.01.52,0,.92.19,1.23.59.39.49.63,1.07.82,1.66.29.91.43,1.84.48,2.8.05,1.03.05,2.05-.09,3.07-.15,1.12-.39,2.2-.96,3.19-.13.23-.29.44-.49.62-.25.23-.54.34-.88.34-1.1,0-2.2,0-3.31,0-.12,0-.19.03-.25.15-.23.44-.51.84-.92,1.14-.3.21-.62.32-.99.32-8.82,0-17.64,0-26.46,0-.73,0-1.3-.34-1.76-.87-.55-.63-.87-1.37-1.14-2.15-.42-1.24-.64-2.51-.7-3.81-.08-1.66.04-3.3.48-4.91.24-.88.55-1.74,1.07-2.5.38-.55.84-1,1.51-1.18.18-.05.36-.07.54-.07,4.4,0,8.81,0,13.21,0h0Zm1.95,12.21h0c3.5,0,7.01,0,10.51,0,.2,0,.37-.06.53-.18.24-.19.41-.45.55-.72.42-.82.58-1.7.65-2.6.1-1.21.03-2.42-.3-3.6-.13-.46-.31-.91-.6-1.3-.2-.27-.44-.47-.8-.46-1.53,0-3.07,0-4.6,0-5.43,0-10.86,0-16.29,0-.48,0-.84.19-1.13.55-.17.21-.31.45-.41.7-.04.1-.06.2-.04.31.06.34.1.69.13,1.04.14,1.48.12,2.95-.11,4.41-.05.31-.02.57.14.83.05.08.08.16.13.23.33.54.78.81,1.44.8,3.41-.02,6.82,0,10.23,0ZM6.66,15.3c.08-.12.14-.22.2-.31.38-.52.86-.81,1.54-.81,6.94,0,13.88,0,20.82,0,.57,0,.98.23,1.29.68.49.7.72,1.5.86,2.33.2,1.17.21,2.35.03,3.52-.14.91-.37,1.79-.92,2.55-.27.38-.62.66-1.12.66-7,0-13.99,0-20.99,0-.6,0-1.06-.26-1.42-.71-.11-.14-.2-.29-.32-.45-.34,1.29-.75,2.52-1.76,3.48.28,0,.54,0,.79,0,8.1,0,16.21,0,24.31,0,.42,0,.76-.15,1.04-.45.44-.46.7-1.02.92-1.6.52-1.39.73-2.85.8-4.33.06-1.37,0-2.73-.26-4.08-.19-1.03-.47-2.03-1-2.95-.39-.67-.9-1.07-1.77-1.06-3.02.04-6.03.02-9.05.02-5.13,0-10.25,0-15.38,0-.12,0-.24,0-.39,0,.99.99,1.43,2.21,1.77,3.51Zm27.4-1.91h0c-.49,0-.99,0-1.48,0-.25,0-.25,0-.16.22.5,1.29.73,2.63.82,4,.06.97.05,1.95-.02,2.92-.09,1.35-.36,2.65-.82,3.92-.06.16-.04.19.12.19,1.01,0,2.03,0,3.04,0,.06,0,.13-.01.19-.03.31-.07.49-.3.65-.55.36-.54.56-1.14.72-1.76.33-1.24.4-2.51.37-3.79-.02-1.29-.19-2.55-.67-3.76-.17-.43-.37-.85-.73-1.16-.15-.13-.33-.21-.53-.2-.5,0-1,0-1.5,0Zm-27.51,5.45c-.02-1.24-.14-2.41-.43-3.56-.25-.97-.58-1.9-1.21-2.7-.31-.4-.68-.72-1.21-.78-.59-.07-1.02.22-1.4.63-.52.57-.83,1.27-1.08,1.99-.42,1.22-.63,2.49-.69,3.77-.1,2.03.13,4.02.88,5.92.26.66.59,1.29,1.16,1.75.42.34.88.49,1.42.29.3-.11.54-.3.75-.53.56-.59.87-1.32,1.12-2.07.52-1.55.69-3.15.69-4.71Z"/>
  <path class="cls-1" d="m21.89,17.84c.03,1.01-.13,1.96-.58,2.85-.51,1.01-1.34,1.64-2.38,2.02-.08.03-.15.01-.22-.01-1.55-.59-2.48-1.7-2.81-3.33-.16-.78-.12-1.57-.12-2.36,0-.14.07-.19.2-.2.97-.02,1.83-.37,2.62-.9.2-.13.33-.1.51.01.66.43,1.36.75,2.15.85.14.02.29.03.43.03.14,0,.21.07.2.21,0,.28,0,.56,0,.82Zm-5.81-.12c0,.48.02.96.11,1.44.27,1.5,1.04,2.6,2.49,3.17.1.04.18.06.29.02,1.07-.42,1.82-1.16,2.24-2.23.36-.93.38-1.89.37-2.86,0-.1-.04-.12-.12-.12-.9-.05-1.7-.4-2.44-.86-.14-.09-.23-.07-.36.01-.74.48-1.54.79-2.43.85-.11,0-.16.03-.15.16.01.14,0,.29,0,.44Z"/>
  <path class="cls-2" d="m7.71,25.66c0,.11-.08.16-.17.17-.11,0-.18-.07-.17-.18,0-.1.06-.17.17-.17.11,0,.17.07.18.18Z"/>
  <path class="cls-8" d="m30.36,24.85c0,.13-.05.19-.15.2-.11,0-.18-.05-.18-.17,0-.1.05-.17.16-.17.11,0,.17.05.18.14Z"/>
  <path class="cls-2" d="m12.14,25.48c.11.01.17.08.16.19,0,.11-.07.16-.18.16-.12,0-.17-.08-.16-.19,0-.1.07-.16.18-.16Z"/>
  <path class="cls-8" d="m29.59,12.41c-.01.11-.08.17-.19.16-.1,0-.16-.07-.16-.17,0-.12.07-.18.18-.18.11,0,.17.07.17.19Z"/>
  <path class="cls-8" d="m24.45,13.01c.11.02.17.07.17.19,0,.11-.07.16-.17.16-.12,0-.18-.07-.18-.18,0-.1.06-.16.17-.17Z"/>
  <path class="cls-2" d="m11.92,13.36c-.11,0-.17-.06-.18-.16,0-.11.05-.19.16-.19.11,0,.18.07.18.18,0,.11-.06.16-.16.17Z"/>
  <path class="cls-8" d="m24.85,25.66c0,.11-.07.16-.17.17-.12,0-.18-.07-.18-.18,0-.1.06-.17.17-.17.11,0,.17.07.18.18Z"/>
  <path class="cls-8" d="m19.17,24.71c.11,0,.17.07.16.18,0,.1-.07.16-.17.16-.11,0-.17-.07-.17-.17,0-.1.06-.18.18-.18Z"/>
  <path class="cls-8" d="m18.93,12.23c.11,0,.17.06.17.18,0,.1-.06.16-.16.17-.12,0-.18-.07-.18-.17,0-.1.06-.17.17-.17Z"/>
  <path class="cls-2" d="m7.48,13.18c0,.1-.06.16-.16.17-.12,0-.18-.05-.18-.16,0-.1.05-.17.16-.17.11,0,.17.06.19.17Z"/>
  <path class="cls-8" d="m13.09,24.86c0,.12-.06.19-.16.19-.1,0-.18-.05-.18-.17,0-.11.07-.17.18-.17.11,0,.15.07.16.15Z"/>
  <path class="cls-5" d="m16.22,24.88c-.01.11-.06.18-.18.17-.11,0-.16-.07-.16-.17,0-.1.05-.18.18-.17.11,0,.15.07.16.17Z"/>
  <path class="cls-5" d="m22.27,12.42c-.01.11-.07.17-.19.16-.1,0-.16-.07-.16-.17,0-.11.06-.18.17-.17.11,0,.17.07.18.18Z"/>
  <path class="cls-8" d="m12.67,12.23c.13,0,.18.07.18.17,0,.11-.06.18-.17.17-.09,0-.16-.06-.16-.17,0-.12.07-.16.15-.17Z"/>
  <path class="cls-5" d="m15.84,12.24c.1,0,.15.07.15.18,0,.1-.07.16-.17.16-.11,0-.17-.07-.17-.17,0-.1.05-.18.19-.18Z"/>
  <path class="cls-5" d="m22.49,24.87c0,.11-.06.18-.17.18-.1,0-.17-.05-.17-.16,0-.11.04-.18.16-.19.11,0,.17.06.19.16Z"/>
  <path class="cls-5" d="m29.34,13.2c0,.09-.06.16-.16.16-.11,0-.18-.06-.18-.18,0-.1.06-.16.17-.17.11,0,.17.06.17.19Z"/>
  <path class="cls-5" d="m29.4,25.48c.12.01.17.08.17.19,0,.1-.07.17-.17.16-.11,0-.17-.07-.17-.19,0-.1.07-.15.17-.16Z"/>
  <path class="cls-5" d="m21.46,13.12c0,.16-.05.22-.15.23-.11,0-.18-.06-.18-.17,0-.11.06-.17.16-.17.11,0,.17.06.18.12Z"/>
  <path class="cls-5" d="m25.29,12.24c.07,0,.13.06.13.17,0,.1-.06.17-.16.17-.11,0-.18-.06-.18-.17,0-.1.05-.17.21-.17Z"/>
  <path class="cls-5" d="m25.5,24.71c.08,0,.14.06.14.17,0,.1-.06.17-.16.17-.11,0-.18-.07-.18-.18,0-.1.05-.17.2-.17Z"/>
  <path class="cls-5" d="m21.69,25.65c0,.11-.06.17-.16.17-.11,0-.18-.06-.18-.17,0-.11.06-.17.16-.17.11,0,.17.06.18.17Z"/>
  <path class="cls-5" d="m18.56,25.66c0,.11-.05.17-.16.17-.11,0-.18-.07-.18-.18,0-.1.06-.17.16-.17.11,0,.18.06.17.18Z"/>
  <path class="cls-5" d="m18.34,13.18c0,.12-.06.17-.16.17-.11,0-.18-.07-.18-.18,0-.1.07-.17.17-.17.11,0,.18.06.17.17Z"/>
  <path class="cls-2" d="m6.18,25.66c0,.1-.07.16-.17.17-.11,0-.17-.07-.17-.18,0-.1.06-.17.16-.17.11,0,.17.07.17.18Z"/>
  <path class="cls-8" d="m14.43,12.4c0,.11-.06.18-.16.18-.11,0-.18-.05-.18-.17,0-.11.06-.17.18-.17.11,0,.15.07.17.16Z"/>
  <path class="cls-8" d="m14.66,24.88c-.01.11-.07.17-.17.17-.11,0-.18-.06-.17-.18,0-.11.07-.17.18-.16.11,0,.15.08.16.17Z"/>
  <path class="cls-2" d="m23.11,25.83c-.1,0-.17-.05-.18-.16,0-.11.04-.19.16-.19.1,0,.17.05.18.16.01.12-.05.17-.16.19Z"/>
  <path class="cls-8" d="m13.46,13.01c.1.02.17.07.16.19,0,.11-.07.16-.17.16-.11,0-.17-.07-.16-.18,0-.1.07-.15.17-.16Z"/>
  <path class="cls-1" d="m26.09,25.61c0-.07.06-.13.16-.13.11,0,.18.06.18.18,0,.12-.08.17-.19.17-.11,0-.16-.07-.15-.21Z"/>
  <path class="cls-2" d="m20.51,12.24c.12,0,.19.07.18.18,0,.11-.07.17-.18.17-.1,0-.16-.06-.16-.17,0-.12.06-.17.16-.18Z"/>
  <path class="cls-5" d="m17.23,12.38c0-.09.06-.14.17-.14.12,0,.17.07.17.18,0,.11-.07.16-.17.16-.11,0-.17-.07-.17-.2Z"/>
  <path class="cls-2" d="m15.04,13.35c-.1,0-.17-.05-.18-.16,0-.11.05-.18.16-.19.1,0,.17.06.17.16,0,.11-.05.17-.16.19Z"/>
  <path class="cls-2" d="m23.84,12.39c0,.13-.07.18-.17.19-.11,0-.18-.05-.17-.17,0-.1.05-.16.16-.17.12,0,.16.07.18.15Z"/>
  <path class="cls-2" d="m28,25.65c0,.11-.05.17-.16.17-.11,0-.18-.06-.18-.17,0-.1.06-.17.16-.17.11,0,.18.05.18.17Z"/>
  <path class="cls-2" d="m28.57,12.38c0,.13-.06.19-.16.2-.1,0-.17-.05-.18-.16,0-.11.05-.18.17-.18.11,0,.16.06.17.14Z"/>
  <path class="cls-5" d="m17.46,24.88c0-.1.05-.16.16-.16.12,0,.18.06.18.17,0,.11-.07.16-.16.17-.11,0-.17-.06-.18-.18Z"/>
  <path class="cls-2" d="m27.77,13.19c0,.11-.06.16-.16.17-.12,0-.18-.07-.18-.17,0-.1.06-.16.16-.17.11,0,.17.06.17.17Z"/>
  <path class="cls-2" d="m22.85,13c.12.02.19.07.19.18,0,.11-.06.17-.16.17-.11,0-.17-.06-.17-.18,0-.11.06-.16.15-.18Z"/>
  <path class="cls-2" d="m19.72,13c.1.01.16.06.17.17,0,.11-.06.19-.17.19-.1,0-.17-.05-.17-.16,0-.12.06-.17.17-.19Z"/>
  <path class="cls-1" d="m26.01,13.01c.11,0,.18.06.19.17,0,.1-.06.17-.16.17-.11,0-.18-.05-.18-.17,0-.11.05-.16.16-.18Z"/>
  <path class="cls-2" d="m20.58,24.88c0-.12.06-.17.18-.17.11,0,.17.07.17.18,0,.1-.07.16-.17.16-.11,0-.17-.06-.17-.17Z"/>
  <path class="cls-2" d="m24.07,24.87c0,.12-.06.18-.16.18-.11,0-.18-.05-.18-.17,0-.1.04-.17.15-.17.12,0,.17.06.19.16Z"/>
  <path class="cls-2" d="m28.8,24.86c0,.13-.06.18-.16.18-.1,0-.17-.05-.17-.16,0-.11.05-.18.17-.18.11,0,.15.07.16.15Z"/>
  <path class="cls-9" d="m10.58,25.48c.11.01.17.08.17.19,0,.11-.08.16-.18.16-.1,0-.16-.07-.16-.18,0-.11.06-.16.16-.17Z"/>
  <path class="cls-8" d="m13.68,25.83c-.1,0-.16-.06-.17-.16,0-.11.05-.18.17-.18.1,0,.16.05.17.16,0,.12-.06.17-.17.18Z"/>
  <path class="cls-2" d="m15.27,25.47c.11.02.17.08.16.19,0,.1-.07.16-.17.16-.1,0-.16-.06-.16-.17,0-.11.06-.17.17-.18Z"/>
  <path class="cls-2" d="m20.12,25.64c0,.11-.05.18-.16.19-.11,0-.18-.05-.19-.17,0-.12.06-.18.17-.18.1,0,.16.07.17.16Z"/>
  <path class="cls-2" d="m9.86,12.42c0,.1-.07.16-.17.16-.1,0-.17-.07-.17-.17,0-.09.05-.17.16-.17.11,0,.17.07.17.18Z"/>
  <path class="cls-5" d="m27,12.4c-.01.1-.06.18-.17.18-.1,0-.17-.06-.17-.16,0-.1.04-.17.15-.18.12,0,.17.05.19.16Z"/>
  <path class="cls-5" d="m27.02,24.71c.13,0,.19.06.19.17,0,.1-.06.17-.16.17-.1,0-.17-.05-.17-.16,0-.11.04-.18.14-.19Z"/>
  <path class="cls-2" d="m9.92,24.71c.1,0,.16.06.16.16,0,.11-.05.17-.15.18-.11,0-.18-.06-.18-.17,0-.09.05-.17.17-.17Z"/>
  <path class="cls-8" d="m9.09,25.47c.1.02.17.07.17.18,0,.12-.08.17-.18.16-.1,0-.16-.08-.15-.18,0-.09.05-.17.17-.17Z"/>
  <path class="cls-8" d="m8.86,13.35c-.11,0-.17-.07-.17-.16,0-.1.04-.19.17-.18.11,0,.17.07.17.18,0,.11-.07.15-.17.16Z"/>
  <path class="cls-2" d="m11.3,12.36c0,.16-.06.21-.16.22-.11,0-.18-.06-.18-.17,0-.1.05-.16.16-.17.11,0,.17.06.17.12Z"/>
  <path class="cls-2" d="m11.53,24.83c0,.15-.06.21-.16.21-.11,0-.18-.06-.18-.17,0-.1.05-.16.16-.17.12,0,.17.06.17.13Z"/>
  <path class="cls-8" d="m6.89,14.15c-.12,0-.18-.07-.18-.17,0-.1.05-.18.17-.18.12,0,.17.08.17.18,0,.1-.07.15-.15.17Z"/>
  <path class="cls-2" d="m17,25.63c0,.12-.06.19-.16.19-.11,0-.18-.05-.18-.17,0-.11.05-.17.16-.18.11,0,.17.06.19.15Z"/>
  <path class="cls-9" d="m10.35,13.35c-.1,0-.16-.06-.16-.16,0-.1.05-.17.15-.18.11,0,.18.06.18.17,0,.11-.06.16-.17.17Z"/>
  <path class="cls-2" d="m16.61,13.35c-.12-.01-.18-.08-.17-.19,0-.11.07-.16.17-.16.11,0,.17.07.17.19,0,.11-.07.15-.17.16Z"/>
  <path class="cls-5" d="m8.26,12.39c-.02.1-.07.16-.18.16-.11,0-.16-.08-.15-.18,0-.1.06-.17.17-.16.11,0,.14.09.16.18Z"/>
  <path class="cls-5" d="m6.88,23.73c.11,0,.16.08.16.18,0,.1-.06.17-.16.17-.11,0-.16-.07-.16-.17,0-.09.05-.17.16-.17Z"/>
  <path class="cls-5" d="m8.64,24.9c0,.12-.05.18-.15.19-.1,0-.17-.06-.17-.16,0-.1.04-.18.16-.18.11,0,.15.06.16.15Z"/>
  <path class="cls-1" d="m30.7,12.98c0,.11-.06.16-.16.16-.1,0-.16-.05-.16-.16,0-.11.05-.16.16-.16.11,0,.16.06.16.16Z"/>
  <path class="cls-1" d="m31.69,22.48c0,.11-.06.16-.16.16-.1,0-.16-.05-.16-.16,0-.11.05-.16.16-.16.11,0,.16.06.16.16Z"/>
  <path class="cls-1" d="m32.26,19.65c0,.1-.07.15-.17.14-.1,0-.16-.07-.15-.18,0-.11.07-.16.17-.15.11,0,.15.08.15.19Z"/>
  <path class="cls-1" d="m32.07,21.13c0,.11-.07.15-.17.14-.1,0-.16-.07-.15-.18,0-.11.07-.16.17-.15.11,0,.15.08.15.18Z"/>
  <path class="cls-1" d="m31.31,23.89c0,.11-.06.16-.16.16-.1,0-.16-.06-.16-.17,0-.11.05-.16.16-.16.11,0,.16.06.16.17Z"/>
  <path class="cls-1" d="m31.31,14.2c0,.15-.07.2-.17.19-.1,0-.16-.07-.15-.17,0-.11.06-.16.17-.15.11,0,.15.07.15.13Z"/>
  <path class="cls-1" d="m32.26,16.67c0,.11-.06.16-.16.16-.1,0-.16-.06-.16-.17,0-.11.05-.16.16-.16.11,0,.16.06.16.17Z"/>
  <path class="cls-1" d="m31.88,15.2c0,.14-.07.19-.17.18-.1,0-.16-.07-.15-.18,0-.11.07-.16.17-.15.11,0,.15.08.15.15Z"/>
  <path class="cls-1" d="m32.26,18.17c0,.1-.07.14-.17.14-.1,0-.16-.07-.15-.18,0-.11.07-.16.17-.15.11,0,.15.08.15.19Z"/>
  <path class="cls-5" d="m6.74,12.4c0,.1-.06.17-.15.17-.09,0-.17-.07-.16-.17,0-.11.06-.19.17-.18.11,0,.13.1.14.19Z"/>
  <path class="cls-5" d="m6.97,24.85c0,.12-.06.19-.15.19-.09,0-.17-.06-.17-.17,0-.11.06-.19.17-.19.11,0,.12.11.15.17Z"/>
  <path class="cls-1" d="m35.26,20.98c.23,0,.47,0,.7,0,.15,0,.26.06.28.22.01.13-.11.23-.29.23-.46,0-.92,0-1.38,0-.19,0-.29-.09-.28-.24.01-.18.13-.23.29-.22.23,0,.45,0,.68,0h0Z"/>
  <path class="cls-7" d="m35.27,19.82c.23,0,.47,0,.7,0,.15,0,.26.05.27.22,0,.15-.09.24-.27.24-.47,0-.95,0-1.42,0-.16,0-.26-.06-.26-.23,0-.16.1-.23.26-.23.24,0,.48,0,.72,0h0Z"/>
  <path class="cls-4" d="m35.24,22.13c.23,0,.46,0,.68,0,.19,0,.33.11.31.25-.02.18-.15.21-.3.21-.45,0-.9,0-1.35,0-.21,0-.3-.08-.29-.23,0-.18.12-.23.29-.22.22,0,.44,0,.66,0h0Z"/>
  <path class="cls-7" d="m5.98,19.33c-.05,1.36-.19,2.71-.68,4-.17.46-.38.9-.71,1.27-.65.73-1.51.72-2.14-.03-.33-.4-.55-.86-.72-1.35-.32-.85-.48-1.74-.57-2.64-.16-1.7-.1-3.39.33-5.05.2-.77.46-1.52.99-2.13.34-.39.76-.62,1.29-.51.3.06.55.22.75.45.39.42.63.91.82,1.44.37,1.07.55,2.17.6,3.29.02.42.03.84.03,1.25Zm-4.39-.39c.01,1.17.11,2.27.39,3.36.17.65.38,1.27.77,1.82.49.69,1.1.69,1.59,0,0-.01.01-.02.02-.03.19-.28.33-.58.45-.9.44-1.17.61-2.4.65-3.65.05-1.53-.07-3.05-.57-4.51-.16-.48-.37-.93-.7-1.31-.39-.44-.84-.45-1.25-.05-.39.39-.6.89-.77,1.4-.42,1.27-.58,2.59-.58,3.87Z"/>
  <path class="cls-3" d="m16.08,17.72c0-.15,0-.29,0-.44,0-.12.04-.15.15-.16.89-.06,1.69-.38,2.43-.85.12-.08.22-.1.36-.01.75.47,1.55.81,2.44.86.08,0,.12.03.12.12.01.97,0,1.94-.37,2.86-.42,1.08-1.17,1.81-2.24,2.23-.11.04-.19.02-.29-.02-1.45-.57-2.22-1.67-2.49-3.17-.09-.48-.11-.96-.11-1.44Zm1.34,2.11c0,1.06,1.18,1.76,2.11,1.24.69-.38.95-1.14.63-1.89-.3-.71-.75-1.33-1.17-1.97-.1-.15-.21-.14-.33.02-.35.5-.68,1.02-.96,1.57-.16.32-.29.66-.29,1.03Z"/>
  <path class="cls-9" d="m17.42,19.83c0-.37.13-.71.29-1.03.28-.55.61-1.06.96-1.57.11-.16.22-.17.33-.02.42.64.87,1.26,1.17,1.97.31.75.06,1.51-.63,1.89-.93.51-2.11-.19-2.11-1.24Zm.3-.01s0,.11.01.16c.11.65.73,1.06,1.38.9.64-.15,1.01-.77.81-1.4-.22-.69-.64-1.27-1.02-1.87-.05-.08-.08-.06-.13.02-.33.51-.67,1.03-.91,1.59-.08.19-.14.38-.14.59Z"/>
  <path class="cls-6" d="m17.72,19.82c0-.21.06-.41.14-.59.24-.56.58-1.08.91-1.59.05-.07.08-.1.13-.02.38.6.81,1.18,1.02,1.87.2.63-.17,1.25-.81,1.4-.65.15-1.27-.25-1.38-.9,0-.06,0-.11-.01-.16Zm.9.83c.07,0,.15-.03.15-.08.01-.08-.03-.12-.1-.14-.28-.09-.44-.28-.47-.58,0-.06-.06-.11-.14-.11-.07,0-.11.05-.12.12-.05.31.34.78.66.78Z"/>
  <path class="cls-8" d="m18.62,20.65c-.32,0-.71-.47-.66-.78.01-.07.05-.12.12-.12.07,0,.13.04.14.11.03.3.19.48.47.58.06.02.11.07.1.14,0,.05-.08.09-.15.08Z"/>
</svg>