<?xml version="1.0" encoding="UTF-8"?>
<svg id="zvpdvtz" xmlns="http://www.w3.org/2000/svg" viewBox="0 0 38 38">
  <defs>
    <style>
      .cls-1 {
        fill: #09537a;
      }

      .cls-1, .cls-2, .cls-3, .cls-4, .cls-5, .cls-6, .cls-7, .cls-8 {
        stroke-width: 0px;
      }

      .cls-2 {
        fill: #417996;
      }

      .cls-3 {
        fill: #0a537a;
      }

      .cls-4 {
        fill: #fcfdfd;
      }

      .cls-5 {
        fill: #246587;
      }

      .cls-6 {
        fill: #0e557b;
      }

      .cls-7 {
        fill: #0e547a;
      }

      .cls-8 {
        fill: #195b81;
      }
    </style>
  </defs>
  <path class="cls-1" d="m37.5,19.43c-.1.54-.2,1.08-.32,1.62-.17.8-.47,1.54-1,2.17-.37.44-.83.68-1.43.67-1.2-.02-2.39,0-3.59,0-.28,0-.46.11-.61.34-.76,1.09-1.78,1.69-3.15,1.69-5.88-.01-11.76-.02-17.64,0-1.25,0-2.07-.57-2.64-1.59-.17-.31-.38-.41-.72-.4-1.09.03-2.18.04-3.28.03-.65,0-1.12-.36-1.48-.87-.73-1.04-.96-2.23-1.06-3.46,0-.12.07-.26-.08-.35v-.7c.14-.07.07-.21.08-.31.12-1.16.38-2.27,1.03-3.26.42-.64,1.01-.97,1.8-.95,1.04.02,2.08,0,3.11,0,.17,0,.34.01.44-.17.48-.91,1.19-1.53,2.21-1.78h.23c.11.13.27.07.4.07,5.92,0,11.85,0,17.77,0,.14,0,.29.06.4-.07.08,0,.16,0,.23,0,.01.02.02.06.04.06,1.06.18,1.8.82,2.39,1.66.13.19.27.24.48.24,1.2,0,2.39,0,3.59,0,.75,0,1.3.31,1.68.94.42.68.7,1.41.89,2.19.09.38.07.79.22,1.16v1.09Zm-26.64,5.86h.5c5.18,0,10.35,0,15.53,0,.43,0,.86.04,1.28-.05,1.1-.23,1.81-.97,2.29-1.9,1.4-2.76,1.48-5.6.22-8.41-.69-1.54-1.89-2.31-3.68-2.3-5.23.05-10.46.02-15.68.02h-.48c1.8,1.78,2.21,3.98,2.2,6.27,0,2.31-.43,4.53-2.18,6.37Zm-6.46-1.95c.18,0,.3,0,.43,0,1.05,0,2.11-.04,3.16.02.71.04,1.15-.28,1.51-.82.15-.23.27-.47.36-.73.47-1.21.57-2.48.45-3.75-.1-.98-.32-1.94-.89-2.78-.34-.49-.76-.71-1.35-.68-.31.02-.62,0-.94,0-.82,0-1.64,0-2.45.02-.12,0-.4-.08-.19.22.8,1.09,1.06,2.35,1.13,3.66.09,1.7-.15,3.34-1.22,4.85Zm28.73,0c.45,0,.91-.03,1.36,0,.6.05,1.02-.21,1.37-.66.18-.24.34-.49.45-.77.5-1.19.66-2.43.53-3.7-.11-1.11-.33-2.18-1.06-3.08-.26-.32-.58-.53-.99-.54-1.13,0-2.26,0-3.39,0-.26,0-.2.12-.14.26.13.33.28.65.37.98.69,2.43.59,4.82-.38,7.16-.12.3-.05.35.24.34.55-.02,1.09,0,1.64,0Zm-25.6.55c.13.3.3.51.48.71.72.82,1.63.9,2.48.21.44-.36.75-.82,1.01-1.32.52-.99.77-2.06.9-3.16.22-1.98.04-3.91-.82-5.74-.38-.81-.91-1.48-1.78-1.81-.19-.07-.39-.15-.6-.09-.75.19-1.27.65-1.67,1.36.16,0,.26.01.35,0,1.14-.15,1.82.44,2.3,1.41.55,1.13.72,2.32.72,3.55,0,1.44-.25,2.81-1.07,4.04-.38.57-.89.9-1.6.86-.22-.01-.43,0-.69,0Zm-6.43-4.9c-.02.63.07,1.24.19,1.86.16.8.42,1.55,1,2.16.5.53,1.05.54,1.55.03.31-.32.55-.69.71-1.1.53-1.36.62-2.77.43-4.21-.12-.91-.38-1.77-.94-2.52-.57-.77-1.36-.75-1.91.03-.8,1.13-.99,2.43-1.03,3.76Z"/>
  <path class="cls-2" d="m27.98,12.09c-.11.13-.27.07-.4.07-5.92,0-11.85,0-17.77,0-.14,0-.29.06-.4-.07h18.58Z"/>
  <path class="cls-6" d="m25.62,17.2c-.04,1.1-.13,2.28-.57,3.4-.76,1.96-2.24,3.16-4.17,3.87-.19.07-.38.04-.57-.03-2.76-.99-4.44-3.23-4.62-6.15-.05-.86-.02-1.71-.04-2.57,0-.2.08-.35.29-.34,1.43.09,2.65-.53,3.76-1.28.71-.48,1.19-.47,1.86.01.81.59,1.74.98,2.73,1.2.28.06.57.08.85.06.34-.02.47.14.47.46,0,.43,0,.85,0,1.37Zm-9.45.07c0,.49,0,1.04.09,1.58.37,2.44,1.73,4.08,3.98,5.02.22.09.45.13.68.03,1.72-.7,3.05-1.82,3.69-3.61.47-1.31.56-2.69.54-4.07,0-.23-.08-.36-.35-.35-.22,0-.44-.04-.66-.08-1.15-.23-2.17-.78-3.14-1.41-.28-.18-.48-.19-.76,0-.93.62-1.92,1.12-3.02,1.4-.35.09-.85-.08-1.02.24-.16.3-.05.74-.05,1.11,0,.03,0,.05.02.13Z"/>
  <path class="cls-8" d="m8.76,24.35c0,.13-.07.22-.21.22-.12,0-.18-.08-.19-.2,0-.11.03-.21.16-.22.14-.01.22.06.24.2Z"/>
  <path class="cls-5" d="m9.37,24.5c.16,0,.24.07.24.18,0,.12-.08.2-.2.19-.1,0-.17-.06-.18-.17-.01-.13.05-.19.13-.21Z"/>
  <path class="cls-5" d="m9.52,13.34c-.02.1-.06.18-.17.17-.12-.01-.18-.1-.17-.22,0-.1.08-.17.18-.17.13,0,.17.1.17.22Z"/>
  <path class="cls-2" d="m11.64,20.18c-.02.09-.04.18-.16.18-.11,0-.17-.07-.17-.17,0-.12.06-.2.18-.2.11,0,.14.09.16.19Z"/>
  <path class="cls-8" d="m8.67,13.34c.12,0,.19.07.2.19,0,.12-.07.19-.19.19-.12,0-.19-.08-.2-.19,0-.12.06-.19.19-.19Z"/>
  <path class="cls-5" d="m11.98,20.64c.13.03.16.12.15.23,0,.11-.06.17-.17.16-.13-.01-.16-.11-.15-.22,0-.11.07-.16.16-.17Z"/>
  <path class="cls-5" d="m11.9,16.07c0,.11-.04.21-.17.2-.11,0-.13-.1-.13-.19,0-.1.04-.17.15-.18.11,0,.16.06.15.17Z"/>
  <path class="cls-5" d="m11.47,17.63c.11,0,.16.07.16.17,0,.1-.05.18-.15.18-.1,0-.17-.07-.17-.17,0-.1.05-.17.16-.18Z"/>
  <path class="cls-5" d="m12.12,19.34c.15,0,.19.08.18.18,0,.09-.03.2-.14.2-.12,0-.17-.1-.18-.21,0-.11.05-.17.13-.17Z"/>
  <path class="cls-5" d="m10.79,15.14c-.02.1-.07.17-.17.16-.14,0-.15-.11-.14-.22,0-.1.04-.18.16-.17.13.01.14.12.16.22Z"/>
  <path class="cls-8" d="m10.17,23.13c0-.09.01-.18.12-.2.12-.01.19.05.19.17,0,.11-.04.21-.17.2-.1,0-.15-.08-.15-.18Z"/>
  <path class="cls-8" d="m10.33,23.98c.12.03.17.11.16.23-.01.11-.08.16-.18.15-.12-.01-.13-.11-.13-.2,0-.1.06-.16.16-.18Z"/>
  <path class="cls-5" d="m10.32,13.46c0,.11-.08.16-.18.15-.11-.01-.14-.09-.14-.19,0-.11.06-.17.17-.15.1.01.14.1.14.19Z"/>
  <path class="cls-5" d="m10.05,14.37c-.16,0-.22-.05-.23-.16,0-.1.05-.17.16-.18.1,0,.14.07.15.15.02.1-.02.18-.09.19Z"/>
  <path class="cls-8" d="m11.62,21.84c.11,0,.17.06.18.16.02.12-.03.21-.15.22-.11,0-.15-.08-.15-.18,0-.09,0-.19.13-.19Z"/>
  <path class="cls-5" d="m11.12,22.21c0,.1-.05.17-.16.17-.1,0-.16-.07-.16-.18,0-.11.06-.17.16-.17.1,0,.15.07.15.18Z"/>
  <path class="cls-5" d="m11.15,23.53c-.13-.02-.19-.08-.18-.18,0-.1.06-.17.17-.16.11,0,.14.08.15.18,0,.11-.07.15-.13.17Z"/>
  <path class="cls-8" d="m11.12,15.77c0,.11-.05.17-.16.16-.08,0-.14-.06-.15-.15,0-.1.03-.18.15-.18.11,0,.16.07.16.17Z"/>
  <path class="cls-8" d="m12.22,17.19c0,.09-.05.14-.14.14-.11,0-.17-.05-.17-.16,0-.11.06-.17.17-.17.12,0,.14.09.15.18Z"/>
  <path class="cls-5" d="m11.47,18.95c.11,0,.16.08.16.18,0,.08-.04.15-.14.16-.11,0-.17-.06-.18-.16,0-.1.05-.17.16-.18Z"/>
  <path class="cls-8" d="m11.12,14.42c0,.1-.08.14-.18.12-.08-.01-.14-.07-.13-.17,0-.11.05-.18.17-.17.11,0,.15.09.15.21Z"/>
  <path class="cls-8" d="m9.56,24.11c-.11,0-.16-.08-.16-.18,0-.11.08-.16.18-.15.09,0,.13.07.13.16,0,.11-.04.17-.16.17Z"/>
  <path class="cls-3" d="m4.67,18.62c-.02,1.37-.14,2.37-.63,3.29-.2.38-.47.66-.92.67-.47.01-.77-.26-.98-.65-.63-1.18-.69-2.45-.59-3.75.05-.68.23-1.33.52-1.94.21-.43.49-.77,1.03-.76.52.02.82.32,1.03.77.4.86.53,1.78.54,2.37Zm-.57.41c-.01-.82-.07-1.64-.43-2.39-.12-.26-.25-.6-.59-.61-.34,0-.45.34-.55.59-.66,1.59-.64,3.18-.03,4.78.1.27.27.61.59.61.32,0,.46-.35.58-.62.33-.75.44-1.54.43-2.36Z"/>
  <path class="cls-4" d="m16.18,17.27c0-.08-.02-.1-.02-.13,0-.38-.1-.81.05-1.11.17-.33.67-.16,1.02-.24,1.1-.28,2.09-.77,3.02-1.4.28-.19.49-.18.76,0,.97.63,1.99,1.18,3.14,1.41.22.04.44.08.66.08.27,0,.34.13.35.35.02,1.38-.07,2.75-.54,4.07-.65,1.8-1.97,2.91-3.69,3.61-.23.09-.46.06-.68-.03-2.25-.94-3.61-2.59-3.98-5.02-.08-.54-.09-1.09-.09-1.58Zm6.44.3c-.06-.19.02-.34.04-.49.01-.13-.01-.24-.15-.28-.16-.05-.25.06-.29.18-.06.2-.1.4-.14.6-.03.14-.02.3-.15.39-.33.21-.68.4-1.03.6-.09-.76-.13-1.46.62-1.89.02-.01.04-.03.05-.06.07-.1.13-.2.03-.31-.1-.1-.2-.09-.32-.03-.14.07-.22.25-.41.28,0-.22,0-.41,0-.61,0-.15-.08-.26-.23-.26-.16,0-.22.11-.22.26,0,.2,0,.4,0,.67-.17-.14-.27-.23-.38-.31-.11-.08-.24-.12-.35,0-.1.12-.07.24.04.34.06.05.11.12.17.16.75.42.49,1.1.5,1.73-.71-.3-1.34-.63-1.33-1.51,0-.01,0-.03-.01-.04-.04-.13-.11-.25-.27-.22-.17.03-.19.15-.17.3.02.15.05.3.09.51-.22-.12-.4-.22-.58-.31-.13-.06-.26-.07-.34.07-.08.14-.02.25.11.33.17.1.35.2.58.33-.21.09-.35.14-.49.2-.13.06-.21.15-.15.3.06.14.17.15.29.11.22-.07.44-.14.66-.22.12-.04.24-.09.37,0,.33.2.67.39,1,.58-.62.46-1.22.85-1.99.38-.02-.01-.05-.01-.08-.01-.13-.02-.23,0-.27.15-.04.14.03.22.15.27.15.06.3.11.5.19-.23.14-.41.24-.58.35-.12.08-.19.19-.1.33.08.14.21.13.34.06.18-.09.35-.19.57-.3-.03.22-.06.38-.09.55-.01.12.04.21.15.24.14.04.23-.03.27-.16.06-.21.1-.43.16-.64.04-.13.02-.3.16-.38.34-.2.69-.39,1.03-.58.1.76.13,1.45-.62,1.88-.02.01-.04.04-.05.06-.09.1-.11.21-.03.31.09.1.2.09.32.02.14-.08.22-.25.42-.29,0,.21,0,.4,0,.6,0,.15.04.27.2.28.18.01.26-.09.26-.27,0-.2,0-.4,0-.64.09.06.11.08.15.1.18.11.35.45.57.19.21-.25-.14-.38-.28-.54-.02-.02-.04-.03-.06-.05-.12-.14-.36-.21-.37-.43-.02-.39-.04-.79.02-1.18.67.31,1.32.6,1.3,1.47,0,.01,0,.03,0,.04.04.15.12.27.3.23.16-.04.17-.18.15-.32-.02-.14-.1-.27-.02-.44.15.08.29.16.44.24.14.07.3.17.41-.02.13-.21-.05-.29-.19-.4-.14-.1-.33-.13-.42-.31.04-.02.06-.03.09-.04.19-.11.6-.07.47-.42-.12-.31-.4-.04-.61,0-.25.04-.48.24-.75.08-.31-.18-.63-.36-.95-.54.61-.45,1.2-.87,1.97-.4.01,0,.02.01.04.01.13.03.27.05.32-.12.05-.15-.03-.25-.16-.31-.13-.06-.3-.07-.43-.21.15-.09.29-.17.42-.25.15-.09.33-.17.22-.38-.12-.24-.31-.1-.47-.02-.14.07-.26.15-.4.23Z"/>
  <path class="cls-7" d="m22.62,17.57c.14-.08.27-.16.4-.23.16-.08.34-.22.47.02.11.21-.08.3-.22.38-.13.08-.26.16-.42.25.14.14.3.15.43.21.13.06.21.16.16.31-.05.17-.19.14-.32.12-.01,0-.03,0-.04-.01-.77-.47-1.37-.06-1.97.4.32.18.63.36.95.54.27.15.5-.04.75-.08.21-.03.49-.31.61,0,.13.35-.28.31-.47.42-.02.01-.04.02-.09.04.09.18.29.21.42.31.13.1.32.19.19.4-.11.19-.27.09-.41.02-.15-.08-.29-.16-.44-.24-.08.17,0,.3.02.44.02.14,0,.27-.15.32-.18.05-.26-.07-.3-.23,0-.01,0-.03,0-.04.02-.87-.63-1.16-1.3-1.47-.07.4-.04.79-.02,1.18.01.21.25.28.37.43.02.02.04.03.06.05.14.16.49.29.28.54-.22.26-.39-.07-.57-.19-.03-.02-.06-.04-.15-.1,0,.24,0,.44,0,.64,0,.17-.08.28-.26.27-.17-.01-.21-.13-.2-.28,0-.19,0-.38,0-.6-.2.04-.28.21-.42.29-.11.07-.23.08-.32-.02-.09-.1-.07-.22.03-.31.02-.02.03-.04.05-.06.75-.42.73-1.12.62-1.88-.35.19-.69.38-1.03.58-.14.08-.12.25-.16.38-.06.21-.1.43-.16.64-.04.13-.13.19-.27.16-.11-.03-.16-.12-.15-.24.02-.17.05-.33.09-.55-.22.11-.39.21-.57.3-.13.07-.26.08-.34-.06-.08-.14-.02-.25.1-.33.17-.11.35-.21.58-.35-.21-.08-.35-.13-.5-.19-.12-.05-.19-.13-.15-.27.04-.15.15-.17.27-.15.03,0,.06,0,.08.01.77.47,1.38.08,1.99-.38-.33-.19-.67-.38-1-.58-.13-.08-.25-.03-.37,0-.22.08-.44.15-.66.22-.12.04-.24.03-.29-.11-.06-.16.02-.25.15-.3.14-.06.28-.12.49-.2-.23-.13-.41-.23-.58-.33-.13-.08-.18-.19-.11-.33.08-.14.21-.14.34-.07.18.09.36.19.58.31-.04-.21-.06-.36-.09-.51-.02-.14,0-.27.17-.3.17-.03.23.09.27.22,0,.01.01.02.01.04,0,.87.62,1.21,1.33,1.51-.01-.63.25-1.31-.5-1.73-.07-.04-.12-.1-.17-.16-.11-.1-.14-.23-.04-.34.11-.12.24-.08.35,0,.11.08.22.18.38.31,0-.26,0-.47,0-.67,0-.15.07-.26.22-.26.15,0,.23.11.23.26,0,.19,0,.39,0,.61.2-.03.27-.21.41-.28.12-.06.22-.08.32.03.11.11.04.21-.03.31-.01.02-.03.04-.05.06-.75.42-.71,1.13-.62,1.89.35-.2.69-.39,1.03-.6.13-.08.12-.25.15-.39.05-.2.08-.41.14-.6.04-.13.13-.23.29-.18.14.04.16.16.15.28-.01.15-.1.3-.04.49Z"/>
</svg>