<?xml version="1.0" encoding="UTF-8"?>
<svg id="_Слой_6" data-name="Слой 6" xmlns="http://www.w3.org/2000/svg" viewBox="0 0 76.42 42">
  <defs>
    <style>
      .cls-1 {
        stroke-linejoin: round;
      }

      .cls-1, .cls-2 {
        fill-rule: evenodd;
      }

      .cls-1, .cls-2, .cls-3 {
        fill: none;
        stroke: #004e79;
        stroke-linecap: round;
      }

      .cls-2, .cls-3 {
        stroke-miterlimit: 22.93;
      }
    </style>
  </defs>
  <line class="cls-3" x1="11.82" y1="41.47" x2="18.44" y2="41.47"/>
  <line class="cls-3" x1="22.41" y1="41.47" x2="55.9" y2="41.47"/>
  <polyline class="cls-1" points="62.83 38.3 62.83 32.75 56.03 32.77 56.08 41.43"/>
  <path class="cls-1" d="m59.54,20.38l-12.11,9.46c-1.89,1.09-3.22-.5-2.8-1.73l14.87-11.48,14.51,11.39c.48,1.13-1,2.28-2.26,1.75l-12.22-9.4Z"/>
  <polyline class="cls-1" points="47.76 25.23 47.7 16.4 51.48 16.4 51.48 22.73"/>
  <line class="cls-3" x1="48.93" y1="29.25" x2="48.96" y2="41.14"/>
  <line class="cls-3" x1="69.42" y1="28.74" x2="69.45" y2="40.64"/>
  <line class="cls-3" x1="62.54" y1="41.5" x2="73.23" y2="41.5"/>
  <g>
    <path class="cls-1" d="m31.76,37.91l-24.43.05c-8.17-1.93-5.38-11.73,1.22-11.35,1.44-8.23,12.91-9.73,15.34-1.85,3.74-1.26,6.68.15,7.01,3.57,6.13-1.32,8.8,8.24.86,9.59Z"/>
    <path class="cls-2" d="m27.92,18.02c-.74-1.12-1.13-2.42-1.13-3.74,0-3.81,3.16-6.9,7.05-6.9s7.05,3.09,7.05,6.9-3.16,6.9-7.05,6.9c-.65,0-1.3-.09-1.93-.26"/>
    <line class="cls-3" x1="19.74" y1="14.21" x2="23.54" y2="14.16"/>
    <line class="cls-3" x1="24.58" y1="5.73" x2="26.52" y2="7.14"/>
    <line class="cls-3" x1="33.89" y1=".5" x2="33.8" y2="4.53"/>
    <line class="cls-3" x1="43.3" y1="5.61" x2="41.13" y2="7.38"/>
    <line class="cls-3" x1="43.01" y1="23.35" x2="40.87" y2="21.55"/>
    <line class="cls-3" x1="43.76" y1="14.21" x2="47.56" y2="14.16"/>
  </g>
</svg>