<?xml version="1.0" encoding="UTF-8"?>
<svg id="_Слой_9" data-name="Слой 9" xmlns="http://www.w3.org/2000/svg" viewBox="0 0 76.42 42">
  <defs>
    <style>
      .cls-1, .cls-2 {
        fill-rule: evenodd;
      }

      .cls-1, .cls-2, .cls-3, .cls-4, .cls-5, .cls-6 {
        fill: none;
        stroke: #004e79;
      }

      .cls-1, .cls-2, .cls-4, .cls-5, .cls-6 {
        stroke-linecap: round;
      }

      .cls-1, .cls-4 {
        stroke-linejoin: round;
      }

      .cls-2, .cls-3, .cls-5 {
        stroke-miterlimit: 22.93;
      }

      .cls-6 {
        stroke-miterlimit: 10.43;
      }
    </style>
  </defs>
  <rect class="cls-4" x="13.96" y="28.98" width="3.39" height="12.49"/>
  <rect class="cls-4" x="59.07" y="28.98" width="3.39" height="12.49"/>
  <path class="cls-1" d="m14.5,28.84c-.18-4,.08-8.46,1.13-11.67,1.62-4.91,4.39-8.9,8.39-11.94,9.04-6.05,19.12-6.48,28.45-.19,7.29,5.3,10.44,14.54,9.5,23.86"/>
  <path class="cls-1" d="m17.36,28.91c-.4-8.74,1.55-15.31,8.73-21.05,7.91-5.58,17.35-5.02,24.36-.1,6.95,4.83,8.98,12.23,8.62,21.37"/>
  <line class="cls-5" x1="15.64" y1="17.16" x2="18.56" y2="18.15"/>
  <line class="cls-5" x1="24.08" y1="5.28" x2="25.97" y2="7.82"/>
  <line class="cls-5" x1="38.36" y1=".54" x2="38.36" y2="3.76"/>
  <line class="cls-5" x1="52.47" y1="5.18" x2="50.54" y2="7.72"/>
  <line class="cls-5" x1="60.79" y1="17.08" x2="57.92" y2="18.03"/>
  <polyline class="cls-1" points="18.94 40.79 18.95 41.5 37 41.5 53.36 31.04 52.99 29.21 51.7 29.28"/>
  <polyline class="cls-1" points="53.32 30.96 54.63 34.54 59.02 41.41"/>
  <line class="cls-5" x1="17.44" y1="41.4" x2="21.52" y2="39.49"/>
  <ellipse class="cls-3" cx="24.5" cy="31.96" rx="4.39" ry="4.95"/>
  <ellipse class="cls-3" cx="24.5" cy="31.96" rx="3.15" ry="3.55"/>
  <path class="cls-1" d="m24.71,27.02l9.12-.08c3.1.63,4.62,5.27.43,7.79l-2.53.64-.03-.75-1.87.46c-.07.49-.37.77-.94.93l-3.63.82"/>
  <path class="cls-2" d="m33.42,26.87c5.5-1.11,6.07,7.74.9,7.91"/>
  <path class="cls-1" d="m35.28,26.89l5.88-.06c2.78.67,3.13,4.56.28,5.75l-2.4.62-.03-.49-1.11.27c-.31.52-.81.93-1.39,1.02"/>
  <path class="cls-2" d="m41.14,26.73c3.41-.44,4.16,4.2,1.54,5.66-.41.23-.9.34-1.48.28"/>
  <path class="cls-1" d="m42.31,26.78c1.38,0,3.02,0,4.4,0,1.83.61,1.99,3.04.24,4.12l-2.26.71v-.39s-.8.16-.8.16"/>
  <path class="cls-1" d="m46.78,26.78l2.74.02c1.09.53,1.45,2.17.2,3.23l-1.17.35-.06-.24-.7.09"/>
  <path class="cls-1" d="m49.44,26.79l1.42.02c.82.49,1.06,1.78.26,2.49l-.52.15c-.19.27-.51.51-.9.56"/>
  <path class="cls-1" d="m50.71,26.81l1.06.02c.84.37,1.06,2.21-.5,2.64"/>
  <polyline class="cls-1" points="51.16 29.38 51.17 30.66 50.78 30.81 49.37 30.82 49.1 30.88 49.11 31.42 51.14 31.44"/>
  <line class="cls-3" x1="49.38" y1="30.19" x2="49.39" y2="30.82"/>
  <line class="cls-3" x1="50.62" y1="29.45" x2="50.61" y2="30.81"/>
  <polyline class="cls-1" points="51.16 30.9 51.19 31.44 51.76 31.12 51.74 30.53 51.12 30.8"/>
  <line class="cls-5" x1="51.16" y1="30.54" x2="51.7" y2="30.52"/>
  <polyline class="cls-1" points="48.46 30.25 48.48 31.75 49.17 31.74 48.45 32.09 45.49 32.14 45.86 32.03"/>
  <polyline class="cls-1" points="49.22 31.75 49.23 32.49 48.52 32.95 48.5 32.08"/>
  <polyline class="cls-1" points="45.48 32.17 45.5 32.96 48.48 32.98"/>
  <line class="cls-5" x1="45.87" y1="31.26" x2="45.89" y2="32.01"/>
  <line class="cls-3" x1="47.72" y1="30.25" x2="47.72" y2="32.08"/>
  <polyline class="cls-1" points="44.6 31.38 44.68 33.26 45.51 33.3 44.6 33.78 40.34 33.78 40.93 33.57 40.92 32.68"/>
  <polyline class="cls-1" points="45.58 33.3 45.58 34.31 44.62 34.86 44.61 33.79"/>
  <polyline class="cls-1" points="40.32 33.82 40.32 34.88 44.59 34.87"/>
  <line class="cls-3" x1="43.61" y1="31.63" x2="43.62" y2="33.69"/>
  <polyline class="cls-1" points="39.01 33.02 39.02 35.25 40.18 35.28 38.93 35.87 37.69 35.88 37.69 33.33"/>
  <polyline class="cls-1" points="40.36 35.22 40.37 36.5 39.02 37.32 39.01 35.98"/>
  <polyline class="cls-1" points="33.83 34.86 33.86 35.75 33.14 35.99 33.14 37.33 38.97 37.34"/>
  <line class="cls-5" x1="33.56" y1="35.87" x2="37.92" y2="35.88"/>
  <polyline class="cls-1" points="31.7 34.92 31.69 37.77 33.27 37.8 31.42 38.55 21.79 38.55 22.92 38.14 22.92 36.67"/>
  <polyline class="cls-1" points="33.34 37.81 33.38 39.37 31.48 40.29 31.47 38.57"/>
  <polyline class="cls-1" points="21.72 38.58 21.74 40.3 31.44 40.3"/>
  <line class="cls-6" x1="29.77" y1="35.4" x2="29.78" y2="38.47"/>
  <path class="cls-1" d="m24.38,26.83l.1-3.75c2.65-18.37,29.06-17.27,29.87,1.73l.03,9.05"/>
  <path class="cls-1" d="m32.19,26.88v-1.89c1.6-13.46,19.05-13.62,21.28-.24l.02,6.81"/>
  <path class="cls-1" d="m38.53,26.74l.05-1.09c1.56-8.67,12.3-8.78,14.51-.55l.06,4.84"/>
  <path class="cls-1" d="m44.27,26.76l.03-.49c.89-5.19,7.49-5.33,8.79-.12"/>
</svg>