<?xml version="1.0" encoding="UTF-8"?>
<svg id="_Слой_8" data-name="Слой 8" xmlns="http://www.w3.org/2000/svg" viewBox="0 0 76.42 42">
  <defs>
    <style>
      .cls-1, .cls-2 {
        fill-rule: evenodd;
      }

      .cls-1, .cls-2, .cls-3, .cls-4, .cls-5, .cls-6 {
        fill: none;
        stroke: #004e79;
      }

      .cls-1, .cls-2, .cls-4, .cls-5, .cls-6 {
        stroke-linecap: round;
      }

      .cls-1, .cls-4 {
        stroke-linejoin: round;
      }

      .cls-2, .cls-3, .cls-5 {
        stroke-miterlimit: 22.93;
      }

      .cls-6 {
        stroke-miterlimit: 10.43;
      }
    </style>
  </defs>
  <rect class="cls-4" x="11.97" y="5.48" width="52.77" height="32.1"/>
  <rect class="cls-4" x="7.46" y=".5" width="61.5" height="41"/>
  <polyline class="cls-1" points="26.54 20.83 26.52 14.16 51.96 14.27 52.05 29.44 42.27 29.63"/>
  <line class="cls-4" x1="11.96" y1="5.53" x2="26.49" y2="14.15"/>
  <line class="cls-4" x1="64.72" y1="5.47" x2="51.94" y2="14.26"/>
  <line class="cls-4" x1="51.97" y1="29.35" x2="64.7" y2="37.53"/>
  <ellipse class="cls-3" cx="20.22" cy="27.04" rx="3.83" ry="4.29"/>
  <ellipse class="cls-3" cx="20.22" cy="27.04" rx="5.52" ry="6.19"/>
  <path class="cls-1" d="m20.87,20.88l21.31,1.07c2.76.47,3.61,4.91.23,5.94"/>
  <polyline class="cls-1" points="26.35 30.93 28.27 30.56 28.35 33.8 29.9 33.75 28.09 34.49 16.54 34.5 17.92 33.95"/>
  <line class="cls-5" x1="18.13" y1="32.75" x2="18.13" y2="34.28"/>
  <path class="cls-1" d="m21.57,33.05c.91-.17,2.76-.48,3.11-.67.74-.39,1.24-.93,1.58-1.41l-.07,3.4"/>
  <polyline class="cls-1" points="28.15 34.66 28.13 36.21 29.98 35.4 29.91 33.85"/>
  <polyline class="cls-1" points="35.61 32.52 35.62 33.73 37.17 33.03 37.12 31.67"/>
  <polyline class="cls-1" points="42.03 30.3 42.08 31.2 43.33 30.69 43.3 29.62"/>
  <path class="cls-1" d="m28.45,31.27l4.11-.98c.59-.36.82-.64,1.15-1.17"/>
  <polyline class="cls-1" points="33.79 29.05 35.69 28.77 35.7 31.53 37.12 31.65 35.54 32.17 29.48 32.22 29.46 31.02"/>
  <line class="cls-6" x1="33.79" y1="29.07" x2="33.79" y2="32.08"/>
  <line class="cls-6" x1="30.86" y1="33.74" x2="35.52" y2="33.74"/>
  <polyline class="cls-1" points="16.52 34.58 16.52 36.25 28.08 36.21"/>
  <path class="cls-1" d="m35.87,29.44l3.98-.9c.47-.28.68-.55.95-1.03l-.03,2.46"/>
  <polyline class="cls-1" points="40.9 27.52 42.13 27.39 42.14 30.01 36.73 30.1"/>
  <line class="cls-4" x1="42.02" y1="31.22" x2="37.86" y2="31.25"/>
  <line class="cls-6" x1="36.66" y1="30.1" x2="36.67" y2="30.98"/>
  <line class="cls-5" x1="37.06" y1="29.25" x2="37.05" y2="29.96"/>
  <line class="cls-5" x1="42.07" y1="30.03" x2="43.32" y2="29.67"/>
  <path class="cls-2" d="m29.99,21.43c3.46,1.96,4.03,6.63.72,9.28"/>
  <path class="cls-2" d="m36.04,21.69c3.07,1.59,3.01,5.86.56,7.54"/>
  <path class="cls-2" d="m40.31,21.89c2.01.93,2.38,3.83,1.19,5.5"/>
</svg>