<?xml version="1.0" encoding="UTF-8"?>
<svg id="_Слой_4" data-name="Слой 4" xmlns="http://www.w3.org/2000/svg" viewBox="0 0 76.42 42">
  <defs>
    <style>
      .cls-1 {
        stroke-linejoin: round;
      }

      .cls-1, .cls-2 {
        fill-rule: evenodd;
      }

      .cls-1, .cls-2, .cls-3, .cls-4 {
        fill: none;
        stroke: #004e79;
      }

      .cls-1, .cls-2, .cls-4 {
        stroke-linecap: round;
      }

      .cls-2, .cls-3, .cls-4 {
        stroke-miterlimit: 22.93;
      }
    </style>
  </defs>
  <ellipse class="cls-3" cx="20.99" cy="25.34" rx="8.8" ry="13.98" transform="translate(-2.91 2.73) rotate(-6.95)"/>
  <path class="cls-2" d="m56.75,31.64c3.82-.54,6.04-4.82,6.24-5.28,3.93-9.23-1.21-22.31-9.88-21.21"/>
  <ellipse class="cls-3" cx="30.08" cy="4.66" rx="1.7" ry="1.01"/>
  <ellipse class="cls-3" cx="50.83" cy="1.51" rx="1.7" ry="1.01"/>
  <path class="cls-1" d="m28.38,4.68l.07,5.25c.36,1.26,2.85,1.21,3.36.04l-.07-5.14"/>
  <path class="cls-1" d="m49.14,1.71v4.8c.36,1.15,2.87,1.11,3.38.03V1.73"/>
  <path class="cls-2" d="m31.87,10.04c.48.22.75.53.75.84,0,.66-1.15,1.19-2.57,1.19s-2.57-.53-2.57-1.19c0-.33.3-.65.82-.87"/>
  <path class="cls-2" d="m52.61,6.62c.48.22.75.53.75.84,0,.66-1.15,1.19-2.57,1.19s-2.57-.53-2.57-1.19c0-.33.3-.65.82-.87"/>
  <ellipse class="cls-3" cx="40.84" cy="6.48" rx="5.21" ry="2.05"/>
  <path class="cls-2" d="m45.96,9.34c.01.06.02.11.02.17,0,1.13-2.33,2.05-5.21,2.05s-5.21-.92-5.21-2.05c0-.04,0-.08,0-.12"/>
  <line class="cls-4" x1="35.63" y1="6.39" x2="35.55" y2="9.66"/>
  <line class="cls-4" x1="46.02" y1="6.62" x2="45.94" y2="9.89"/>
  <polygon class="cls-1" points="31.66 33.73 34.26 33.11 34.36 40.85 31.76 41.5 31.66 33.73"/>
  <polygon class="cls-1" points="53.94 28.75 56.54 28.14 56.64 35.88 54.04 36.53 53.94 28.75"/>
  <path class="cls-1" d="m31.53,33.76c-.9,3.31-3.08,4.89-6.41,4.91l6.31,2.83"/>
  <path class="cls-1" d="m53.91,28.79c-.9,3.31-3.08,4.91-6.41,4.93l6.31,2.81"/>
  <line class="cls-4" x1="19.45" y1="11.45" x2="28.29" y2="9.54"/>
  <line class="cls-4" x1="32.03" y1="8.88" x2="35.28" y2="8.19"/>
  <line class="cls-4" x1="46.17" y1="6.6" x2="48.93" y2="5.96"/>
  <line class="cls-4" x1="34.56" y1="36.67" x2="47.4" y2="33.75"/>
</svg>