<?xml version="1.0" encoding="UTF-8"?>
<svg id="_Слой_6" data-name="Слой 6" xmlns="http://www.w3.org/2000/svg" viewBox="0 0 47 49">
  <defs>
    <style>
      .cls-1 {
        fill-rule: evenodd;
      }

      .cls-1, .cls-2, .cls-3, .cls-4 {
        fill: none;
        stroke: #004e79;
      }

      .cls-1, .cls-3 {
        stroke-linejoin: round;
      }

      .cls-1, .cls-3, .cls-4 {
        stroke-linecap: round;
      }

      .cls-2 {
        stroke-miterlimit: 22.93;
      }

      .cls-4 {
        stroke-miterlimit: 10.43;
      }
    </style>
  </defs>
  <ellipse class="cls-2" cx="18.46" cy="18.26" rx="2.71" ry="2.75"/>
  <line class="cls-3" x1="15.87" y1="16.82" x2="9.6" y2="13"/>
  <line class="cls-3" x1="12.11" y1="10.95" x2="12.56" y2="14.58"/>
  <line class="cls-3" x1="8.84" y1="16.41" x2="12.25" y2="15.11"/>
  <line class="cls-3" x1="18.62" y1="15.52" x2="18.62" y2="8.17"/>
  <line class="cls-3" x1="21.67" y1="9.3" x2="18.81" y2="11.57"/>
  <line class="cls-3" x1="15.31" y1="9.35" x2="18.2" y2="11.58"/>
  <line class="cls-3" x1="18.54" y1="21.03" x2="18.54" y2="28.38"/>
  <line class="cls-3" x1="21.59" y1="27.21" x2="18.73" y2="24.93"/>
  <line class="cls-3" x1="15.22" y1="27.15" x2="18.12" y2="24.92"/>
  <line class="cls-3" x1="15.78" y1="19.69" x2="9.51" y2="23.52"/>
  <line class="cls-3" x1="12.02" y1="25.56" x2="12.47" y2="21.93"/>
  <line class="cls-3" x1="8.75" y1="20.1" x2="12.16" y2="21.41"/>
  <ellipse class="cls-2" cx="18.46" cy="18.26" rx=".94" ry=".96"/>
  <path class="cls-1" d="m24.69,28.96l.18-23.87c.37-4.93,7.36-4.7,7.53.13l.12,23.72c5.15,2.47,8.03,9.42,3.39,15.23-2.97,3.14-8.27,4.98-13.29,1.24-4.84-3.62-5.42-12.15,2.06-16.45Z"/>
  <ellipse class="cls-2" cx="28.66" cy="37.93" rx="5.68" ry="5.72"/>
  <line class="cls-4" x1="28.66" y1="25.26" x2="28.63" y2="31.93"/>
  <line class="cls-4" x1="21.03" y1="16.77" x2="23.11" y2="15.53"/>
  <line class="cls-4" x1="20.89" y1="19.55" x2="23.11" y2="20.97"/>
</svg>