<?xml version="1.0" encoding="UTF-8"?>
<svg id="_Слой_4" data-name="Слой 4" xmlns="http://www.w3.org/2000/svg" viewBox="0 0 47 49">
  <defs>
    <style>
      .cls-1 {
        stroke-linecap: round;
        stroke-linejoin: round;
      }

      .cls-1, .cls-2, .cls-3 {
        fill: none;
        stroke: #004e79;
      }

      .cls-1, .cls-3 {
        fill-rule: evenodd;
      }

      .cls-2, .cls-3 {
        stroke-miterlimit: 22.93;
      }
    </style>
  </defs>
  <rect class="cls-2" x=".5" y="24.42" width="2.22" height="9.46" rx=".58" ry=".58"/>
  <rect class="cls-2" x="11.1" y="24.05" width="3.09" height="10.59" rx=".81" ry=".81"/>
  <rect class="cls-2" x="32.75" y="24.05" width="3.09" height="10.59" rx=".81" ry=".81"/>
  <rect class="cls-2" x="44.28" y="24.38" width="2.22" height="9.46" rx=".58" ry=".58"/>
  <rect class="cls-2" x="18.2" y="24" width="10.62" height="10.91" rx="1.46" ry="1.46"/>
  <line class="cls-2" x1="2.57" y1="25.74" x2="10.88" y2="25.74"/>
  <line class="cls-2" x1="2.8" y1="32.99" x2="11.11" y2="32.99"/>
  <line class="cls-2" x1="14.29" y1="32.99" x2="18.11" y2="32.99"/>
  <line class="cls-2" x1="14.48" y1="25.87" x2="18.29" y2="25.87"/>
  <line class="cls-2" x1="28.69" y1="33.01" x2="32.51" y2="33.01"/>
  <line class="cls-2" x1="28.88" y1="25.88" x2="32.69" y2="25.88"/>
  <line class="cls-2" x1="35.94" y1="25.74" x2="44.25" y2="25.74"/>
  <line class="cls-2" x1="36.17" y1="32.99" x2="44.48" y2="32.99"/>
  <path class="cls-1" d="m19.95,23.91l-.02-1.73c-.03-.29.09-.66.39-.67l6-.08c.35-.02.63.24.65.6l.04,1.75"/>
  <path class="cls-3" d="m16.82,14.08h13.32c.75,0,1.36.61,1.36,1.36h0c0,.75-.61,1.36-1.36,1.36h-13.32c-.75,0-1.36-.61-1.36-1.36h0c0-.75.61-1.36,1.36-1.36Z"/>
  <line class="cls-2" x1="21.99" y1="16.95" x2="21.99" y2="21.29"/>
  <line class="cls-2" x1="24.99" y1="17.01" x2="24.99" y2="21.35"/>
  <path class="cls-3" d="m2.88,28.61c1.78-1.17,3.58-1.09,5.44-.02.86.48,1.79.23,2.75-.11"/>
  <path class="cls-3" d="m2.84,30.53c1.78-1.17,3.58-1.09,5.44-.02.86.48,1.79.23,2.75-.11"/>
  <path class="cls-3" d="m14.09,30.47c.31.18.69-.02,1.11-.25,1.16-.54,1.8-.54,3.12-.09,1.15.91,2.5.89,3.78.27.95-.58,1.84-.51,2.93.01,1.35.65,2.38.26,3.58-.27,1.23-.61,2.61-.17,4.03.62"/>
  <path class="cls-3" d="m14.14,28.57c.31.18.69-.02,1.11-.25,1.16-.54,1.8-.54,3.12-.09,1.15.91,2.5.89,3.78.27.95-.58,1.84-.51,2.93.01,1.35.65,2.38.26,3.58-.27,1.23-.61,2.61-.17,4.03.62"/>
  <path class="cls-3" d="m44.22,29.12c-1.84-1.17-3.69-1.09-5.59-.02-.89.48-1.84.23-2.83-.11"/>
  <path class="cls-3" d="m44.26,31.04c-1.84-1.17-3.69-1.09-5.59-.02-.89.48-1.84.23-2.83-.11"/>
</svg>