<?xml version="1.0" encoding="UTF-8"?>
<svg id="_Слой_2" data-name="Слой 2" xmlns="http://www.w3.org/2000/svg" viewBox="0 0 47 49">
  <defs>
    <style>
      .cls-1 {
        fill-rule: evenodd;
      }

      .cls-1, .cls-2, .cls-3 {
        fill: none;
        stroke: #004e79;
      }

      .cls-1, .cls-3 {
        stroke-linecap: round;
        stroke-linejoin: round;
      }

      .cls-2 {
        stroke-miterlimit: 22.93;
      }
    </style>
  </defs>
  <rect class="cls-3" x=".5" y="8.74" width="31.2" height="31.52" rx="2.53" ry="2.53"/>
  <circle class="cls-2" cx="16.06" cy="24.8" r="12.77" transform="translate(-11.34 35.84) rotate(-79.02)"/>
  <circle class="cls-2" cx="16.12" cy="24.72" r="2.53"/>
  <circle class="cls-2" cx="16.12" cy="24.72" r="1.65"/>
  <path class="cls-1" d="m17.06,13.85c-2.14-.25-4.02.04-5.82.9-1.75.78-2.59,2.12-1.59,4.36.94,1.74,2.22,3.12,3.96,4.1"/>
  <path class="cls-1" d="m27.08,23.24c-.23-2.14-.93-3.91-2.18-5.47-1.15-1.54-2.64-2.05-4.61-.58-1.49,1.31-2.55,2.86-3.11,4.77"/>
  <path class="cls-1" d="m20.32,34.6c2.01-.79,3.52-1.93,4.7-3.55,1.18-1.52,1.28-3.09-.66-4.6-1.65-1.09-3.43-1.7-5.43-1.74"/>
  <path class="cls-1" d="m13.73,25.96c-1.37,1.66-2.93,2.75-4.83,3.37-1.81.65-3.33.26-4.16-2.05-.52-1.91-.56-3.79.02-5.7"/>
  <path class="cls-1" d="m16.44,27.54c.65,2.06.72,3.95.2,5.89-.44,1.87-1.6,2.94-3.99,2.38-1.88-.6-3.48-1.59-4.77-3.12"/>
  <path class="cls-1" d="m45.95,15.72l-.02,1.84c-.06,1.68-1.06,2.5-2.71,2.6h-6.39c-.83-.02-1.47.16-1.53,1.03v6.44c.03.65.52.91,1.2.93h6.66c1.57.1,2.72,1.05,2.77,2.63v2.11"/>
  <line class="cls-3" x1="31.91" y1="23.61" x2="35.08" y2="23.59"/>
  <line class="cls-3" x1="31.88" y1="25.72" x2="35.04" y2="25.7"/>
  <line class="cls-3" x1="37.02" y1="24.36" x2="46.5" y2="24.35"/>
</svg>