<?xml version="1.0" encoding="UTF-8"?>
<svg id="_Слой_1" data-name="Слой 1" xmlns="http://www.w3.org/2000/svg" viewBox="0 0 47 49">
  <defs>
    <style>
      .cls-1 {
        fill-rule: evenodd;
      }

      .cls-1, .cls-2 {
        fill: none;
        stroke: #004e79;
        stroke-miterlimit: 10;
      }
    </style>
  </defs>
  <path class="cls-2" d="m.5,3.67l.06,11.51c.08,2.36,1.39,4.48,4.25,4.62l4.54-.15-.03-3.57-2.97.12c-1.46.1-2.33-.85-2.33-2.46V3.89"/>
  <path class="cls-2" d="m1.29,45.33v-4.17c.21-2.24,1.28-4.1,3.99-4.62l4.05-.45.03,3.68-2.51.18c-1.7.02-2.12.91-2.11,2.51l-.03,2.82"/>
  <path class="cls-1" d="m13.03,13.91l2.04-.35c.82-.14,1.49.44,1.49,1.3l.09,27.05c0,.89-.68,1.72-1.51,1.85l-2.08.33c-.83.13-1.51-.48-1.51-1.37V15.72c0-.85.66-1.67,1.47-1.81Z"/>
  <path class="cls-1" d="m11.76,11.59l-2.26.39c-.95.18-1.54,1.07-1.49,1.95v26.78c-.03.86.36,1.2,1.06,1.58l3.02,1.6"/>
  <line class="cls-2" x1="11.79" y1="11.58" x2="15.77" y2="13.62"/>
  <path class="cls-1" d="m22.79,12.66l2.04-.35c.82-.14,1.49.44,1.49,1.3l.09,27.05c0,.89-.68,1.72-1.51,1.85l-2.08.33c-.83.13-1.51-.48-1.51-1.37V14.47c0-.85.66-1.67,1.47-1.81Z"/>
  <line class="cls-2" x1="21.49" y1="10.34" x2="25.38" y2="12.29"/>
  <path class="cls-1" d="m16.86,15.73l2.12-.23c.43-.03.7.36.71.68l.05,2.05c0,.42-.22.69-.53.74l-2.31.3"/>
  <path class="cls-1" d="m26.67,14.48l2.12-.23c.43-.03.7.36.71.68l.05,2.05c0,.42-.22.69-.53.74l-2.31.3"/>
  <path class="cls-1" d="m21.45,10.34l-1.97.19c-1.16.22-1.67,1.07-1.75,1.78v3.13"/>
  <path class="cls-1" d="m16.95,35.41l2.12-.23c.43-.03.7.36.71.68l.05,2.05c0,.42-.22.69-.53.74l-2.31.3"/>
  <path class="cls-1" d="m26.79,34.48l2.12-.23c.43-.03.7.36.71.68l.05,2.05c0,.42-.22.69-.53.74l-2.31.3"/>
  <line class="cls-2" x1="17.75" y1="19.29" x2="17.77" y2="35.26"/>
  <line class="cls-2" x1="27.57" y1="18.18" x2="27.59" y2="34.15"/>
  <path class="cls-1" d="m31.01,9.18l-1.7.17c-1.16.22-1.65,1.1-1.76,1.8l-.02,3.15"/>
  <line class="cls-2" x1="31.05" y1="9.18" x2="35.17" y2="11.04"/>
  <path class="cls-1" d="m32.61,11.42l2.04-.35c.82-.14,1.49.44,1.49,1.3l.09,27.05c0,.89-.68,1.72-1.51,1.85l-2.08.33c-.83.13-1.51-.48-1.51-1.37V13.23c0-.85.66-1.67,1.47-1.81Z"/>
  <path class="cls-1" d="m17.74,39.12c.09.87.17,1.3.96,1.86l3.28,1.72"/>
  <path class="cls-1" d="m27.53,37.96c.09.87.17,1.3.96,1.86l3.28,1.63"/>
  <line class="cls-2" x1="36.91" y1="14.87" x2="36.91" y2="17.82"/>
  <path class="cls-1" d="m42.71,12.06c1.83-.32,3.5,1.02,3.76,2.96.26,1.9-.92,3.75-2.67,4.17-1.81.43-3.59-.79-3.93-2.79-.35-2.04.95-4,2.85-4.34Z"/>
  <path class="cls-1" d="m43.05,14.49c.57-.1,1.08.32,1.17.92.08.59-.29,1.16-.83,1.29-.56.13-1.11-.25-1.22-.87-.11-.63.29-1.24.88-1.34Z"/>
  <line class="cls-2" x1="36.94" y1="15.2" x2="39.9" y2="14.77"/>
  <line class="cls-2" x1="37.01" y1="17.44" x2="39.97" y2="17.02"/>
</svg>