<?xml version="1.0" encoding="UTF-8"?>
<svg id="_Слой_7" data-name="Слой 7" xmlns="http://www.w3.org/2000/svg" viewBox="0 0 47 49">
  <defs>
    <style>
      .cls-1 {
        fill-rule: evenodd;
      }

      .cls-1, .cls-2, .cls-3, .cls-4 {
        fill: none;
        stroke: #004e79;
      }

      .cls-1, .cls-3 {
        stroke-linejoin: round;
      }

      .cls-1, .cls-3, .cls-4 {
        stroke-linecap: round;
      }

      .cls-2, .cls-4 {
        stroke-miterlimit: 22.93;
      }
    </style>
  </defs>
  <path class="cls-1" d="m13.2,17.72l-3.67,1.57c-4,2.12-7.09,6.06-7.36,11.84v7.13c.74,1.8,6.95,1.93,7.78-.14.02-2.29.04-4.58.06-6.87.22-2.69,1.3-4.68,3.55-5.81l2.07-.86c1.49-1.35-.6-6.82-2.44-6.85Z"/>
  <path class="cls-1" d="m1.89,36.77c-.52.24-.98.7-1.08,1.15l.05,2.82c.66,2.29,8.82,3.05,10.42-.05l-.02-2.39c0-.61-.33-1.2-1.08-1.5"/>
  <path class="cls-1" d="m11.54,18.01c.03-.51.22-1.02.77-1.44.38-.22.85-.39,1.42-.51,2.54-.1,5.71,6.64,3.54,9.35-.59.31-1.27.55-1.76.59-.75-.08-1.03-.24-1.35-.61"/>
  <path class="cls-1" d="m15.9,16.74l3.84-1.28c4.34-.98,8.31,1.46,8.82,5.68v7.26c-.11,1.56-6.43,1.88-7.12.05l-.08-5.86-3.23,1.02"/>
  <polyline class="cls-1" points="21.25 25.4 14.86 28.51 31.22 34.1 34.51 33.04"/>
  <polyline class="cls-1" points="14.83 28.58 14.82 31.76 31.29 37.46 34.45 36.37"/>
  <polyline class="cls-1" points="15.27 32.09 15.25 41.17 31.17 46.6 33.52 45.74"/>
  <polyline class="cls-1" points="15.04 39.91 13.63 40.58 13.49 42.46 31.13 48.5 35.29 47.05"/>
  <line class="cls-4" x1="31.25" y1="37.52" x2="31.27" y2="46.56"/>
  <line class="cls-3" x1="31.29" y1="34.07" x2="31.29" y2="37.13"/>
  <line class="cls-3" x1="18.54" y1="34.55" x2="18.54" y2="40.65"/>
  <line class="cls-3" x1="22.78" y1="35.98" x2="22.78" y2="42.09"/>
  <line class="cls-3" x1="27.05" y1="37.47" x2="27.05" y2="43.57"/>
  <line class="cls-4" x1="28.94" y1="24.56" x2="33.45" y2="26.05"/>
  <ellipse class="cls-2" cx="39.81" cy="2.39" rx="5.19" ry="1.89"/>
  <path class="cls-1" d="m34.62,2.54v5.38c.13,2.47,10.65,2.13,10.33.09l.05-5.35"/>
  <path class="cls-1" d="m34.46,7.19c-.54.23-.96.77-.98,1.21l.05,2.2c.33,2.5,11.63,2.53,12.55.37l.1-2.69c0-.32-.46-.88-.96-1.11"/>
  <path class="cls-1" d="m36.24,2.44c2.26-.89,4.82-.98,7.21.02"/>
  <path class="cls-1" d="m34.6,11.71l-.04,13.89c-.14,2.38,10.28,2.27,10.41.23v-13.85"/>
  <path class="cls-1" d="m34.48,24.75c-.54.23-.96.77-.98,1.21l.05,2.2c.31,2.82,11.79,2.65,12.55.37l.1-2.69c0-.32-.46-.88-.96-1.11"/>
  <path class="cls-1" d="m34.59,29.42v13.24c.07,2.5,10.26,2.4,10.37.28v-13.25"/>
  <path class="cls-1" d="m34.45,41.69c-.54.23-.96.91-.98,1.35l.05,2.4c.57,2.89,10.89,3.2,12.59.27l.06-2.79c0-.32-.4-.92-.9-1.15"/>
</svg>