<?xml version="1.0" encoding="UTF-8"?>
<svg id="_Слой_3" data-name="Слой 3" xmlns="http://www.w3.org/2000/svg" viewBox="0 0 47 49">
  <defs>
    <style>
      .cls-1, .cls-2, .cls-3, .cls-4, .cls-5, .cls-6, .cls-7 {
        fill: none;
        stroke: #004e79;
      }

      .cls-1, .cls-2, .cls-4, .cls-6, .cls-7 {
        stroke-linecap: round;
      }

      .cls-1, .cls-2, .cls-5 {
        fill-rule: evenodd;
      }

      .cls-1, .cls-4 {
        stroke-linejoin: round;
      }

      .cls-2, .cls-3, .cls-5, .cls-6 {
        stroke-miterlimit: 22.93;
      }

      .cls-7 {
        stroke-miterlimit: 10.43;
      }
    </style>
  </defs>
  <path class="cls-1" d="m.5,24.2v-13.05c.04-1.83,1.06-3.09,2.72-3.2h40.38c1.48,0,2.79,1.24,2.89,2.95v12.95c-.04,3.2-.74,6.67-3.2,7.28l-39.44.11c-1.99-.44-3.22-3.49-3.36-7.03Z"/>
  <path class="cls-1" d="m6.69,31.04c-1.13-1.5-1.54-2.97-1.66-4.47h36.94c-.13,1.57-.65,3.07-1.66,4.47"/>
  <line class="cls-7" x1="5.42" y1="28.49" x2="41.54" y2="28.43"/>
  <line class="cls-7" x1=".52" y1="24.11" x2="46.47" y2="24.08"/>
  <line class="cls-7" x1="4.15" y1="18.95" x2="9.47" y2="18.95"/>
  <line class="cls-7" x1="4.13" y1="21.11" x2="6.58" y2="21.11"/>
  <path class="cls-5" d="m37.72,17.55c.73,0,1.32-.6,1.32-1.34s-.59-1.34-1.32-1.34-1.32.6-1.32,1.34.59,1.34,1.32,1.34Z"/>
  <line class="cls-4" x1="36.46" y1="15.51" x2="33.39" y2="13.64"/>
  <line class="cls-4" x1="34.62" y1="12.64" x2="34.84" y2="14.41"/>
  <line class="cls-4" x1="33.02" y1="15.3" x2="34.69" y2="14.67"/>
  <line class="cls-4" x1="37.8" y1="14.89" x2="37.8" y2="11.31"/>
  <line class="cls-4" x1="39.29" y1="11.83" x2="37.89" y2="12.94"/>
  <line class="cls-4" x1="36.18" y1="11.86" x2="37.59" y2="12.95"/>
  <line class="cls-4" x1="37.76" y1="17.51" x2="37.76" y2="21.1"/>
  <line class="cls-4" x1="39.25" y1="20.57" x2="37.85" y2="19.46"/>
  <line class="cls-4" x1="36.14" y1="20.55" x2="37.55" y2="19.46"/>
  <line class="cls-4" x1="36.41" y1="16.9" x2="33.35" y2="18.77"/>
  <line class="cls-4" x1="34.58" y1="19.77" x2="34.8" y2="18"/>
  <line class="cls-4" x1="32.98" y1="17.1" x2="34.64" y2="17.74"/>
  <line class="cls-4" x1="38.99" y1="16.93" x2="42.05" y2="18.8"/>
  <line class="cls-4" x1="40.83" y1="19.8" x2="40.61" y2="18.03"/>
  <line class="cls-4" x1="42.43" y1="17.13" x2="40.76" y2="17.77"/>
  <line class="cls-4" x1="39.03" y1="15.48" x2="42.09" y2="13.61"/>
  <line class="cls-4" x1="40.87" y1="12.62" x2="40.65" y2="14.38"/>
  <line class="cls-4" x1="42.47" y1="15.28" x2="40.8" y2="14.64"/>
  <ellipse class="cls-3" cx="37.72" cy="16.21" rx=".46" ry=".47"/>
  <path class="cls-1" d="m9.08,40.87c4.69-.26,6.53-2.98,6.95-7.2"/>
  <path class="cls-1" d="m37.88,40.83c-4.69-.26-6.53-2.98-6.95-7.2"/>
  <path class="cls-2" d="m19.78,33.55c.07,2.76-.34,5.3-1.48,7.5"/>
  <path class="cls-2" d="m27.22,33.51c-.07,2.76.34,5.3,1.48,7.5"/>
  <line class="cls-6" x1="23.47" y1="33.52" x2="23.53" y2="40.93"/>
</svg>