<?xml version="1.0" encoding="UTF-8"?>
<svg id="_Слой_5" data-name="Слой 5" xmlns="http://www.w3.org/2000/svg" viewBox="0 0 47 49">
  <defs>
    <style>
      .cls-1 {
        stroke-linejoin: round;
      }

      .cls-1, .cls-2 {
        fill-rule: evenodd;
        stroke-linecap: round;
      }

      .cls-1, .cls-2, .cls-3 {
        fill: none;
        stroke: #004e79;
      }

      .cls-2, .cls-3 {
        stroke-miterlimit: 22.93;
      }
    </style>
  </defs>
  <rect class="cls-3" x=".5" y="11.15" width="3.27" height="10.79" rx=".7" ry=".7"/>
  <rect class="cls-3" x="15.39" y="25.17" width="10.79" height="3.27" rx=".7" ry=".7"/>
  <rect class="cls-3" x="34.99" y="25.19" width="10.79" height="3.27" rx=".7" ry=".7"/>
  <path class="cls-1" d="m3.94,12.98l12.53-.14c4.75.14,8.17,3.85,8.25,8.39l.06,3.79"/>
  <path class="cls-1" d="m3.9,20.45h10.48c1.57.09,2.3,1.01,2.34,2.13l-.03,2.5"/>
  <path class="cls-1" d="m17.09,28.56l.05,1.29c1.12,15.57,25.7,16.35,27.05.37l.07-1.63"/>
  <path class="cls-1" d="m24.93,28.65l.02.58c.47,6.98,10.73,7.34,11.29.17l.03-.73"/>
  <rect class="cls-3" x="34.06" y="7.13" width="12.44" height="3.92" rx=".84" ry=".84"/>
  <line class="cls-3" x1="36.12" y1="11.19" x2="36.15" y2="25.14"/>
  <line class="cls-3" x1="44.33" y1="11.25" x2="44.35" y2="25.2"/>
  <path class="cls-1" d="m3.83,17.05c1.34-1.26,4.09-1.23,5.6-.29,1.81,1.14,3.66.58,5.85.07,3.7-.42,5.72,3.23,5.37,5.1.01,1.12-.45,2.02,0,3.11"/>
  <path class="cls-1" d="m20.94,28.5c-.44,1.65-.22,2.92.78,4.5,1.51,1.78,3.74,1.85,5.31,4.79,1.74,1.89,5.46,1.71,6.87.32,1.45-1.98,3.08-2.98,4.5-3.18,1.63-.36,2.67-2.36,2.1-3.99-.55-.97-.23-1.67-.03-2.5"/>
  <path class="cls-2" d="m40.56,11.21c-.54,1.11-1.02,3.75-.22,5.18,1.11,1.83,1.24,3.2.25,5.3-.23.6-.37,2.82.2,3.41"/>
</svg>